<?xml version="1.0" standalone="no"?>
<!DOCTYPE svg PUBLIC "-//W3C//DTD SVG 1.1//EN" "http://www.w3.org/Graphics/SVG/1.1/DTD/svg11.dtd" >
<svg xmlns="http://www.w3.org/2000/svg" xmlns:xlink="http://www.w3.org/1999/xlink" version="1.1">
<metadata>
Created by FontForge 20190801 at Wed Mar  6 00:45:54 2019
 By Unknown
Copyright (c) 2016-2019 by TypeType. Designers Ivan Gladkikh, Pavel Emelyanov. Technical designers Vika Usmanova, Olexa Volochay, Nadyr Rakhimov. All rights reserved. |DCNT
</metadata>
<defs>
<font id="TTNormsPro-LightItalic" horiz-adv-x="580" >
  <font-face 
    font-family="TT Norms Pro Light"
    font-weight="300"
    font-style="italic"
    font-stretch="normal"
    units-per-em="1000"
    panose-1="2 0 5 3 2 0 0 9 0 3"
    ascent="700"
    descent="-300"
    x-height="480"
    cap-height="700"
    bbox="-344 -220 1498 990"
    underline-thickness="50"
    underline-position="-200"
    slope="-12"
    unicode-range="U+000D-FB06"
  />
<missing-glyph horiz-adv-x="0" 
 />
    <glyph glyph-name="f_f" unicode="ff" horiz-adv-x="575" 
d="M110 0l92 435h-80l10 45h80l20 93q25 117 127 117q31 0 57 -12q8 -3 22 -11l-10 -43q-7 4 -21 10q-29 11 -49 11q-66 0 -82 -76l-19 -89h225l24 113q25 117 127 117q31 0 57 -12q8 -3 22 -11l-10 -43q-7 4 -21 10q-29 11 -49 11q-66 0 -82 -76l-23 -109h120l-10 -45h-120
l-92 -435h-45l92 435h-225l-92 -435h-45z" />
    <glyph glyph-name="uniFB01" unicode="fi" horiz-adv-x="515" 
d="M110 0l92 435h-80l10 45h80l24 113q25 117 127 117q31 0 57 -12q8 -3 22 -11l-10 -43q-7 4 -21 10q-29 11 -49 11q-66 0 -82 -76l-23 -109h270l-102 -480h-45l92 435h-225l-92 -435h-45zM503 646q0 17 11.5 28t27.5 11q14 0 23 -9t9 -22q0 -17 -11.5 -28t-27.5 -11
q-14 0 -23 9t-9 22z" />
    <glyph glyph-name="f_f_i" unicode="ffi" horiz-adv-x="790" 
d="M110 0l92 435h-80l10 45h80l20 93q25 117 127 117q31 0 57 -12q8 -3 22 -11l-10 -43q-7 4 -21 10q-29 11 -49 11q-66 0 -82 -76l-19 -89h225l24 113q25 117 127 117q31 0 57 -12q8 -3 22 -11l-10 -43q-7 4 -21 10q-29 11 -49 11q-66 0 -82 -76l-23 -109h270l-102 -480
h-45l92 435h-225l-92 -435h-45l92 435h-225l-92 -435h-45zM773 646q0 17 11.5 28t27.5 11q14 0 23 -9t9 -22q0 -17 -11.5 -28t-27.5 -11q-14 0 -23 9t-9 22z" />
    <glyph glyph-name=".notdef" horiz-adv-x="0" 
 />
    <glyph glyph-name=".null" horiz-adv-x="0" 
 />
    <glyph glyph-name="nonmarkingreturn" horiz-adv-x="333" 
 />
    <glyph glyph-name="NULL" horiz-adv-x="0" 
 />
    <glyph glyph-name="NULL" horiz-adv-x="0" 
 />
    <glyph glyph-name="CR" unicode="&#xd;" horiz-adv-x="0" 
 />
    <glyph glyph-name="space" unicode=" " horiz-adv-x="200" 
 />
    <glyph glyph-name="exclam" unicode="!" horiz-adv-x="280" 
d="M146 65q14 0 23 -9t9 -22q0 -17 -11.5 -28t-27.5 -11q-14 0 -23 9t-9 22q0 17 11.5 28t27.5 11zM150 160l104 540h60l-124 -540h-40z" />
    <glyph glyph-name="quotedbl" unicode="&#x22;" horiz-adv-x="335" 
d="M169 490l44 210h45l-44 -210h-45zM319 490l44 210h45l-44 -210h-45z" />
    <glyph glyph-name="numbersign" unicode="#" horiz-adv-x="715" 
d="M135 0l85 215h-150l20 45h150l73 180h-150l20 45h150l85 215h45l-85 -215h220l85 215h45l-85 -215h150l-20 -45h-150l-73 -180h150l-20 -45h-150l-85 -215h-45l85 215h-220l-85 -215h-45zM285 260h220l73 180h-220z" />
    <glyph glyph-name="dollar" unicode="$" horiz-adv-x="560" 
d="M235 -110l23 105q-86 14 -143 71q-27 27 -40 54l41 32q16 -31 44 -56q64 -56 164 -56q77 0 126.5 42.5t49.5 109.5q0 41 -33 72t-80 51.5t-94.5 43t-80.5 60t-33 87.5q0 84 65.5 144t164.5 60l22 100h50l-23 -104q71 -14 124 -59q24 -21 37 -44l-43 -32q-13 24 -39 44
q-55 45 -137 45q-74 0 -122 -41t-48 -102q0 -41 33 -72t80 -52t94 -43.5t80 -60t33 -88.5q0 -90 -66.5 -150.5t-168.5 -60.5h-8l-22 -100h-50z" />
    <glyph glyph-name="percent" unicode="%" horiz-adv-x="760" 
d="M135 0l588 700h55l-588 -700h-55zM419 571q0 42 -26 68t-69 26q-47 0 -82 -35.5t-35 -90.5q0 -42 25.5 -68t68.5 -26q47 0 82.5 35.5t35.5 90.5zM465 576q0 -75 -50 -125.5t-117 -50.5q-60 0 -98.5 38t-38.5 96q0 75 50 125.5t117 50.5q60 0 98.5 -38t38.5 -96zM494 129
q0 -42 26 -68t69 -26q47 0 82 35.5t35 90.5q0 42 -25.5 68t-68.5 26q-47 0 -82.5 -35.5t-35.5 -90.5zM448 124q0 75 50 125.5t117 50.5q60 0 98.5 -38t38.5 -96q0 -75 -50 -125.5t-117 -50.5q-60 0 -98.5 38t-38.5 96z" />
    <glyph glyph-name="ampersand" unicode="&#x26;" horiz-adv-x="610" 
d="M616 43l-9 -45l-6 -2q-3 -1 -20 -1q-46 0 -79 37q-14 16 -25 37q-21 -20 -53 -40q-64 -39 -133 -39q-82 0 -130 44t-48 111q0 92 92 168q40 33 92 58q-19 27 -36 57q-35 64 -35 121q0 68 51.5 114.5t117.5 46.5q65 0 102.5 -35.5t37.5 -90.5q0 -86 -90 -160
q-44 -36 -89 -59l136 -226q20 25 36 55q35 65 50 146h45q-15 -95 -63 -175q-22 -37 -45 -62q9 -18 20 -32q25 -31 55 -31q12 0 17 1zM338 395q42 25 75 54q76 64 76 131q0 38 -26 61.5t-72 23.5q-49 0 -84 -32.5t-35 -81.5q0 -46 33 -106q14 -27 33 -50zM454 105l-140 232
q-42 -22 -78 -53q-78 -70 -78 -140q0 -50 35.5 -79.5t102.5 -29.5q63 0 115 35q23 14 43 35z" />
    <glyph glyph-name="quotesingle" unicode="'" horiz-adv-x="185" 
d="M169 490l44 210h45l-44 -210h-45z" />
    <glyph glyph-name="parenleft" unicode="(" horiz-adv-x="325" 
d="M247 -196l-39 -24q-25 40 -43 92q-43 110 -43 243q0 238 142 443q60 89 142 162l30 -26q-76 -68 -135 -156q-134 -205 -134 -421q0 -118 40 -228q18 -49 40 -85z" />
    <glyph glyph-name="parenright" unicode=")" horiz-adv-x="325" 
d="M29 -220l-30 26q76 69 134 156q135 201 135 421q0 118 -40 228q-18 49 -40 85l39 24q22 -37 43 -92q43 -123 43 -243q0 -238 -142 -443q-60 -89 -142 -162z" />
    <glyph glyph-name="asterisk" unicode="*" horiz-adv-x="390" 
d="M185 425l85 110l-130 30l15 40l125 -40l-5 135h40l-5 -135l125 40l15 -40l-130 -30l85 -110l-30 -25l-80 115l-80 -115z" />
    <glyph glyph-name="plus" unicode="+" horiz-adv-x="505" 
d="M292 75v195h-185v45h185v195h45v-195h185v-45h-185v-195h-45z" />
    <glyph glyph-name="comma" unicode="," horiz-adv-x="200" 
d="M-18 -110l122 180l44 -30l-140 -165z" />
    <glyph glyph-name="hyphen" unicode="-" horiz-adv-x="385" 
d="M108 275l10 45h285l-10 -45h-285z" />
    <glyph glyph-name="period" unicode="." horiz-adv-x="200" 
d="M111 65q14 0 23 -9t9 -22q0 -17 -11.5 -28t-27.5 -11q-14 0 -23 9t-9 22q0 17 11.5 28t27.5 11z" />
    <glyph glyph-name="slash" unicode="/" horiz-adv-x="355" 
d="M-64 -210l499 920h55l-500 -920h-54z" />
    <glyph glyph-name="zero" unicode="0" horiz-adv-x="670" 
d="M462 710q93 0 157.5 -78t64.5 -205q0 -99 -31.5 -184t-81 -139t-107 -84t-111.5 -30q-93 0 -157.5 78t-64.5 205q0 99 31.5 184t81 139t107 84t111.5 30zM455 660q-44 0 -91 -25.5t-88.5 -72t-68.5 -122.5t-27 -166q0 -108 52 -171t128 -63q44 0 91 25.5t88.5 72
t68.5 122.5t27 166q0 107 -52 170.5t-128 63.5z" />
    <glyph glyph-name="one" unicode="1" horiz-adv-x="335" 
d="M175 0l129 610q-17 -17 -38 -28q-45 -27 -109 -27l9 40q59 0 119 52q24 22 48 53h40l-148 -700h-50z" />
    <glyph glyph-name="two" unicode="2" horiz-adv-x="550" 
d="M109 50h386l-10 -50h-440q10 63 42.5 114t77 84t96.5 61.5t101.5 54t90 53.5t65.5 67.5t25 89.5q0 59 -43 97t-118 38q-74 0 -128 -54q-25 -25 -38 -54l-41 22q21 40 49 68q68 68 163 68q93 0 149.5 -52.5t56.5 -129.5q0 -74 -44.5 -130.5t-110 -93t-133 -70t-124 -80
t-72.5 -103.5z" />
    <glyph glyph-name="three" unicode="3" horiz-adv-x="545" 
d="M70 120l41 31q12 -28 40 -56q57 -55 149 -55q79 0 132.5 47.5t53.5 113.5q0 57 -43.5 98t-111.5 41h-60l11 50h87q71 0 116.5 43.5t45.5 102.5q0 53 -39.5 88.5t-108.5 35.5q-58 0 -114 -32q-20 -10 -44 -31l-26 43q19 16 51 35q68 35 136 35q88 0 141.5 -49t53.5 -121
q0 -95 -75 -146q-33 -22 -74 -33q32 -15 52 -34q52 -46 52 -119q0 -88 -70.5 -153t-172.5 -65q-106 0 -175 65q-32 29 -48 65z" />
    <glyph glyph-name="four" unicode="4" horiz-adv-x="555" 
d="M59 160l12 60l452 480h60l-104 -490h90l-10 -50h-90l-34 -160h-50l34 160h-360zM126 210h303l88 418z" />
    <glyph glyph-name="five" unicode="5" horiz-adv-x="570" 
d="M95 119l42 31q12 -29 40 -55q57 -55 143 -55q82 0 139.5 56.5t57.5 139.5q0 67 -45 110.5t-117 43.5q-58 0 -114 -35q-25 -18 -39 -35h-40l105 380h355l-10 -50h-310l-68 -251q17 11 37 20q44 21 94 21q89 0 146 -58t57 -143q0 -103 -76 -176t-180 -73q-100 0 -170 64
q-32 30 -47 65z" />
    <glyph glyph-name="six" unicode="6" horiz-adv-x="570" 
d="M194 384l278 316h60l-238 -271l19 5q24 6 50 6q91 0 149.5 -58t58.5 -142q0 -103 -75.5 -176.5t-176.5 -73.5q-93 0 -151.5 58.5t-58.5 143.5q0 48 21 96t42 72zM355 390q-82 0 -139 -55.5t-57 -140.5q0 -65 45.5 -109.5t120.5 -44.5q82 0 139 55.5t57 140.5
q0 65 -45.5 109.5t-120.5 44.5z" />
    <glyph glyph-name="seven" unicode="7" horiz-adv-x="475" 
d="M75 0l458 650h-373l10 50h435l-10 -50l-458 -650h-62z" />
    <glyph glyph-name="eight" unicode="8" 
d="M289 389q-23 15 -38 31q-38 42 -38 98q0 80 62.5 136t147.5 56q79 0 130 -49.5t51 -118.5q0 -92 -69 -139q-31 -23 -69 -33q27 -15 49 -37q49 -55 49 -120q0 -90 -71 -156.5t-170 -66.5q-94 0 -152 55.5t-58 133.5q0 88 53.5 141t122.5 69zM263 526q0 -50 38 -85.5
t100 -35.5q64 0 108 38.5t44 95.5q0 50 -38 85.5t-100 35.5q-63 0 -107.5 -39t-44.5 -95zM163 188q0 -61 45.5 -104.5t118.5 -43.5q79 0 133 48.5t54 118.5q0 61 -45.5 104.5t-118.5 43.5q-79 0 -133 -48.5t-54 -118.5z" />
    <glyph glyph-name="nine" unicode="9" horiz-adv-x="570" 
d="M190 0l238 271l-19 -6q-22 -5 -50 -5q-91 0 -149.5 58t-58.5 142q0 103 75.5 176.5t176.5 73.5q93 0 151.5 -58.5t58.5 -143.5q0 -22 -4.5 -44.5t-12 -41t-16.5 -35t-18 -29.5t-17 -22.5t-13 -14.5l-4 -5l-278 -316h-60zM201 464q0 -65 45.5 -109.5t120.5 -44.5
q82 0 139 55.5t57 140.5q0 65 -45.5 109.5t-120.5 44.5q-82 0 -139 -55.5t-57 -140.5z" />
    <glyph glyph-name="colon" unicode=":" horiz-adv-x="200" 
d="M111 65q14 0 23 -9t9 -22q0 -17 -11.5 -28t-27.5 -11q-14 0 -23 9t-9 22q0 17 11.5 28t27.5 11zM199 484q14 0 23 -9t9 -22q0 -17 -11.5 -28t-27.5 -11q-14 0 -23 9t-9 22q0 17 11.5 28t27.5 11z" />
    <glyph glyph-name="semicolon" unicode=";" horiz-adv-x="200" 
d="M-18 -101l121 170l43 -35l-138 -153zM162 445q0 17 11.5 28t27.5 11q14 0 23 -9t9 -22q0 -17 -11.5 -28t-27.5 -11q-14 0 -23 9t-9 22z" />
    <glyph glyph-name="less" unicode="&#x3c;" horiz-adv-x="490" 
d="M105 225v40l390 205v-50l-335 -175l335 -175v-50z" />
    <glyph glyph-name="equal" unicode="=" horiz-adv-x="495" 
d="M120 360v45h395v-45h-395zM120 185v45h395v-45h-395z" />
    <glyph glyph-name="greater" unicode="&#x3e;" horiz-adv-x="490" 
d="M135 20v50l335 175l-335 175v50l390 -205v-40z" />
    <glyph glyph-name="question" unicode="?" horiz-adv-x="520" 
d="M294 160h-45q-1 46 13.5 82.5t37.5 60t51.5 43.5t57.5 38t52.5 37.5t38.5 48.5t15 66q0 53 -41.5 88.5t-114.5 35.5q-74 0 -126 -52q-24 -24 -37 -52l-44 16q21 40 50 69q69 69 163 69q91 0 145.5 -50t54.5 -121q0 -58 -24 -98.5t-59.5 -65t-73 -47t-68.5 -58.5t-41 -85z
M206 26q0 17 11.5 28t27.5 11q14 0 23 -9t9 -22q0 -17 -11.5 -28t-27.5 -11q-14 0 -23 9t-9 22z" />
    <glyph glyph-name="at" unicode="@" horiz-adv-x="890" 
d="M652 -34l17 -38q-26 -18 -54 -29q-68 -29 -144 -29q-143 0 -240 100.5t-97 243.5q0 110 61 207t158 153t202 56q143 0 239.5 -95t96.5 -240q0 -92 -49 -163.5t-127 -71.5q-46 0 -76 40q-12 18 -18 40q-12 -21 -35 -40q-48 -40 -107 -40q-64 0 -107.5 46t-43.5 115
q0 87 61 148t135 61q61 0 99 -42q16 -17 25 -42l16 79h45l-45 -213q-11 -48 5 -77.5t52 -29.5q49 0 87.5 51.5t38.5 143.5q0 120 -83.5 202.5t-216.5 82.5q-143 0 -255.5 -110.5t-112.5 -261.5q0 -125 84.5 -211.5t211.5 -86.5q68 0 128 25q24 9 49 26zM484 105q56 0 100 46
t44 118q0 52 -31 84t-80 32q-56 0 -100 -46t-44 -118q0 -52 31 -84t80 -32z" />
    <glyph glyph-name="A" unicode="A" horiz-adv-x="670" 
d="M35 0l438 700h50l142 -700h-51l-42 205h-350l-128 -205h-59zM253 255h310l-76 375z" />
    <glyph glyph-name="B" unicode="B" horiz-adv-x="660" 
d="M243 395h235q63 0 104.5 39.5t41.5 106.5q0 51 -35.5 80t-93.5 29h-197zM170 50h250q75 0 122.5 47t47.5 119q0 57 -41 93t-109 36h-207zM110 0l148 700h248q74 0 121 -44t47 -112q0 -88 -62 -142q-28 -25 -62 -35q25 -13 45 -35q45 -47 45 -114q0 -92 -65.5 -155
t-161.5 -63h-303z" />
    <glyph glyph-name="C" unicode="C" horiz-adv-x="750" 
d="M701 145l28 -35q-36 -36 -77 -60q-95 -60 -203 -60q-138 0 -228 92t-90 227q0 165 121 283t275 118q114 0 207 -77q41 -36 65 -77l-42 -27q-22 37 -54 65q-78 66 -184 66q-133 0 -235.5 -101t-102.5 -247q0 -117 77 -194.5t199 -77.5q95 0 178 52q36 22 66 53z" />
    <glyph glyph-name="D" unicode="D" horiz-adv-x="740" 
d="M170 50h199q140 0 240.5 95.5t100.5 237.5q0 115 -79.5 191t-190.5 76h-142zM110 0l148 700h182q134 0 226.5 -88.5t92.5 -224.5q0 -161 -117.5 -274t-278.5 -113h-253z" />
    <glyph glyph-name="E" unicode="E" horiz-adv-x="630" 
d="M110 0l148 700h470l-10 -50h-420l-56 -260h340l-10 -50h-340l-62 -290h430l-10 -50h-480z" />
    <glyph glyph-name="F" unicode="F" horiz-adv-x="610" 
d="M110 0l148 700h465l-10 -50h-415l-58 -270h335l-10 -50h-335l-70 -330h-50z" />
    <glyph glyph-name="G" unicode="G" horiz-adv-x="790" 
d="M688 132l36 168h-180l11 50h230l-52 -246q-33 -30 -79 -57q-100 -57 -205 -57q-138 0 -228 92t-90 227q0 165 121 283t275 118q114 0 207 -77q41 -36 65 -77l-42 -27q-22 37 -54 65q-78 66 -184 66q-133 0 -235.5 -101t-102.5 -247q0 -117 77 -194.5t199 -77.5
q85 0 167 46q34 19 64 46z" />
    <glyph glyph-name="H" unicode="H" horiz-adv-x="745" 
d="M110 0l148 700h50l-68 -320h425l68 320h50l-148 -700h-50l70 330h-425l-70 -330h-50z" />
    <glyph glyph-name="I" unicode="I" horiz-adv-x="270" 
d="M110 0l148 700h50l-148 -700h-50z" />
    <glyph glyph-name="J" unicode="J" horiz-adv-x="485" 
d="M23 81l40 33q12 -21 31 -37q45 -37 106 -37q64 0 110.5 40t60.5 108l108 512h50l-109 -517q-18 -86 -82 -139.5t-147 -53.5q-75 0 -128 45q-22 18 -40 46z" />
    <glyph glyph-name="K" unicode="K" horiz-adv-x="645" 
d="M110 0l148 700h50l-91 -430l481 430h67l-327 -292l202 -408h-55l-185 374l-198 -177l-42 -197h-50z" />
    <glyph glyph-name="L" unicode="L" horiz-adv-x="545" 
d="M110 0l148 700h50l-138 -650h375l-10 -50h-425z" />
    <glyph glyph-name="M" unicode="M" horiz-adv-x="920" 
d="M110 0l148 700h35l222 -415l398 415h45l-148 -700h-50l128 605l-385 -400l-215 400l-128 -605h-50z" />
    <glyph glyph-name="N" unicode="N" horiz-adv-x="775" 
d="M110 0l148 700h40l336 -611l129 611h50l-148 -700h-40l-336 611l-129 -611h-50z" />
    <glyph glyph-name="O" unicode="O" horiz-adv-x="830" 
d="M528 710q137 0 227 -93t90 -227q0 -109 -57 -202t-148 -145.5t-192 -52.5q-137 0 -227 93t-90 227q0 109 57 202t148 145.5t192 52.5zM520 660q-134 0 -236.5 -100.5t-102.5 -246.5q0 -116 77 -194.5t198 -78.5q133 0 236 101.5t103 245.5q0 116 -77 194.5t-198 78.5z
" />
    <glyph glyph-name="P" unicode="P" horiz-adv-x="645" 
d="M110 0l148 700h237q80 0 138 -55.5t58 -137.5q0 -98 -73 -167.5t-172 -69.5h-229l-57 -270h-50zM228 320h226q79 0 133 52.5t54 132.5q0 66 -46.5 105.5t-109.5 39.5h-187z" />
    <glyph glyph-name="Q" unicode="Q" horiz-adv-x="830" 
d="M809 -87l-10 -51q-2 -1 -7 -1q-3 -1 -15 -1q-54 0 -98 15t-70.5 39t-41.5 45.5t-24 43.5q-10 -3 -28 -7q-34 -6 -67 -6q-137 0 -227 93t-90 227q0 109 57 202t148 145.5t192 52.5q137 0 227 -93t90 -227q0 -123 -71.5 -223.5t-180.5 -146.5q18 -43 62.5 -76.5
t123.5 -33.5q19 0 22 1zM181 313q0 -116 77 -194.5t198 -78.5q133 0 236 101.5t103 245.5q0 116 -77 194.5t-198 78.5q-134 0 -236.5 -100.5t-102.5 -246.5z" />
    <glyph glyph-name="R" unicode="R" horiz-adv-x="660" 
d="M110 0l148 700h252q80 0 135 -51.5t55 -130.5q0 -124 -100 -187q-44 -29 -99 -39l104 -292h-52l-104 290h-228l-61 -290h-50zM232 340h242q75 0 125.5 49.5t50.5 125.5q0 59 -42 97t-103 38h-207z" />
    <glyph glyph-name="S" unicode="S" horiz-adv-x="560" 
d="M75 120l41 32q16 -31 44 -56q64 -56 164 -56q77 0 126.5 42.5t49.5 109.5q0 41 -33 72t-80 51.5t-94.5 43t-80.5 60t-33 87.5q0 84 65.5 144t164.5 60q92 0 162 -54q29 -23 48 -53l-43 -32q-13 24 -39 44q-55 45 -137 45q-74 0 -122 -41t-48 -102q0 -41 33 -72t80 -52
t94 -43.5t80 -60t33 -88.5q0 -90 -66.5 -150.5t-168.5 -60.5q-115 0 -188 65q-33 29 -52 65z" />
    <glyph glyph-name="T" unicode="T" horiz-adv-x="545" 
d="M240 0l138 650h-230l10 50h510l-10 -50h-230l-138 -650h-50z" />
    <glyph glyph-name="U" unicode="U" horiz-adv-x="750" 
d="M158 299l85 401h50l-86 -406q-22 -107 35 -180.5t163 -73.5q88 0 155.5 57t86.5 150l96 453h50l-97 -457q-24 -111 -108.5 -182t-190.5 -71q-127 0 -196.5 92.5t-42.5 216.5z" />
    <glyph glyph-name="V" unicode="V" horiz-adv-x="650" 
d="M285 0l-127 700h52l112 -625l378 625h58l-423 -700h-50z" />
    <glyph glyph-name="W" unicode="W" horiz-adv-x="1000" 
d="M235 0l-77 700h52l64 -620l331 620h50l69 -620l326 620h58l-373 -700h-50l-69 620l-331 -620h-50z" />
    <glyph glyph-name="X" unicode="X" horiz-adv-x="610" 
d="M15 0l337 365l-169 335h55l148 -295l272 295h65l-311 -335l183 -365h-55l-161 325l-299 -325h-65z" />
    <glyph glyph-name="Y" unicode="Y" horiz-adv-x="600" 
d="M260 0l52 245l-164 455h55l140 -400l310 400h65l-356 -455l-52 -245h-50z" />
    <glyph glyph-name="Z" unicode="Z" horiz-adv-x="575" 
d="M35 0l10 50l548 600h-405l10 50h470l-10 -50l-548 -600h430l-10 -50h-495z" />
    <glyph glyph-name="bracketleft" unicode="[" horiz-adv-x="335" 
d="M55 -210l195 920h195l-10 -50h-145l-175 -820h145l-10 -50h-195z" />
    <glyph glyph-name="backslash" unicode="\" horiz-adv-x="355" 
d="M285 -210l-110 920h45l110 -920h-45z" />
    <glyph glyph-name="bracketright" unicode="]" horiz-adv-x="335" 
d="M-4 -210l9 50h145l175 820h-145l10 50h195l-195 -920h-194z" />
    <glyph glyph-name="asciicircum" unicode="^" horiz-adv-x="390" 
d="M130 425l125 275h40l125 -275h-45l-100 220l-100 -220h-45z" />
    <glyph glyph-name="underscore" unicode="_" horiz-adv-x="320" 
d="M-24 -160l10 45h339l-10 -45h-339z" />
    <glyph glyph-name="grave" unicode="`" horiz-adv-x="190" 
d="M240 565l-63 130h55l48 -130h-40z" />
    <glyph glyph-name="a" unicode="a" horiz-adv-x="505" 
d="M386 0l15 72q-22 -26 -44 -41q-57 -41 -124 -41q-70 0 -112.5 37.5t-42.5 90.5q0 55 39 95t119 54l213 33q8 65 -24.5 105t-97.5 40q-52 0 -97 -28q-23 -13 -38 -28l-24 33q17 17 46 34q58 34 118 34q87 0 131.5 -59t26.5 -150l-59 -281h-45zM428 196l12 59l-192 -31
q-124 -20 -124 -101q0 -37 30.5 -62.5t85.5 -25.5q66 0 120.5 46t67.5 115z" />
    <glyph glyph-name="b" unicode="b" horiz-adv-x="595" 
d="M90 0l148 700h45l-63 -296q20 23 48 43q63 43 132 43q86 0 143.5 -60t57.5 -154q0 -122 -80 -204t-179 -82q-90 0 -146 62q-25 26 -37 63l-24 -115h-45zM347 35q81 0 145 69t64 167q0 74 -46 124t-116 50q-81 0 -145 -69t-64 -167q0 -74 46 -124t116 -50z" />
    <glyph glyph-name="c" unicode="c" horiz-adv-x="515" 
d="M460 104l28 -33q-24 -24 -51 -41q-64 -40 -133 -40q-89 0 -148.5 63t-59.5 156q0 115 82.5 198t184.5 83q81 0 139 -54q27 -25 43 -53l-41 -25q-12 21 -34 43q-44 44 -111 44q-82 0 -150 -67.5t-68 -162.5q0 -78 48.5 -129t120.5 -51q55 0 109 34q23 15 41 35z" />
    <glyph glyph-name="d" unicode="d" horiz-adv-x="595" 
d="M459 0l16 76q-18 -24 -47 -43q-58 -43 -132 -43q-86 0 -143.5 60t-57.5 154q0 122 80 204t179 82q88 0 145 -63q23 -26 37 -62l71 335h45l-148 -700h-45zM302 35q81 0 145 69t64 167q0 74 -46 124t-116 50q-81 0 -145 -69t-64 -167q0 -74 46 -124t116 -50z" />
    <glyph glyph-name="e" unicode="e" horiz-adv-x="550" 
d="M461 104l27 -33q-24 -24 -51 -41q-64 -40 -133 -40q-89 0 -148.5 63.5t-59.5 156.5q0 118 80.5 199t180.5 81q85 0 140 -57.5t55 -150.5q0 -10 -3 -43l-3 -19h-406v-6q0 -76 48 -127.5t123 -51.5q55 0 109 34q23 15 41 35zM147 265h361v12q0 75 -41.5 121.5t-112.5 46.5
q-68 0 -130.5 -52t-76.5 -128z" />
    <glyph glyph-name="f" unicode="f" horiz-adv-x="305" 
d="M110 0l92 435h-80l10 45h80l24 113q25 117 127 117q31 0 57 -12q8 -3 22 -11l-10 -43q-7 4 -21 10q-29 11 -49 11q-66 0 -82 -76l-23 -109h120l-10 -45h-120l-92 -435h-45z" />
    <glyph glyph-name="g" unicode="g" 
d="M51 -90l41 26q12 -27 32 -51q43 -51 120 -51q71 0 130 50t75 125l18 89q-18 -22 -47 -44q-59 -44 -130 -44q-84 0 -138.5 58.5t-54.5 146.5q0 118 76 196.5t174 78.5q88 0 142 -62q24 -28 35 -61l25 113h45l-102 -479q-18 -89 -91.5 -150t-160.5 -61t-147 60
q-25 26 -42 60zM344 445q-79 0 -141 -63.5t-62 -159.5q0 -72 45 -119.5t113 -47.5q79 0 141 63.5t62 159.5q0 72 -45 119.5t-113 47.5z" />
    <glyph glyph-name="h" unicode="h" horiz-adv-x="575" 
d="M90 0l148 700h45l-61 -288q19 22 43 39q57 39 122 39q82 0 133 -64.5t31 -160.5l-56 -265h-45l58 269q16 73 -22.5 124.5t-111.5 51.5q-59 0 -111 -45t-68 -120l-60 -280h-45z" />
    <glyph glyph-name="i" unicode="i" horiz-adv-x="225" 
d="M252 685q14 0 23 -9t9 -22q0 -17 -11.5 -28t-27.5 -11q-14 0 -23 9t-9 22q0 17 11.5 28t27.5 11zM90 0l102 480h45l-102 -480h-45z" />
    <glyph glyph-name="j" unicode="j" horiz-adv-x="225" 
d="M-86 -187l10 44q6 -6 18 -11q17 -11 47 -11t52 21.5t30 59.5l121 564h45l-122 -569q-12 -57 -47.5 -89t-83.5 -32q-32 0 -51 11q-12 5 -19 12zM213 646q0 17 11.5 28t27.5 11q14 0 23 -9t9 -22q0 -17 -11.5 -28t-27.5 -11q-14 0 -23 9t-9 22z" />
    <glyph glyph-name="k" unicode="k" horiz-adv-x="495" 
d="M90 0l148 700h45l-107 -505l326 285h62l-223 -196l144 -284h-51l-129 253l-143 -125l-27 -128h-45z" />
    <glyph glyph-name="l" unicode="l" horiz-adv-x="225" 
d="M90 0l148 700h45l-148 -700h-45z" />
    <glyph glyph-name="m" unicode="m" horiz-adv-x="860" 
d="M85 0l102 480h45l-14 -65q17 23 37 37q48 38 107 38q71 0 118 -51q18 -20 29 -51q15 27 43 51q59 51 132 51q88 0 130 -63t22 -161l-56 -266h-45l57 271q15 71 -15 122.5t-97 51.5q-58 0 -104 -42t-61 -117l-60 -286h-45l57 271q15 77 -17 125.5t-94 48.5
q-58 0 -103.5 -41.5t-62.5 -117.5l-60 -286h-45z" />
    <glyph glyph-name="n" unicode="n" horiz-adv-x="570" 
d="M85 0l102 480h45l-14 -68q19 22 43 39q57 39 121 39q82 0 133 -64.5t31 -160.5l-56 -265h-45l58 269q16 73 -22.5 124.5t-111.5 51.5q-59 0 -111 -45t-68 -120l-60 -280h-45z" />
    <glyph glyph-name="o" unicode="o" 
d="M367 490q91 0 152 -64.5t61 -156.5q0 -115 -83.5 -197t-187.5 -82q-91 0 -152 64.5t-61 156.5q0 115 83.5 197t187.5 82zM315 35q84 0 152 67.5t68 162.5q0 76 -50 128t-124 52q-84 0 -152 -67.5t-68 -162.5q0 -76 50 -128t124 -52z" />
    <glyph glyph-name="p" unicode="p" horiz-adv-x="590" 
d="M40 -210l147 690h45l-17 -76q20 23 48 43q63 43 132 43q86 0 143.5 -60t57.5 -154q0 -122 -80 -204t-179 -82q-90 0 -146 62q-25 26 -37 63l-69 -325h-45zM342 35q81 0 145 69t64 167q0 74 -46 124t-116 50q-81 0 -145 -69t-64 -167q0 -74 46 -124t116 -50z" />
    <glyph glyph-name="q" unicode="q" horiz-adv-x="590" 
d="M414 -210l61 286q-18 -24 -47 -43q-58 -43 -132 -43q-86 0 -143.5 60t-57.5 154q0 122 80 204t179 82q88 0 145 -63q23 -26 37 -62l25 115h45l-147 -690h-45zM302 35q81 0 145 69t64 167q0 74 -46 124t-116 50q-81 0 -145 -69t-64 -167q0 -74 46 -124t116 -50z" />
    <glyph glyph-name="r" unicode="r" horiz-adv-x="340" 
d="M85 0l102 480h45l-14 -68q19 22 43 39q57 39 122 39h41l-10 -45h-45q-62 0 -113 -44.5t-66 -120.5l-60 -280h-45z" />
    <glyph glyph-name="s" unicode="s" horiz-adv-x="430" 
d="M59 89l42 31q14 -26 32 -43q46 -42 105 -42q54 0 90 29.5t36 72.5q0 32 -35.5 56.5t-78.5 39.5t-78.5 45.5t-35.5 72.5q0 53 48 96t115 43q66 0 117 -43q23 -20 36 -43l-42 -31q-9 19 -26 36q-36 36 -92 36q-47 0 -78.5 -26.5t-31.5 -60.5q0 -25 23.5 -44.5t57 -34
t67 -30.5t57 -43t23.5 -62q0 -64 -50.5 -109t-124.5 -45q-81 0 -136 49q-26 23 -40 50z" />
    <glyph glyph-name="t" unicode="t" horiz-adv-x="350" 
d="M146 125l66 310h-95l10 45h65q15 0 27 11t16 29l26 120h40l-34 -160h110l-10 -45h-110l-67 -315q-7 -37 10 -61t62 -24q22 0 37 4q6 1 16 5l-10 -45q-10 -4 -16 -5q-15 -4 -37 -4q-66 0 -91.5 39.5t-14.5 95.5z" />
    <glyph glyph-name="u" unicode="u" horiz-adv-x="575" 
d="M128 215l56 265h45l-58 -269q-16 -73 22.5 -124.5t111.5 -51.5q59 0 111 45t68 120l60 280h45l-102 -480h-45l14 68q-19 -23 -43 -39q-55 -39 -121 -39q-81 0 -133 64.5t-31 160.5z" />
    <glyph glyph-name="v" unicode="v" horiz-adv-x="480" 
d="M205 0l-93 480h48l80 -420l260 420h52l-297 -480h-50z" />
    <glyph glyph-name="w" unicode="w" horiz-adv-x="710" 
d="M170 0l-58 480h48l48 -405l217 405h40l42 -410l223 410h52l-262 -480h-45l-44 405l-216 -405h-45z" />
    <glyph glyph-name="x" unicode="x" horiz-adv-x="440" 
d="M10 0l233 250l-116 230h51l98 -195l182 195h59l-214 -230l127 -250h-51l-110 215l-200 -215h-59z" />
    <glyph glyph-name="y" unicode="y" horiz-adv-x="480" 
d="M-8 -198l11 45l14 -6q18 -6 33 -6q29 0 51.5 17.5t46.5 57.5l56 92l-92 478h48l80 -420l260 420h52l-352 -570q-40 -65 -74 -92.5t-79 -27.5q-18 0 -40 6z" />
    <glyph glyph-name="z" unicode="z" horiz-adv-x="435" 
d="M25 0l9 45l388 390h-295l10 45h355l-10 -45l-388 -390h315l-9 -45h-375z" />
    <glyph glyph-name="braceleft" unicode="{" horiz-adv-x="355" 
d="M124 -66l46 217q17 72 -58 79l9 40h13q61 0 76 68l55 256q11 55 48 85.5t93 30.5h58l-9 -45h-52q-79 0 -94 -75l-55 -257q-11 -51 -48 -74q-18 -11 -36 -14q1 1 6.5 -2.5t14 -10.5t15.5 -19t10 -29t-2 -40l-46 -215q-10 -45 13.5 -69.5t72.5 -24.5h24l-9 -45h-20
q-70 0 -104.5 38.5t-20.5 105.5z" />
    <glyph glyph-name="bar" unicode="|" horiz-adv-x="285" 
d="M190 -210v920h45v-920h-45z" />
    <glyph glyph-name="braceright" unicode="}" horiz-adv-x="355" 
d="M-4 -210l9 45h52q79 0 94 75l55 257q10 50 48 74q18 11 36 14q-1 -1 -6.5 2.5t-14 10.5t-15.5 19t-10 29t2 40l46 215q10 45 -13.5 69.5t-72.5 24.5h-24l9 45h20q70 0 104.5 -38.5t20.5 -105.5l-46 -217q-17 -72 58 -79l-9 -40h-13q-61 0 -76 -68l-55 -256
q-11 -55 -48 -85.5t-93 -30.5h-58z" />
    <glyph glyph-name="asciitilde" unicode="~" horiz-adv-x="520" 
d="M145 245l-35 25q14 22 31 40q42 40 94 40q41 0 72.5 -17.5t59 -35t58.5 -17.5q39 0 69 30q12 14 21 30l35 -25q-14 -23 -31 -40q-42 -40 -94 -40q-41 0 -72.5 17.5t-59 35t-58.5 17.5q-39 0 -69 -30q-12 -13 -21 -30z" />
    <glyph glyph-name="nbspace" unicode="&#xa0;" horiz-adv-x="200" 
 />
    <glyph glyph-name="exclamdown" unicode="&#xa1;" horiz-adv-x="280" 
d="M200 446q0 17 11.5 28t27.5 11q14 0 23 -9t9 -22q0 -17 -11.5 -28t-27.5 -11q-14 0 -23 9t-9 22zM65 -210l123 530h40l-103 -530h-60z" />
    <glyph glyph-name="cent" unicode="&#xa2;" horiz-adv-x="515" 
d="M235 -110l23 104q-73 14 -119.5 73.5t-46.5 141.5q0 115 84 197.5t186 82.5l22 101h45l-23 -106q68 -17 111 -67q18 -21 31 -48l-41 -26q-13 29 -33 51q-49 51 -119 51q-82 0 -149.5 -67.5t-67.5 -163.5q0 -77 48 -128t120 -51q55 0 109 34q23 15 41 35l29 -33
q-23 -23 -50 -40q-64 -40 -133 -41l-22 -100h-45z" />
    <glyph glyph-name="sterling" unicode="&#xa3;" horiz-adv-x="545" 
d="M50 0l10 50q32 0 61 23.5t35 51.5l37 175h-70l11 50h70l36 170q18 87 78 138.5t139 51.5q84 0 138 -52q24 -21 40 -52l-41 -31q-14 24 -33 42q-47 43 -107 43q-59 0 -105 -39.5t-59 -103.5l-36 -167h205l-11 -50h-205l-37 -175q-9 -37 -35 -58q-13 -11 -26 -17h370
l-10 -50h-455z" />
    <glyph glyph-name="currency" unicode="&#xa4;" horiz-adv-x="550" 
d="M230 335q0 -49 35 -84.5t85 -35.5t85 35.5t35 84.5t-35 84.5t-85 35.5t-85 -35.5t-35 -84.5zM155 175l62 62q-32 44 -32 98t32 98l-62 62l30 30l61 -62q47 37 104 37t104 -37l61 62l30 -30l-62 -62q32 -44 32 -98t-32 -98l62 -62l-30 -30l-61 62q-47 -37 -104 -37
t-104 37l-61 -62z" />
    <glyph glyph-name="yen" unicode="&#xa5;" horiz-adv-x="600" 
d="M121 125l10 45h165l16 75l-7 15h-155l9 45h130l-141 395h55l141 -395l309 395h65l-309 -395h130l-9 -45h-155l-13 -15l-16 -75h165l-10 -45h-165l-26 -125h-50l26 125h-165z" />
    <glyph glyph-name="brokenbar" unicode="&#xa6;" horiz-adv-x="285" 
d="M190 330v380h45v-380h-45zM190 -210v380h45v-380h-45z" />
    <glyph glyph-name="section" unicode="&#xa7;" horiz-adv-x="520" 
d="M84 -6l41 31q15 -28 32 -45q45 -45 104 -45q55 0 94 32t39 78q0 30 -27 54.5t-65.5 43.5t-77 40t-65.5 53.5t-27 73.5q0 78 70 124q32 20 71 30q-15 8 -28 23q-27 29 -27 71q0 63 51 107.5t125 44.5q73 0 125 -44q24 -21 38 -43l-43 -31q-10 19 -29 36q-39 37 -96 37
q-54 0 -90 -29.5t-36 -73.5q0 -32 27 -57t65.5 -44t77 -39t65.5 -52.5t27 -74.5q0 -35 -14.5 -63.5t-35.5 -45t-41.5 -27t-35.5 -15t-14 -3.5q17 -12 27 -23q28 -28 28 -70q0 -65 -53.5 -111.5t-129.5 -46.5q-81 0 -133 52q-23 22 -39 52zM352 170q34 6 63 21q63 35 63 97
q0 23 -12 43t-34.5 35.5t-42 26.5t-47 24t-37.5 18q-36 -6 -63 -21q-63 -33 -63 -97q0 -23 12 -43t34.5 -35.5t42 -26.5t47 -24t37.5 -18z" />
    <glyph glyph-name="dieresis" unicode="&#xa8;" horiz-adv-x="305" 
d="M160 631q0 17 11.5 28t27.5 11q14 0 23 -9t9 -22q0 -17 -11.5 -28t-27.5 -11q-14 0 -23 9t-9 22zM335 631q0 17 11.5 28t27.5 11q14 0 23 -9t9 -22q0 -17 -11.5 -28t-27.5 -11q-14 0 -23 9t-9 22z" />
    <glyph glyph-name="copyright" unicode="&#xa9;" horiz-adv-x="870" 
d="M146 350q0 150 105 255t255 105t255 -105t105 -255t-105 -255t-255 -105t-255 105t-105 255zM506 35q135 0 225 90t90 225t-90 225t-225 90t-225 -90t-90 -225t90 -225t225 -90zM626 265l30 -30q-18 -23 -37 -38q-47 -37 -108 -37q-79 0 -132 54t-53 136t53 136t132 54
q60 0 108 -38q17 -13 37 -37l-30 -30q-11 15 -29 30q-38 30 -86 30q-60 0 -100 -41t-40 -104t40 -104t100 -41q48 0 86 30q18 15 29 30z" />
    <glyph glyph-name="ordfeminine" unicode="&#xaa;" horiz-adv-x="305" 
d="M304 415l8 40q-12 -15 -26 -25q-33 -25 -75 -25q-41 0 -64.5 19.5t-23.5 52.5q0 40 30.5 67t78.5 31l110 20l2 9q4 25 -12 45.5t-54 20.5q-28 0 -54 -16q-14 -10 -20 -16l-24 28q11 12 28 22q38 22 74 22q53 0 81.5 -34t19.5 -76l-39 -185h-40zM329 535l4 20l-122 -22
q-48 -11 -48 -49q0 -16 15.5 -27.5t43.5 -11.5q37 0 68 26t39 64z" />
    <glyph glyph-name="guillemotleft" unicode="&#xab;" horiz-adv-x="440" 
d="M182 80l-81 160l149 160h60l-154 -165l78 -155h-52zM352 80l-81 160l149 160h60l-154 -165l78 -155h-52z" />
    <glyph glyph-name="logicalnot" unicode="&#xac;" horiz-adv-x="455" 
d="M115 335v45h365v-185h-50v140h-315z" />
    <glyph glyph-name="uni00AD" unicode="&#xad;" horiz-adv-x="385" 
d="M108 275l10 45h285l-10 -45h-285z" />
    <glyph glyph-name="registered" unicode="&#xae;" horiz-adv-x="870" 
d="M146 350q0 150 105 255t255 105t255 -105t105 -255t-105 -255t-255 -105t-255 105t-105 255zM506 35q135 0 225 90t90 225t-90 225t-225 90t-225 -90t-90 -225t90 -225t225 -90zM386 165v370h130q55 0 90 -32t35 -78q0 -45 -35 -78q-20 -16 -35 -22l85 -160h-50l-80 150
h-95v-150h-45zM431 360h85q80 0 80 65t-80 65h-85v-130z" />
    <glyph glyph-name="overscore" unicode="&#xaf;" horiz-adv-x="330" 
d="M167 645l8 40h270l-8 -40h-270z" />
    <glyph glyph-name="degree" unicode="&#xb0;" horiz-adv-x="350" 
d="M145 580q0 55 38.5 92.5t91.5 37.5t91.5 -37.5t38.5 -92.5t-38.5 -92.5t-91.5 -37.5t-91.5 37.5t-38.5 92.5zM190 580q0 -37 25 -61t60 -24t60 24t25 61t-25 61t-60 24t-60 -24t-25 -61z" />
    <glyph glyph-name="plusminus" unicode="&#xb1;" horiz-adv-x="505" 
d="M300 160v195h-185v45h185v195h45v-195h185v-45h-185v-195h-45zM115 45v45h415v-45h-415z" />
    <glyph glyph-name="uni00B2" unicode="&#xb2;" horiz-adv-x="285" 
d="M170 490h189l-9 -40h-230q4 44 31 77.5t61.5 53.5t68.5 37t57.5 39t23.5 50q0 24 -18 40.5t-48 16.5q-31 0 -61 -26q-11 -10 -21 -26l-32 19q13 21 29 37q37 37 88 37q49 0 76 -27t27 -65q0 -37 -21 -65t-52 -46t-63 -33t-59.5 -35t-36.5 -44z" />
    <glyph glyph-name="uni00B3" unicode="&#xb3;" horiz-adv-x="295" 
d="M127 518l36 27q7 -15 22 -30q32 -30 76 -30q35 0 57 20t22 51q0 25 -18.5 42t-54.5 17h-40l9 40h51q71 0 71 58q0 22 -18 36.5t-50 14.5q-28 0 -58 -18q-12 -8 -21 -18l-22 33q11 11 28 22q38 22 76 22q47 0 76 -26t29 -63q0 -26 -16.5 -53t-44.5 -35q11 -6 21 -15
q21 -21 21 -53q0 -48 -36.5 -81.5t-89.5 -33.5q-59 0 -97 36q-19 18 -29 37z" />
    <glyph glyph-name="acute" unicode="&#xb4;" horiz-adv-x="190" 
d="M150 565l102 130h55l-117 -130h-40z" />
    <glyph glyph-name="uni00B5" unicode="&#xb5;" 
d="M40 -210l147 690h45l-58 -269q-16 -71 20.5 -123.5t109.5 -52.5q61 0 108.5 44t63.5 117l61 284h45l-82 -384q-5 -24 8 -40t40 -16q6 0 16 2l6 2l-9 -46q-1 -1 -2 -1t-1.5 -0.5t-1.5 -0.5q-3 -1 -15 -1q-37 0 -62 22t-28 53q-17 -23 -38 -40q-50 -40 -113 -40
q-74 0 -120 44q-20 19 -34 45l-61 -289h-45z" />
    <glyph glyph-name="paragraph" unicode="&#xb6;" horiz-adv-x="525" 
d="M290 -100v480q-64 0 -112 48t-48 112t48 112t112 48h205v-800h-45v754h-115v-754h-45z" />
    <glyph glyph-name="middot" unicode="&#xb7;" horiz-adv-x="200" 
d="M157 285q14 0 23 -9t9 -22q0 -17 -11.5 -28t-27.5 -11q-14 0 -23 9t-9 22q0 17 11.5 28t27.5 11z" />
    <glyph glyph-name="cedilla" unicode="&#xb8;" horiz-adv-x="230" 
d="M-6 -164l21 27q6 -8 18 -17q24 -16 49 -16q24 0 39.5 13.5t15.5 33.5q0 16 -11 26.5t-27 10.5q-15 0 -24 -4l-8 -4l-19 25l63 89h35l-55 -78q2 0 4 1q6 2 12 2q30 0 47.5 -17.5t17.5 -46.5q0 -33 -26 -57t-66 -24q-32 0 -62 18q-14 8 -24 18z" />
    <glyph glyph-name="uni00B9" unicode="&#xb9;" horiz-adv-x="220" 
d="M205 450l62 290q-8 -8 -20 -15q-24 -15 -57 -15l8 35q33 0 62 27q13 12 25 28h35l-75 -350h-40z" />
    <glyph glyph-name="ordmasculine" unicode="&#xba;" horiz-adv-x="360" 
d="M294 710q60 0 98 -38t38 -96q0 -75 -50 -125.5t-116 -50.5q-60 0 -98 38t-38 96q0 75 50 125.5t116 50.5zM290 670q-50 0 -86 -37t-36 -97q0 -43 27 -69.5t73 -26.5q50 0 86 37t36 97q0 43 -27 69.5t-73 26.5z" />
    <glyph glyph-name="guillemotright" unicode="&#xbb;" horiz-adv-x="440" 
d="M242 80l154 165l-78 155h52l81 -160l-149 -160h-60zM72 80l154 165l-78 155h52l81 -160l-149 -160h-60z" />
    <glyph glyph-name="onequarter" unicode="&#xbc;" horiz-adv-x="650" 
d="M184 350l62 290q-8 -8 -20 -15q-24 -15 -57 -15l8 35q33 0 62 27q13 12 25 28h35l-75 -350h-40zM70 0l583 700h50l-583 -700h-50zM382 85l9 40l208 225h50l-48 -225h45l-9 -40h-45l-18 -85h-40l18 85h-170zM441 125h120l36 169z" />
    <glyph glyph-name="onehalf" unicode="&#xbd;" horiz-adv-x="685" 
d="M184 350l62 290q-8 -8 -20 -15q-24 -15 -57 -15l8 35q33 0 62 27q13 12 25 28h35l-75 -350h-40zM70 0l583 700h50l-583 -700h-50zM468 40h189l-9 -40h-230q4 44 31 77.5t61.5 53.5t68.5 37t57.5 39t23.5 50q0 24 -18 40.5t-48 16.5q-31 0 -61 -26q-11 -10 -21 -26l-32 19
q13 21 29 37q37 37 88 37q49 0 76 -27t27 -65q0 -37 -21 -65t-52 -46t-63 -33t-59.5 -35t-36.5 -44z" />
    <glyph glyph-name="threequarters" unicode="&#xbe;" horiz-adv-x="715" 
d="M104 418l36 27q7 -15 22 -30q32 -30 76 -30q35 0 57 20t22 51q0 25 -18.5 42t-54.5 17h-40l9 40h51q71 0 71 58q0 22 -18 36.5t-50 14.5q-28 0 -58 -18q-12 -8 -21 -18l-22 33q12 11 28 22q38 22 76 22q47 0 76 -26t29 -63q0 -26 -16.5 -53t-44.5 -35q10 -6 21 -15
q21 -21 21 -53q0 -48 -36.5 -81.5t-89.5 -33.5q-59 0 -97 36q-19 18 -29 37zM124 0l583 700h50l-583 -700h-50zM431 85l9 40l208 225h50l-48 -225h45l-9 -40h-45l-18 -85h-40l18 85h-170zM490 125h120l36 169z" />
    <glyph glyph-name="questiondown" unicode="&#xbf;" horiz-adv-x="470" 
d="M405 -66l44 -16q-19 -38 -50 -69q-69 -69 -163 -69q-90 0 -145 49.5t-55 116.5q0 55 24 94.5t59.5 63.5t73 47t68.5 59t41 85l5 25h45q1 -46 -13.5 -82t-37.5 -60t-51.5 -44t-57.5 -38t-52.5 -37.5t-38.5 -47t-15 -62.5q0 -49 42 -84t114 -35q74 0 126 52q24 24 37 52z
M324 446q0 17 11.5 28t27.5 11q14 0 23 -9t9 -22q0 -17 -11.5 -28t-27.5 -11q-14 0 -23 9t-9 22z" />
    <glyph glyph-name="Agrave" unicode="&#xc0;" horiz-adv-x="670" 
d="M35 0l438 700h50l142 -700h-51l-42 205h-350l-128 -205h-59zM253 255h310l-76 375zM475 795l-63 130h55l48 -130h-40z" />
    <glyph glyph-name="Aacute" unicode="&#xc1;" horiz-adv-x="670" 
d="M35 0l438 700h50l142 -700h-51l-42 205h-350l-128 -205h-59zM253 255h310l-76 375zM495 795l102 130h55l-117 -130h-40z" />
    <glyph glyph-name="Acircumflex" unicode="&#xc2;" horiz-adv-x="670" 
d="M35 0l438 700h50l142 -700h-51l-42 205h-350l-128 -205h-59zM253 255h310l-76 375zM375 795l132 130h50l78 -130h-41l-64 100l-106 -100h-49z" />
    <glyph glyph-name="Atilde" unicode="&#xc3;" horiz-adv-x="670" 
d="M35 0l438 700h50l142 -700h-51l-42 205h-350l-128 -205h-59zM253 255h310l-76 375zM395 795h-40q24 115 99 115q27 0 46.5 -19t34.5 -37.5t33 -18.5q40 0 56 75h40q-24 -115 -99 -115q-18 0 -32 7.5t-23.5 18.5t-17.5 22.5t-18.5 19t-22.5 7.5q-17 0 -32.5 -18t-23.5 -57
z" />
    <glyph glyph-name="Adieresis" unicode="&#xc4;" horiz-adv-x="670" 
d="M35 0l438 700h50l142 -700h-51l-42 205h-350l-128 -205h-59zM253 255h310l-76 375zM396 856q0 17 11.5 28t27.5 11q14 0 23 -9t9 -22q0 -17 -11.5 -28t-27.5 -11q-14 0 -23 9t-9 22zM571 856q0 17 11.5 28t27.5 11q14 0 23 -9t9 -22q0 -17 -11.5 -28t-27.5 -11
q-14 0 -23 9t-9 22z" />
    <glyph glyph-name="Aring" unicode="&#xc5;" horiz-adv-x="670" 
d="M35 0l438 700h50l142 -700h-51l-42 205h-350l-128 -205h-59zM253 255h310l-76 375zM505 765q-37 0 -60.5 25.5t-23.5 59.5q0 45 30.5 75t75.5 30q37 0 60.5 -25.5t23.5 -59.5q0 -45 -30.5 -75t-75.5 -30zM460 853q0 -21 13.5 -34.5t38.5 -13.5q27 0 43.5 17.5t16.5 44.5
q0 21 -13.5 34.5t-38.5 13.5q-27 0 -43.5 -17.5t-16.5 -44.5z" />
    <glyph glyph-name="AE" unicode="&#xc6;" horiz-adv-x="935" 
d="M-30 0l538 700h525l-10 -50h-370l-56 -260h290l-10 -50h-290l-62 -290h380l-10 -50h-430l45 215h-315l-165 -215h-60zM231 265h290l82 385h-74z" />
    <glyph glyph-name="Ccedilla" unicode="&#xc7;" horiz-adv-x="750" 
d="M339 -164l21 27q6 -8 18 -17q24 -16 49 -16q24 0 39.5 13.5t15.5 33.5q0 16 -11 26.5t-27 10.5q-15 0 -24 -4l-8 -4l-19 25l42 59q-132 6 -218 97t-86 222q0 165 121 283t275 118q114 0 207 -77q41 -36 65 -77l-42 -27q-22 37 -54 65q-78 66 -184 66q-133 0 -235.5 -101
t-102.5 -247q0 -117 77 -194.5t199 -77.5q95 0 178 52q36 22 66 53l28 -35q-35 -33 -71 -56q-90 -58 -188 -63l-34 -48l2 1q2 0 5.5 0.5t8.5 0.5q30 0 47.5 -17.5t17.5 -46.5q0 -33 -26 -57t-66 -24q-32 0 -62 18q-13 8 -24 18z" />
    <glyph glyph-name="Egrave" unicode="&#xc8;" horiz-adv-x="630" 
d="M110 0l148 700h470l-10 -50h-420l-56 -260h340l-10 -50h-340l-62 -290h430l-10 -50h-480zM490 795l-63 130h55l48 -130h-40z" />
    <glyph glyph-name="Eacute" unicode="&#xc9;" horiz-adv-x="630" 
d="M110 0l148 700h470l-10 -50h-420l-56 -260h340l-10 -50h-340l-62 -290h430l-10 -50h-480zM481 795l102 130h55l-117 -130h-40z" />
    <glyph glyph-name="Ecircumflex" unicode="&#xca;" horiz-adv-x="630" 
d="M110 0l148 700h470l-10 -50h-420l-56 -260h340l-10 -50h-340l-62 -290h430l-10 -50h-480zM375 795l132 130h50l78 -130h-41l-64 100l-106 -100h-49z" />
    <glyph glyph-name="Edieresis" unicode="&#xcb;" horiz-adv-x="630" 
d="M110 0l148 700h470l-10 -50h-420l-56 -260h340l-10 -50h-340l-62 -290h430l-10 -50h-480zM395 856q0 17 11.5 28t27.5 11q14 0 23 -9t9 -22q0 -17 -11.5 -28t-27.5 -11q-14 0 -23 9t-9 22zM570 856q0 17 11.5 28t27.5 11q14 0 23 -9t9 -22q0 -17 -11.5 -28t-27.5 -11
q-14 0 -23 9t-9 22z" />
    <glyph glyph-name="Igrave" unicode="&#xcc;" horiz-adv-x="270" 
d="M110 0l148 700h50l-148 -700h-50zM265 795l-63 130h55l48 -130h-40z" />
    <glyph glyph-name="Iacute" unicode="&#xcd;" horiz-adv-x="270" 
d="M110 0l148 700h50l-148 -700h-50zM280 795l102 130h55l-117 -130h-40z" />
    <glyph glyph-name="Icircumflex" unicode="&#xce;" horiz-adv-x="270" 
d="M110 0l148 700h50l-148 -700h-50zM165 795l132 130h50l78 -130h-41l-64 100l-106 -100h-49z" />
    <glyph glyph-name="Idieresis" unicode="&#xcf;" horiz-adv-x="270" 
d="M110 0l148 700h50l-148 -700h-50zM185 856q0 17 11.5 28t27.5 11q14 0 23 -9t9 -22q0 -17 -11.5 -28t-27.5 -11q-14 0 -23 9t-9 22zM360 856q0 17 11.5 28t27.5 11q14 0 23 -9t9 -22q0 -17 -11.5 -28t-27.5 -11q-14 0 -23 9t-9 22z" />
    <glyph glyph-name="Eth" unicode="&#xd0;" horiz-adv-x="750" 
d="M120 0l69 325h-100l10 50h100l69 325h182q134 0 226.5 -88.5t92.5 -224.5q0 -161 -117.5 -274t-278.5 -113h-253zM180 50h199q140 0 240.5 95.5t100.5 237.5q0 115 -79.5 191t-190.5 76h-142l-59 -275h175l-10 -50h-175z" />
    <glyph glyph-name="Ntilde" unicode="&#xd1;" horiz-adv-x="775" 
d="M110 0l148 700h40l336 -611l129 611h50l-148 -700h-40l-336 611l-129 -611h-50zM447 795h-40q24 115 99 115q27 0 46.5 -19t34.5 -37.5t33 -18.5q40 0 56 75h40q-24 -115 -99 -115q-18 0 -32 7.5t-23.5 18.5t-17.5 22.5t-18.5 19t-22.5 7.5q-17 0 -32.5 -18t-23.5 -57z
" />
    <glyph glyph-name="Ograve" unicode="&#xd2;" horiz-adv-x="830" 
d="M528 710q137 0 227 -93t90 -227q0 -109 -57 -202t-148 -145.5t-192 -52.5q-137 0 -227 93t-90 227q0 109 57 202t148 145.5t192 52.5zM520 660q-134 0 -236.5 -100.5t-102.5 -246.5q0 -116 77 -194.5t198 -78.5q133 0 236 101.5t103 245.5q0 116 -77 194.5t-198 78.5z
M525 795l-63 130h55l48 -130h-40z" />
    <glyph glyph-name="Oacute" unicode="&#xd3;" horiz-adv-x="830" 
d="M528 710q137 0 227 -93t90 -227q0 -109 -57 -202t-148 -145.5t-192 -52.5q-137 0 -227 93t-90 227q0 109 57 202t148 145.5t192 52.5zM520 660q-134 0 -236.5 -100.5t-102.5 -246.5q0 -116 77 -194.5t198 -78.5q133 0 236 101.5t103 245.5q0 116 -77 194.5t-198 78.5z
M530 795l102 130h55l-117 -130h-40z" />
    <glyph glyph-name="Ocircumflex" unicode="&#xd4;" horiz-adv-x="830" 
d="M528 710q137 0 227 -93t90 -227q0 -109 -57 -202t-148 -145.5t-192 -52.5q-137 0 -227 93t-90 227q0 109 57 202t148 145.5t192 52.5zM520 660q-134 0 -236.5 -100.5t-102.5 -246.5q0 -116 77 -194.5t198 -78.5q133 0 236 101.5t103 245.5q0 116 -77 194.5t-198 78.5z
M420 795l132 130h50l78 -130h-41l-64 100l-106 -100h-49z" />
    <glyph glyph-name="Otilde" unicode="&#xd5;" horiz-adv-x="830" 
d="M528 710q137 0 227 -93t90 -227q0 -109 -57 -202t-148 -145.5t-192 -52.5q-137 0 -227 93t-90 227q0 109 57 202t148 145.5t192 52.5zM520 660q-134 0 -236.5 -100.5t-102.5 -246.5q0 -116 77 -194.5t198 -78.5q133 0 236 101.5t103 245.5q0 116 -77 194.5t-198 78.5z
M447 795h-40q24 115 99 115q27 0 46.5 -19t34.5 -37.5t33 -18.5q40 0 56 75h40q-24 -115 -99 -115q-18 0 -32 7.5t-23.5 18.5t-17.5 22.5t-18.5 19t-22.5 7.5q-17 0 -32.5 -18t-23.5 -57z" />
    <glyph glyph-name="Odieresis" unicode="&#xd6;" horiz-adv-x="830" 
d="M528 710q137 0 227 -93t90 -227q0 -109 -57 -202t-148 -145.5t-192 -52.5q-137 0 -227 93t-90 227q0 109 57 202t148 145.5t192 52.5zM520 660q-134 0 -236.5 -100.5t-102.5 -246.5q0 -116 77 -194.5t198 -78.5q133 0 236 101.5t103 245.5q0 116 -77 194.5t-198 78.5z
M440 856q0 17 11.5 28t27.5 11q14 0 23 -9t9 -22q0 -17 -11.5 -28t-27.5 -11q-14 0 -23 9t-9 22zM615 856q0 17 11.5 28t27.5 11q14 0 23 -9t9 -22q0 -17 -11.5 -28t-27.5 -11q-14 0 -23 9t-9 22z" />
    <glyph glyph-name="multiply" unicode="&#xd7;" horiz-adv-x="490" 
d="M146 170l140 140l-140 140l35 35l140 -140l140 140l35 -35l-140 -140l140 -140l-35 -35l-140 140l-140 -140z" />
    <glyph glyph-name="Oslash" unicode="&#xd8;" horiz-adv-x="830" 
d="M113 -15l-30 40l107 95q-59 85 -59 190q0 109 57 202t148 145.5t192 52.5q137 0 226 -91l109 96l30 -40l-107 -95q59 -80 59 -190q0 -109 -57 -202t-148 -145.5t-192 -52.5q-135 0 -226 91zM229 154l486 430q-79 76 -195 76q-134 0 -236.5 -100.5t-102.5 -246.5
q0 -91 48 -159zM747 546l-486 -430q78 -76 195 -76q133 0 236 101.5t103 245.5q0 89 -48 159z" />
    <glyph glyph-name="Ugrave" unicode="&#xd9;" horiz-adv-x="750" 
d="M158 299l85 401h50l-86 -406q-22 -107 35 -180.5t163 -73.5q88 0 155.5 57t86.5 150l96 453h50l-97 -457q-24 -111 -108.5 -182t-190.5 -71q-127 0 -196.5 92.5t-42.5 216.5zM511 795l-63 130h55l48 -130h-40z" />
    <glyph glyph-name="Uacute" unicode="&#xda;" horiz-adv-x="750" 
d="M158 299l85 401h50l-86 -406q-22 -107 35 -180.5t163 -73.5q88 0 155.5 57t86.5 150l96 453h50l-97 -457q-24 -111 -108.5 -182t-190.5 -71q-127 0 -196.5 92.5t-42.5 216.5zM490 795l102 130h55l-117 -130h-40z" />
    <glyph glyph-name="Ucircumflex" unicode="&#xdb;" horiz-adv-x="750" 
d="M158 299l85 401h50l-86 -406q-22 -107 35 -180.5t163 -73.5q88 0 155.5 57t86.5 150l96 453h50l-97 -457q-24 -111 -108.5 -182t-190.5 -71q-127 0 -196.5 92.5t-42.5 216.5zM395 795l132 130h50l78 -130h-41l-64 100l-106 -100h-49z" />
    <glyph glyph-name="Udieresis" unicode="&#xdc;" horiz-adv-x="750" 
d="M158 299l85 401h50l-86 -406q-22 -107 35 -180.5t163 -73.5q88 0 155.5 57t86.5 150l96 453h50l-97 -457q-24 -111 -108.5 -182t-190.5 -71q-127 0 -196.5 92.5t-42.5 216.5zM410 856q0 17 11.5 28t27.5 11q14 0 23 -9t9 -22q0 -17 -11.5 -28t-27.5 -11q-14 0 -23 9
t-9 22zM585 856q0 17 11.5 28t27.5 11q14 0 23 -9t9 -22q0 -17 -11.5 -28t-27.5 -11q-14 0 -23 9t-9 22z" />
    <glyph glyph-name="Yacute" unicode="&#xdd;" horiz-adv-x="600" 
d="M260 0l52 245l-164 455h55l140 -400l310 400h65l-356 -455l-52 -245h-50zM405 795l102 130h55l-117 -130h-40z" />
    <glyph glyph-name="Thorn" unicode="&#xde;" horiz-adv-x="705" 
d="M205 215h295q78 0 126 45t48 117q0 57 -43 92.5t-111 35.5h-253zM110 0l148 700h50l-31 -145h253q78 0 136 -48.5t58 -126.5q0 -91 -66 -153t-165 -62h-298l-35 -165h-50z" />
    <glyph glyph-name="germandbls" unicode="&#xdf;" horiz-adv-x="570" 
d="M85 0l116 550q14 69 71 114.5t131 45.5q78 0 127 -47t49 -115q0 -88 -67 -139q-28 -23 -66 -33q29 -10 57 -31q57 -47 57 -121q0 -95 -65.5 -159.5t-158.5 -64.5h-66l10 50h60q75 0 125 49.5t50 121.5q0 57 -42 95.5t-103 38.5h-25l10 45h25q66 0 109.5 43t43.5 100
q0 52 -37 87t-98 35q-57 0 -99.5 -34t-53.5 -86l-115 -545h-45z" />
    <glyph glyph-name="agrave" unicode="&#xe0;" horiz-adv-x="505" 
d="M386 0l15 72q-22 -26 -44 -41q-57 -41 -124 -41q-70 0 -112.5 37.5t-42.5 90.5q0 55 39 95t119 54l213 33q8 65 -24.5 105t-97.5 40q-52 0 -97 -28q-23 -13 -38 -28l-24 33q17 17 46 34q58 34 118 34q87 0 131.5 -59t26.5 -150l-59 -281h-45zM428 196l12 59l-192 -31
q-124 -20 -124 -101q0 -37 30.5 -62.5t85.5 -25.5q66 0 120.5 46t67.5 115zM352 565l-63 130h55l48 -130h-40z" />
    <glyph glyph-name="aacute" unicode="&#xe1;" horiz-adv-x="505" 
d="M386 0l15 72q-22 -26 -44 -41q-57 -41 -124 -41q-70 0 -112.5 37.5t-42.5 90.5q0 55 39 95t119 54l213 33q8 65 -24.5 105t-97.5 40q-52 0 -97 -28q-23 -13 -38 -28l-24 33q17 17 46 34q58 34 118 34q87 0 131.5 -59t26.5 -150l-59 -281h-45zM428 196l12 59l-192 -31
q-124 -20 -124 -101q0 -37 30.5 -62.5t85.5 -25.5q66 0 120.5 46t67.5 115zM352 565l102 130h55l-117 -130h-40z" />
    <glyph glyph-name="acircumflex" unicode="&#xe2;" horiz-adv-x="505" 
d="M386 0l15 72q-22 -26 -44 -41q-57 -41 -124 -41q-70 0 -112.5 37.5t-42.5 90.5q0 55 39 95t119 54l213 33q8 65 -24.5 105t-97.5 40q-52 0 -97 -28q-23 -13 -38 -28l-24 33q17 17 46 34q58 34 118 34q87 0 131.5 -59t26.5 -150l-59 -281h-45zM428 196l12 59l-192 -31
q-124 -20 -124 -101q0 -37 30.5 -62.5t85.5 -25.5q66 0 120.5 46t67.5 115zM242 565l132 130h50l78 -130h-41l-64 100l-106 -100h-49z" />
    <glyph glyph-name="atilde" unicode="&#xe3;" horiz-adv-x="505" 
d="M386 0l15 72q-22 -26 -44 -41q-57 -41 -124 -41q-70 0 -112.5 37.5t-42.5 90.5q0 55 39 95t119 54l213 33q8 65 -24.5 105t-97.5 40q-52 0 -97 -28q-23 -13 -38 -28l-24 33q17 17 46 34q58 34 118 34q87 0 131.5 -59t26.5 -150l-59 -281h-45zM428 196l12 59l-192 -31
q-124 -20 -124 -101q0 -37 30.5 -62.5t85.5 -25.5q66 0 120.5 46t67.5 115zM274 565h-40q24 115 99 115q27 0 46.5 -19t34.5 -37.5t33 -18.5q40 0 56 75h40q-24 -115 -99 -115q-18 0 -32 7.5t-23.5 18.5t-17.5 22.5t-18.5 19t-22.5 7.5q-17 0 -32.5 -18t-23.5 -57z" />
    <glyph glyph-name="adieresis" unicode="&#xe4;" horiz-adv-x="505" 
d="M386 0l15 72q-22 -26 -44 -41q-57 -41 -124 -41q-70 0 -112.5 37.5t-42.5 90.5q0 55 39 95t119 54l213 33q8 65 -24.5 105t-97.5 40q-52 0 -97 -28q-23 -13 -38 -28l-24 33q17 17 46 34q58 34 118 34q87 0 131.5 -59t26.5 -150l-59 -281h-45zM428 196l12 59l-192 -31
q-124 -20 -124 -101q0 -37 30.5 -62.5t85.5 -25.5q66 0 120.5 46t67.5 115zM262 626q0 17 11.5 28t27.5 11q14 0 23 -9t9 -22q0 -17 -11.5 -28t-27.5 -11q-14 0 -23 9t-9 22zM437 626q0 17 11.5 28t27.5 11q14 0 23 -9t9 -22q0 -17 -11.5 -28t-27.5 -11q-14 0 -23 9t-9 22z
" />
    <glyph glyph-name="aring" unicode="&#xe5;" horiz-adv-x="505" 
d="M386 0l15 72q-22 -26 -44 -41q-57 -41 -124 -41q-70 0 -112.5 37.5t-42.5 90.5q0 55 39 95t119 54l213 33q8 65 -24.5 105t-97.5 40q-52 0 -97 -28q-23 -13 -38 -28l-24 33q17 17 46 34q58 34 118 34q87 0 131.5 -59t26.5 -150l-59 -281h-45zM428 196l12 59l-192 -31
q-124 -20 -124 -101q0 -37 30.5 -62.5t85.5 -25.5q66 0 120.5 46t67.5 115zM357 540q-37 0 -60.5 25.5t-23.5 59.5q0 45 30.5 75t75.5 30q37 0 60.5 -25.5t23.5 -59.5q0 -45 -30.5 -75t-75.5 -30zM312 628q0 -21 13.5 -34.5t38.5 -13.5q27 0 43.5 17.5t16.5 44.5
q0 21 -13.5 34.5t-38.5 13.5q-27 0 -43.5 -17.5t-16.5 -44.5z" />
    <glyph glyph-name="ae" unicode="&#xe6;" horiz-adv-x="873" 
d="M240 270h205l4 16q14 69 -20 114t-100 45q-52 0 -97 -28q-23 -13 -38 -28l-24 33q17 17 46 34q58 34 118 34q62 0 103.5 -30.5t54.5 -82.5q38 53 91 83t107 30q82 0 133.5 -57.5t51.5 -150.5q0 -8 -3 -41l-2 -16h-387v-11q0 -76 45 -127.5t116 -51.5q59 0 105 35
q22 14 39 35l28 -34q-22 -24 -48 -41q-62 -40 -131 -40q-70 0 -119.5 39t-68.5 106q-10 -21 -25 -42t-41 -46.5t-64.5 -41t-83.5 -15.5q-72 0 -114.5 36.5t-42.5 92.5q0 64 47.5 107.5t114.5 43.5zM491 270h340v7q0 74 -40 121t-104 47q-61 0 -121.5 -51.5t-74.5 -123.5z
M427 192l7 33h-198q-49 0 -81.5 -28t-32.5 -72q0 -38 31.5 -64t85.5 -26q67 0 120.5 44.5t67.5 112.5z" />
    <glyph glyph-name="ccedilla" unicode="&#xe7;" horiz-adv-x="515" 
d="M178 -164l21 27q6 -8 18 -17q24 -16 49 -16q24 0 39.5 13.5t15.5 33.5q0 16 -11 26.5t-27 10.5q-15 0 -24 -4l-8 -4l-19 25l43 61q-78 10 -128.5 71.5t-50.5 145.5q0 115 82.5 198t184.5 83q81 0 139 -54q27 -25 43 -53l-41 -25q-12 21 -34 43q-44 44 -111 44
q-82 0 -150 -67.5t-68 -162.5q0 -78 48.5 -129t120.5 -51q55 0 109 34q23 15 41 35l28 -33q-24 -22 -49 -39q-63 -41 -130 -42l-34 -47l2 1q2 0 5.5 0.5t8.5 0.5q30 0 47.5 -17.5t17.5 -46.5q0 -33 -26 -57t-66 -24q-32 0 -62 18q-14 8 -24 18z" />
    <glyph glyph-name="egrave" unicode="&#xe8;" horiz-adv-x="550" 
d="M461 104l27 -33q-24 -24 -51 -41q-64 -40 -133 -40q-89 0 -148.5 63.5t-59.5 156.5q0 118 80.5 199t180.5 81q85 0 140 -57.5t55 -150.5q0 -10 -3 -43l-3 -19h-406v-6q0 -76 48 -127.5t123 -51.5q55 0 109 34q23 15 41 35zM147 265h361v12q0 75 -41.5 121.5t-112.5 46.5
q-68 0 -130.5 -52t-76.5 -128zM365 565l-63 130h55l48 -130h-40z" />
    <glyph glyph-name="eacute" unicode="&#xe9;" horiz-adv-x="550" 
d="M461 104l27 -33q-24 -24 -51 -41q-64 -40 -133 -40q-89 0 -148.5 63.5t-59.5 156.5q0 118 80.5 199t180.5 81q85 0 140 -57.5t55 -150.5q0 -10 -3 -43l-3 -19h-406v-6q0 -76 48 -127.5t123 -51.5q55 0 109 34q23 15 41 35zM147 265h361v12q0 75 -41.5 121.5t-112.5 46.5
q-68 0 -130.5 -52t-76.5 -128zM365 565l102 130h55l-117 -130h-40z" />
    <glyph glyph-name="ecircumflex" unicode="&#xea;" horiz-adv-x="550" 
d="M461 104l27 -33q-24 -24 -51 -41q-64 -40 -133 -40q-89 0 -148.5 63.5t-59.5 156.5q0 118 80.5 199t180.5 81q85 0 140 -57.5t55 -150.5q0 -10 -3 -43l-3 -19h-406v-6q0 -76 48 -127.5t123 -51.5q55 0 109 34q23 15 41 35zM147 265h361v12q0 75 -41.5 121.5t-112.5 46.5
q-68 0 -130.5 -52t-76.5 -128zM255 565l132 130h50l78 -130h-41l-64 100l-106 -100h-49z" />
    <glyph glyph-name="edieresis" unicode="&#xeb;" horiz-adv-x="550" 
d="M461 104l27 -33q-24 -24 -51 -41q-64 -40 -133 -40q-89 0 -148.5 63.5t-59.5 156.5q0 118 80.5 199t180.5 81q85 0 140 -57.5t55 -150.5q0 -10 -3 -43l-3 -19h-406v-6q0 -76 48 -127.5t123 -51.5q55 0 109 34q23 15 41 35zM147 265h361v12q0 75 -41.5 121.5t-112.5 46.5
q-68 0 -130.5 -52t-76.5 -128zM275 626q0 17 11.5 28t27.5 11q14 0 23 -9t9 -22q0 -17 -11.5 -28t-27.5 -11q-14 0 -23 9t-9 22zM450 626q0 17 11.5 28t27.5 11q14 0 23 -9t9 -22q0 -17 -11.5 -28t-27.5 -11q-14 0 -23 9t-9 22z" />
    <glyph glyph-name="igrave" unicode="&#xec;" horiz-adv-x="225" 
d="M90 0l102 480h45l-102 -480h-45zM200 565l-63 130h55l48 -130h-40z" />
    <glyph glyph-name="iacute" unicode="&#xed;" horiz-adv-x="225" 
d="M90 0l102 480h45l-102 -480h-45zM215 565l102 130h55l-117 -130h-40z" />
    <glyph glyph-name="icircumflex" unicode="&#xee;" horiz-adv-x="225" 
d="M90 0l102 480h45l-102 -480h-45zM95 565l132 130h50l78 -130h-41l-64 100l-106 -100h-49z" />
    <glyph glyph-name="idieresis" unicode="&#xef;" horiz-adv-x="225" 
d="M90 0l102 480h45l-102 -480h-45zM110 626q0 17 11.5 28t27.5 11q14 0 23 -9t9 -22q0 -17 -11.5 -28t-27.5 -11q-14 0 -23 9t-9 22zM285 626q0 17 11.5 28t27.5 11q14 0 23 -9t9 -22q0 -17 -11.5 -28t-27.5 -11q-14 0 -23 9t-9 22z" />
    <glyph glyph-name="eth" unicode="&#xf0;" horiz-adv-x="585" 
d="M312 35q83 0 147.5 63.5t64.5 154.5q0 74 -48 123t-123 49q-83 0 -147.5 -63.5t-64.5 -154.5q0 -74 48 -123t123 -49zM308 585l-24 30l117 55l-28 31q-37 37 -64 54l48 20q28 -23 63 -58q15 -16 20 -24l113 57l24 -30l-113 -56q34 -45 59 -99q59 -128 59 -247
q0 -151 -82 -239.5t-195 -88.5q-92 0 -151 61.5t-59 150.5q0 111 80 189.5t184 78.5q20 0 38 -3t32.5 -7.5t27 -11t22 -13.5t18 -14t13.5 -13t9 -11t5 -7l2 -3h5q-14 88 -62 179q-26 46 -47 75z" />
    <glyph glyph-name="ntilde" unicode="&#xf1;" horiz-adv-x="570" 
d="M85 0l102 480h45l-14 -68q19 22 43 39q57 39 121 39q82 0 133 -64.5t31 -160.5l-56 -265h-45l58 269q16 73 -22.5 124.5t-111.5 51.5q-59 0 -111 -45t-68 -120l-60 -280h-45zM297 565h-40q24 115 99 115q27 0 46.5 -19t34.5 -37.5t33 -18.5q40 0 56 75h40
q-24 -115 -99 -115q-18 0 -32 7.5t-23.5 18.5t-17.5 22.5t-18.5 19t-22.5 7.5q-17 0 -32.5 -18t-23.5 -57z" />
    <glyph glyph-name="ograve" unicode="&#xf2;" 
d="M367 490q91 0 152 -64.5t61 -156.5q0 -115 -83.5 -197t-187.5 -82q-91 0 -152 64.5t-61 156.5q0 115 83.5 197t187.5 82zM315 35q84 0 152 67.5t68 162.5q0 76 -50 128t-124 52q-84 0 -152 -67.5t-68 -162.5q0 -76 50 -128t124 -52zM375 565l-63 130h55l48 -130h-40z" />
    <glyph glyph-name="oacute" unicode="&#xf3;" 
d="M367 490q91 0 152 -64.5t61 -156.5q0 -115 -83.5 -197t-187.5 -82q-91 0 -152 64.5t-61 156.5q0 115 83.5 197t187.5 82zM315 35q84 0 152 67.5t68 162.5q0 76 -50 128t-124 52q-84 0 -152 -67.5t-68 -162.5q0 -76 50 -128t124 -52zM375 565l102 130h55l-117 -130h-40z
" />
    <glyph glyph-name="ocircumflex" unicode="&#xf4;" 
d="M367 490q91 0 152 -64.5t61 -156.5q0 -115 -83.5 -197t-187.5 -82q-91 0 -152 64.5t-61 156.5q0 115 83.5 197t187.5 82zM315 35q84 0 152 67.5t68 162.5q0 76 -50 128t-124 52q-84 0 -152 -67.5t-68 -162.5q0 -76 50 -128t124 -52zM265 565l132 130h50l78 -130h-41
l-64 100l-106 -100h-49z" />
    <glyph glyph-name="otilde" unicode="&#xf5;" 
d="M367 490q91 0 152 -64.5t61 -156.5q0 -115 -83.5 -197t-187.5 -82q-91 0 -152 64.5t-61 156.5q0 115 83.5 197t187.5 82zM315 35q84 0 152 67.5t68 162.5q0 76 -50 128t-124 52q-84 0 -152 -67.5t-68 -162.5q0 -76 50 -128t124 -52zM292 565h-40q24 115 99 115
q27 0 46.5 -19t34.5 -37.5t33 -18.5q40 0 56 75h40q-24 -115 -99 -115q-18 0 -32 7.5t-23.5 18.5t-17.5 22.5t-18.5 19t-22.5 7.5q-17 0 -32.5 -18t-23.5 -57z" />
    <glyph glyph-name="odieresis" unicode="&#xf6;" 
d="M367 490q91 0 152 -64.5t61 -156.5q0 -115 -83.5 -197t-187.5 -82q-91 0 -152 64.5t-61 156.5q0 115 83.5 197t187.5 82zM315 35q84 0 152 67.5t68 162.5q0 76 -50 128t-124 52q-84 0 -152 -67.5t-68 -162.5q0 -76 50 -128t124 -52zM285 626q0 17 11.5 28t27.5 11
q14 0 23 -9t9 -22q0 -17 -11.5 -28t-27.5 -11q-14 0 -23 9t-9 22zM460 626q0 17 11.5 28t27.5 11q14 0 23 -9t9 -22q0 -17 -11.5 -28t-27.5 -11q-14 0 -23 9t-9 22z" />
    <glyph glyph-name="divide" unicode="&#xf7;" horiz-adv-x="500" 
d="M277 110q0 15 10 25t25 10t25 -10t10 -25t-10 -25t-25 -10t-25 10t-10 25zM107 270v45h410v-45h-410zM277 475q0 15 10 25t25 10t25 -10t10 -25t-10 -25t-25 -10t-25 10t-10 25z" />
    <glyph glyph-name="oslash" unicode="&#xf8;" 
d="M85 -20l-25 34l74 68q-38 57 -38 129q0 115 83.5 197t187.5 82q88 0 148 -60l76 70l25 -34l-74 -68q38 -58 38 -129q0 -115 -83.5 -197t-187.5 -82q-85 0 -148 60zM506 366l-310 -284q50 -47 119 -47q84 0 152 67.5t68 162.5q0 57 -29 101zM170 114l310 284
q-50 47 -119 47q-84 0 -152 -67.5t-68 -162.5q0 -58 29 -101z" />
    <glyph glyph-name="ugrave" unicode="&#xf9;" horiz-adv-x="575" 
d="M128 215l56 265h45l-58 -269q-16 -73 22.5 -124.5t111.5 -51.5q59 0 111 45t68 120l60 280h45l-102 -480h-45l14 68q-19 -23 -43 -39q-55 -39 -121 -39q-81 0 -133 64.5t-31 160.5zM380 565l-63 130h55l48 -130h-40z" />
    <glyph glyph-name="uacute" unicode="&#xfa;" horiz-adv-x="575" 
d="M128 215l56 265h45l-58 -269q-16 -73 22.5 -124.5t111.5 -51.5q59 0 111 45t68 120l60 280h45l-102 -480h-45l14 68q-19 -23 -43 -39q-55 -39 -121 -39q-81 0 -133 64.5t-31 160.5zM380 565l102 130h55l-117 -130h-40z" />
    <glyph glyph-name="ucircumflex" unicode="&#xfb;" horiz-adv-x="575" 
d="M128 215l56 265h45l-58 -269q-16 -73 22.5 -124.5t111.5 -51.5q59 0 111 45t68 120l60 280h45l-102 -480h-45l14 68q-19 -23 -43 -39q-55 -39 -121 -39q-81 0 -133 64.5t-31 160.5zM270 565l132 130h50l78 -130h-41l-64 100l-106 -100h-49z" />
    <glyph glyph-name="udieresis" unicode="&#xfc;" horiz-adv-x="575" 
d="M128 215l56 265h45l-58 -269q-16 -73 22.5 -124.5t111.5 -51.5q59 0 111 45t68 120l60 280h45l-102 -480h-45l14 68q-19 -23 -43 -39q-55 -39 -121 -39q-81 0 -133 64.5t-31 160.5zM285 626q0 17 11.5 28t27.5 11q14 0 23 -9t9 -22q0 -17 -11.5 -28t-27.5 -11
q-14 0 -23 9t-9 22zM460 626q0 17 11.5 28t27.5 11q14 0 23 -9t9 -22q0 -17 -11.5 -28t-27.5 -11q-14 0 -23 9t-9 22z" />
    <glyph glyph-name="yacute" unicode="&#xfd;" horiz-adv-x="480" 
d="M-8 -198l11 45l14 -6q18 -6 33 -6q29 0 51.5 17.5t46.5 57.5l56 92l-92 478h48l80 -420l260 420h52l-352 -570q-40 -65 -74 -92.5t-79 -27.5q-18 0 -40 6zM320 565l102 130h55l-117 -130h-40z" />
    <glyph glyph-name="thorn" unicode="&#xfe;" horiz-adv-x="595" 
d="M45 -210l193 910h45l-63 -296q20 23 48 43q63 43 132 43q86 0 143.5 -60t57.5 -154q0 -122 -80 -204t-179 -82q-90 0 -146 62q-25 26 -37 63l-69 -325h-45zM347 35q81 0 145 69t64 167q0 74 -46 124t-116 50q-81 0 -145 -69t-64 -167q0 -74 46 -124t116 -50z" />
    <glyph glyph-name="ydieresis" unicode="&#xff;" horiz-adv-x="480" 
d="M-8 -198l11 45l14 -6q18 -6 33 -6q29 0 51.5 17.5t46.5 57.5l56 92l-92 478h48l80 -420l260 420h52l-352 -570q-40 -65 -74 -92.5t-79 -27.5q-18 0 -40 6zM225 626q0 17 11.5 28t27.5 11q14 0 23 -9t9 -22q0 -17 -11.5 -28t-27.5 -11q-14 0 -23 9t-9 22zM400 626
q0 17 11.5 28t27.5 11q14 0 23 -9t9 -22q0 -17 -11.5 -28t-27.5 -11q-14 0 -23 9t-9 22z" />
    <glyph glyph-name="Amacron" unicode="&#x100;" horiz-adv-x="670" 
d="M35 0l438 700h50l142 -700h-51l-42 205h-350l-128 -205h-59zM253 255h310l-76 375zM372 840l8 40h270l-8 -40h-270z" />
    <glyph glyph-name="amacron" unicode="&#x101;" horiz-adv-x="505" 
d="M386 0l15 72q-22 -26 -44 -41q-57 -41 -124 -41q-70 0 -112.5 37.5t-42.5 90.5q0 55 39 95t119 54l213 33q8 65 -24.5 105t-97.5 40q-52 0 -97 -28q-23 -13 -38 -28l-24 33q17 17 46 34q58 34 118 34q87 0 131.5 -59t26.5 -150l-59 -281h-45zM428 196l12 59l-192 -31
q-124 -20 -124 -101q0 -37 30.5 -62.5t85.5 -25.5q66 0 120.5 46t67.5 115zM254 620l8 40h270l-8 -40h-270z" />
    <glyph glyph-name="Abreve" unicode="&#x102;" horiz-adv-x="670" 
d="M35 0l438 700h50l142 -700h-51l-42 205h-350l-128 -205h-59zM253 255h310l-76 375zM395 925h39v-12q0 -36 22 -57t63 -21q37 0 63.5 23t32.5 67h41q-12 -61 -51.5 -95.5t-90.5 -34.5q-54 0 -86.5 31t-32.5 84v15z" />
    <glyph glyph-name="abreve" unicode="&#x103;" horiz-adv-x="505" 
d="M386 0l15 72q-22 -26 -44 -41q-57 -41 -124 -41q-70 0 -112.5 37.5t-42.5 90.5q0 55 39 95t119 54l213 33q8 65 -24.5 105t-97.5 40q-52 0 -97 -28q-23 -13 -38 -28l-24 33q17 17 46 34q58 34 118 34q87 0 131.5 -59t26.5 -150l-59 -281h-45zM428 196l12 59l-192 -31
q-124 -20 -124 -101q0 -37 30.5 -62.5t85.5 -25.5q66 0 120.5 46t67.5 115zM253 695h39v-12q0 -36 22 -57t63 -21q37 0 63.5 23t32.5 67h41q-12 -61 -51.5 -95.5t-90.5 -34.5q-54 0 -86.5 31t-32.5 84v15z" />
    <glyph glyph-name="Aogonek" unicode="&#x104;" horiz-adv-x="670" 
d="M35 0l438 700h50l142 -700h-14q-25 -20 -45 -39q-44 -44 -44 -83q0 -43 55 -43q20 0 35 4q7 1 16 5l-7 -34q-10 -4 -16 -5q-18 -5 -37 -5q-38 0 -60 21t-22 54q0 47 44 91q20 20 44 34l-42 205h-350l-128 -205h-59zM253 255h310l-76 375z" />
    <glyph glyph-name="aogonek" unicode="&#x105;" horiz-adv-x="505" 
d="M440 -156l-7 -34q-10 -4 -16 -5q-18 -5 -37 -5q-38 0 -60 21t-22 54q0 47 44 91q20 20 44 34l15 72q-22 -26 -44 -41q-57 -41 -124 -41q-70 0 -112.5 37.5t-42.5 90.5q0 55 39 95t119 54l213 33q8 65 -24.5 105t-97.5 40q-52 0 -97 -28q-23 -13 -38 -28l-24 33
q17 17 46 34q58 34 118 34q87 0 131.5 -59t26.5 -150l-59 -281h-8q-25 -20 -45 -39q-44 -44 -44 -83q0 -43 55 -43q20 0 35 4q7 1 16 5zM428 196l12 59l-192 -31q-124 -20 -124 -101q0 -37 30.5 -62.5t85.5 -25.5q66 0 120.5 46t67.5 115z" />
    <glyph glyph-name="Cacute" unicode="&#x106;" horiz-adv-x="750" 
d="M701 145l28 -35q-36 -36 -77 -60q-95 -60 -203 -60q-138 0 -228 92t-90 227q0 165 121 283t275 118q114 0 207 -77q41 -36 65 -77l-42 -27q-22 37 -54 65q-78 66 -184 66q-133 0 -235.5 -101t-102.5 -247q0 -117 77 -194.5t199 -77.5q95 0 178 52q36 22 66 53zM520 795
l102 130h55l-117 -130h-40z" />
    <glyph glyph-name="cacute" unicode="&#x107;" horiz-adv-x="515" 
d="M460 104l28 -33q-24 -24 -51 -41q-64 -40 -133 -40q-89 0 -148.5 63t-59.5 156q0 115 82.5 198t184.5 83q81 0 139 -54q27 -25 43 -53l-41 -25q-12 21 -34 43q-44 44 -111 44q-82 0 -150 -67.5t-68 -162.5q0 -78 48.5 -129t120.5 -51q55 0 109 34q23 15 41 35zM365 565
l102 130h55l-117 -130h-40z" />
    <glyph glyph-name="Ccircumflex" unicode="&#x108;" horiz-adv-x="750" 
d="M701 145l28 -35q-36 -36 -77 -60q-95 -60 -203 -60q-138 0 -228 92t-90 227q0 165 121 283t275 118q114 0 207 -77q41 -36 65 -77l-42 -27q-22 37 -54 65q-78 66 -184 66q-133 0 -235.5 -101t-102.5 -247q0 -117 77 -194.5t199 -77.5q95 0 178 52q36 22 66 53zM416 795
l132 130h50l78 -130h-41l-64 100l-106 -100h-49z" />
    <glyph glyph-name="ccircumflex" unicode="&#x109;" horiz-adv-x="515" 
d="M460 104l28 -33q-24 -24 -51 -41q-64 -40 -133 -40q-89 0 -148.5 63t-59.5 156q0 115 82.5 198t184.5 83q81 0 139 -54q27 -25 43 -53l-41 -25q-12 21 -34 43q-44 44 -111 44q-82 0 -150 -67.5t-68 -162.5q0 -78 48.5 -129t120.5 -51q55 0 109 34q23 15 41 35zM255 565
l132 130h50l78 -130h-41l-64 100l-106 -100h-49z" />
    <glyph glyph-name="Cdotaccent" unicode="&#x10a;" horiz-adv-x="750" 
d="M701 145l28 -35q-36 -36 -77 -60q-95 -60 -203 -60q-138 0 -228 92t-90 227q0 165 121 283t275 118q114 0 207 -77q41 -36 65 -77l-42 -27q-22 37 -54 65q-78 66 -184 66q-133 0 -235.5 -101t-102.5 -247q0 -117 77 -194.5t199 -77.5q95 0 178 52q36 22 66 53zM565 895
q14 0 23 -9t9 -22q0 -17 -11.5 -28t-27.5 -11q-14 0 -23 9t-9 22q0 17 11.5 28t27.5 11z" />
    <glyph glyph-name="cdotaccent" unicode="&#x10b;" horiz-adv-x="515" 
d="M460 104l28 -33q-24 -24 -51 -41q-64 -40 -133 -40q-89 0 -148.5 63t-59.5 156q0 115 82.5 198t184.5 83q81 0 139 -54q27 -25 43 -53l-41 -25q-12 21 -34 43q-44 44 -111 44q-82 0 -150 -67.5t-68 -162.5q0 -78 48.5 -129t120.5 -51q55 0 109 34q23 15 41 35zM400 665
q14 0 23 -9t9 -22q0 -17 -11.5 -28t-27.5 -11q-14 0 -23 9t-9 22q0 17 11.5 28t27.5 11z" />
    <glyph glyph-name="Ccaron" unicode="&#x10c;" horiz-adv-x="750" 
d="M701 145l28 -35q-36 -36 -77 -60q-95 -60 -203 -60q-138 0 -228 92t-90 227q0 165 121 283t275 118q114 0 207 -77q41 -36 65 -77l-42 -27q-22 37 -54 65q-78 66 -184 66q-133 0 -235.5 -101t-102.5 -247q0 -117 77 -194.5t199 -77.5q95 0 178 52q36 22 66 53zM515 795
l-78 130h41l64 -100l106 100h49l-132 -130h-50z" />
    <glyph glyph-name="ccaron" unicode="&#x10d;" horiz-adv-x="515" 
d="M460 104l28 -33q-24 -24 -51 -41q-64 -40 -133 -40q-89 0 -148.5 63t-59.5 156q0 115 82.5 198t184.5 83q81 0 139 -54q27 -25 43 -53l-41 -25q-12 21 -34 43q-44 44 -111 44q-82 0 -150 -67.5t-68 -162.5q0 -78 48.5 -129t120.5 -51q55 0 109 34q23 15 41 35zM360 565
l-78 130h41l64 -100l106 100h49l-132 -130h-50z" />
    <glyph glyph-name="Dcaron" unicode="&#x10e;" horiz-adv-x="740" 
d="M170 50h199q140 0 240.5 95.5t100.5 237.5q0 115 -79.5 191t-190.5 76h-142zM110 0l148 700h182q134 0 226.5 -88.5t92.5 -224.5q0 -161 -117.5 -274t-278.5 -113h-253zM490 795l-78 130h41l64 -100l106 100h49l-132 -130h-50z" />
    <glyph glyph-name="dcaron" unicode="&#x10f;" horiz-adv-x="635" 
d="M459 0l16 76q-18 -24 -47 -43q-58 -43 -132 -43q-86 0 -143.5 60t-57.5 154q0 122 80 204t179 82q88 0 145 -63q23 -26 37 -62l71 335h45l-148 -700h-45zM302 35q81 0 145 69t64 167q0 74 -46 124t-116 50q-81 0 -145 -69t-64 -167q0 -74 46 -124t116 -50zM695 565
l73 135h50l-88 -135h-35z" />
    <glyph glyph-name="Dcroat" unicode="&#x110;" horiz-adv-x="750" 
d="M120 0l69 325h-100l10 50h100l69 325h182q134 0 226.5 -88.5t92.5 -224.5q0 -161 -117.5 -274t-278.5 -113h-253zM180 50h199q140 0 240.5 95.5t100.5 237.5q0 115 -79.5 191t-190.5 76h-142l-59 -275h175l-10 -50h-175z" />
    <glyph glyph-name="dslash" unicode="&#x111;" horiz-adv-x="595" 
d="M461 0l16 76q-19 -23 -47 -43q-58 -43 -131 -43q-87 0 -145.5 60t-58.5 150q0 112 80 191t178 79q91 0 146 -63q25 -28 35 -62l44 210h-145l10 45h145l21 100h45l-21 -100h80l-10 -45h-80l-117 -555h-45zM302 35q81 0 145 63.5t64 155.5q0 72 -46.5 121.5t-115.5 49.5
q-81 0 -145 -64t-64 -155q0 -72 46.5 -121.5t115.5 -49.5z" />
    <glyph glyph-name="Emacron" unicode="&#x112;" horiz-adv-x="630" 
d="M110 0l148 700h470l-10 -50h-420l-56 -260h340l-10 -50h-340l-62 -290h430l-10 -50h-480zM378 840l8 40h270l-8 -40h-270z" />
    <glyph glyph-name="emacron" unicode="&#x113;" horiz-adv-x="550" 
d="M461 104l27 -33q-24 -24 -51 -41q-64 -40 -133 -40q-89 0 -148.5 63.5t-59.5 156.5q0 118 80.5 199t180.5 81q85 0 140 -57.5t55 -150.5q0 -10 -3 -43l-3 -19h-406v-6q0 -76 48 -127.5t123 -51.5q55 0 109 34q23 15 41 35zM147 265h361v12q0 75 -41.5 121.5t-112.5 46.5
q-68 0 -130.5 -52t-76.5 -128zM267 620l8 40h270l-8 -40h-270z" />
    <glyph glyph-name="Ebreve" unicode="&#x114;" horiz-adv-x="630" 
d="M110 0l148 700h470l-10 -50h-420l-56 -260h340l-10 -50h-340l-62 -290h430l-10 -50h-480zM391 925h39v-12q0 -36 22 -57t63 -21q37 0 63.5 23t32.5 67h41q-12 -61 -51.5 -95.5t-90.5 -34.5q-54 0 -86.5 31t-32.5 84v15z" />
    <glyph glyph-name="ebreve" unicode="&#x115;" horiz-adv-x="550" 
d="M461 104l27 -33q-24 -24 -51 -41q-64 -40 -133 -40q-89 0 -148.5 63.5t-59.5 156.5q0 118 80.5 199t180.5 81q85 0 140 -57.5t55 -150.5q0 -10 -3 -43l-3 -19h-406v-6q0 -76 48 -127.5t123 -51.5q55 0 109 34q23 15 41 35zM147 265h361v12q0 75 -41.5 121.5t-112.5 46.5
q-68 0 -130.5 -52t-76.5 -128zM266 695h39v-12q0 -36 22 -57t63 -21q37 0 63.5 23t32.5 67h41q-12 -61 -51.5 -95.5t-90.5 -34.5q-54 0 -86.5 31t-32.5 84v15z" />
    <glyph glyph-name="Edotaccent" unicode="&#x116;" horiz-adv-x="630" 
d="M110 0l148 700h470l-10 -50h-420l-56 -260h340l-10 -50h-340l-62 -290h430l-10 -50h-480zM519 895q14 0 23 -9t9 -22q0 -17 -11.5 -28t-27.5 -11q-14 0 -23 9t-9 22q0 17 11.5 28t27.5 11z" />
    <glyph glyph-name="edotaccent" unicode="&#x117;" horiz-adv-x="550" 
d="M461 104l27 -33q-24 -24 -51 -41q-64 -40 -133 -40q-89 0 -148.5 63.5t-59.5 156.5q0 118 80.5 199t180.5 81q85 0 140 -57.5t55 -150.5q0 -10 -3 -43l-3 -19h-406v-6q0 -76 48 -127.5t123 -51.5q55 0 109 34q23 15 41 35zM147 265h361v12q0 75 -41.5 121.5t-112.5 46.5
q-68 0 -130.5 -52t-76.5 -128zM395 665q14 0 23 -9t9 -22q0 -17 -11.5 -28t-27.5 -11q-14 0 -23 9t-9 22q0 17 11.5 28t27.5 11z" />
    <glyph glyph-name="Eogonek" unicode="&#x118;" horiz-adv-x="630" 
d="M110 0l148 700h470l-10 -50h-420l-56 -260h340l-10 -50h-340l-62 -290h430l-10 -50q-26 -20 -45 -39q-44 -44 -44 -83q0 -43 55 -43q20 0 35 4q7 1 16 5l-7 -34q-10 -4 -16 -5q-18 -5 -37 -5q-38 0 -60 21t-22 54q0 47 44 91q20 20 44 34h-443z" />
    <glyph glyph-name="eogonek" unicode="&#x119;" horiz-adv-x="550" 
d="M348 -156l-7 -34q-10 -4 -16 -5q-18 -5 -37 -5q-38 0 -60 21t-22 54q0 37 24 68t50 48q-81 8 -132.5 70t-51.5 149q0 118 80.5 199t180.5 81q85 0 140 -57.5t55 -150.5q0 -10 -3 -43l-3 -19h-406v-6q0 -76 48 -127.5t123 -51.5q55 0 109 34q23 15 41 35l27 -33
q-22 -21 -47 -38q-65 -40 -123 -43q-76 -60 -76 -112q0 -43 55 -43q20 0 35 4q7 1 16 5zM147 265h361v12q0 75 -41.5 121.5t-112.5 46.5q-68 0 -130.5 -52t-76.5 -128z" />
    <glyph glyph-name="Ecaron" unicode="&#x11a;" horiz-adv-x="630" 
d="M110 0l148 700h470l-10 -50h-420l-56 -260h340l-10 -50h-340l-62 -290h430l-10 -50h-480zM479 795l-78 130h41l64 -100l106 100h49l-132 -130h-50z" />
    <glyph glyph-name="ecaron" unicode="&#x11b;" horiz-adv-x="550" 
d="M461 104l27 -33q-24 -24 -51 -41q-64 -40 -133 -40q-89 0 -148.5 63.5t-59.5 156.5q0 118 80.5 199t180.5 81q85 0 140 -57.5t55 -150.5q0 -10 -3 -43l-3 -19h-406v-6q0 -76 48 -127.5t123 -51.5q55 0 109 34q23 15 41 35zM147 265h361v12q0 75 -41.5 121.5t-112.5 46.5
q-68 0 -130.5 -52t-76.5 -128zM360 565l-78 130h41l64 -100l106 100h49l-132 -130h-50z" />
    <glyph glyph-name="Gcircumflex" unicode="&#x11c;" horiz-adv-x="790" 
d="M688 132l36 168h-180l11 50h230l-52 -246q-33 -30 -79 -57q-100 -57 -205 -57q-138 0 -228 92t-90 227q0 165 121 283t275 118q114 0 207 -77q41 -36 65 -77l-42 -27q-22 37 -54 65q-78 66 -184 66q-133 0 -235.5 -101t-102.5 -247q0 -117 77 -194.5t199 -77.5
q85 0 167 46q34 19 64 46zM420 795l132 130h50l78 -130h-41l-64 100l-106 -100h-49z" />
    <glyph glyph-name="gcircumflex" unicode="&#x11d;" 
d="M51 -90l41 26q12 -27 32 -51q43 -51 120 -51q71 0 130 50t75 125l18 89q-18 -22 -47 -44q-59 -44 -130 -44q-84 0 -138.5 58.5t-54.5 146.5q0 118 76 196.5t174 78.5q88 0 142 -62q24 -28 35 -61l25 113h45l-102 -479q-18 -89 -91.5 -150t-160.5 -61t-147 60
q-25 26 -42 60zM344 445q-79 0 -141 -63.5t-62 -159.5q0 -72 45 -119.5t113 -47.5q79 0 141 63.5t62 159.5q0 72 -45 119.5t-113 47.5zM275 565l132 130h50l78 -130h-41l-64 100l-106 -100h-49z" />
    <glyph glyph-name="Gbreve" unicode="&#x11e;" horiz-adv-x="790" 
d="M688 132l36 168h-180l11 50h230l-52 -246q-33 -30 -79 -57q-100 -57 -205 -57q-138 0 -228 92t-90 227q0 165 121 283t275 118q114 0 207 -77q41 -36 65 -77l-42 -27q-22 37 -54 65q-78 66 -184 66q-133 0 -235.5 -101t-102.5 -247q0 -117 77 -194.5t199 -77.5
q85 0 167 46q34 19 64 46zM431 925h39v-12q0 -36 22 -57t63 -21q37 0 63.5 23t32.5 67h41q-12 -61 -51.5 -95.5t-90.5 -34.5q-54 0 -86.5 31t-32.5 84v15z" />
    <glyph glyph-name="gbreve" unicode="&#x11f;" 
d="M51 -90l41 26q12 -27 32 -51q43 -51 120 -51q71 0 130 50t75 125l18 89q-18 -22 -47 -44q-59 -44 -130 -44q-84 0 -138.5 58.5t-54.5 146.5q0 118 76 196.5t174 78.5q88 0 142 -62q24 -28 35 -61l25 113h45l-102 -479q-18 -89 -91.5 -150t-160.5 -61t-147 60
q-25 26 -42 60zM344 445q-79 0 -141 -63.5t-62 -159.5q0 -72 45 -119.5t113 -47.5q79 0 141 63.5t62 159.5q0 72 -45 119.5t-113 47.5zM286 695h39v-12q0 -36 22 -57t63 -21q37 0 63.5 23t32.5 67h41q-12 -61 -51.5 -95.5t-90.5 -34.5q-54 0 -86.5 31t-32.5 84v15z" />
    <glyph glyph-name="Gdotaccent" unicode="&#x120;" horiz-adv-x="790" 
d="M688 132l36 168h-180l11 50h230l-52 -246q-33 -30 -79 -57q-100 -57 -205 -57q-138 0 -228 92t-90 227q0 165 121 283t275 118q114 0 207 -77q41 -36 65 -77l-42 -27q-22 37 -54 65q-78 66 -184 66q-133 0 -235.5 -101t-102.5 -247q0 -117 77 -194.5t199 -77.5
q85 0 167 46q34 19 64 46zM565 895q14 0 23 -9t9 -22q0 -17 -11.5 -28t-27.5 -11q-14 0 -23 9t-9 22q0 17 11.5 28t27.5 11z" />
    <glyph glyph-name="gdotaccent" unicode="&#x121;" 
d="M51 -90l41 26q12 -27 32 -51q43 -51 120 -51q71 0 130 50t75 125l18 89q-18 -22 -47 -44q-59 -44 -130 -44q-84 0 -138.5 58.5t-54.5 146.5q0 118 76 196.5t174 78.5q88 0 142 -62q24 -28 35 -61l25 113h45l-102 -479q-18 -89 -91.5 -150t-160.5 -61t-147 60
q-25 26 -42 60zM344 445q-79 0 -141 -63.5t-62 -159.5q0 -72 45 -119.5t113 -47.5q79 0 141 63.5t62 159.5q0 72 -45 119.5t-113 47.5zM420 665q14 0 23 -9t9 -22q0 -17 -11.5 -28t-27.5 -11q-14 0 -23 9t-9 22q0 17 11.5 28t27.5 11z" />
    <glyph glyph-name="Gcommaaccent" unicode="&#x122;" horiz-adv-x="790" 
d="M688 132l36 168h-180l11 50h230l-52 -246q-33 -30 -79 -57q-100 -57 -205 -57q-138 0 -228 92t-90 227q0 165 121 283t275 118q114 0 207 -77q41 -36 65 -77l-42 -27q-22 37 -54 65q-78 66 -184 66q-133 0 -235.5 -101t-102.5 -247q0 -117 77 -194.5t199 -77.5
q85 0 167 46q34 19 64 46zM345 -215l72 135h50l-88 -135h-34z" />
    <glyph glyph-name="gcommaaccent" unicode="&#x123;" 
d="M380 565l88 135h35l-73 -135h-50zM51 -90l41 26q12 -27 32 -51q43 -51 120 -51q71 0 130 50t75 125l18 89q-18 -22 -47 -44q-59 -44 -130 -44q-84 0 -138.5 58.5t-54.5 146.5q0 118 76 196.5t174 78.5q88 0 142 -62q24 -28 35 -61l25 113h45l-102 -479
q-18 -89 -91.5 -150t-160.5 -61t-147 60q-25 26 -42 60zM344 445q-79 0 -141 -63.5t-62 -159.5q0 -72 45 -119.5t113 -47.5q79 0 141 63.5t62 159.5q0 72 -45 119.5t-113 47.5z" />
    <glyph glyph-name="Hcircumflex" unicode="&#x124;" horiz-adv-x="745" 
d="M110 0l148 700h50l-68 -320h425l68 320h50l-148 -700h-50l70 330h-425l-70 -330h-50zM405 795l132 130h50l78 -130h-41l-64 100l-106 -100h-49z" />
    <glyph glyph-name="hcircumflex" unicode="&#x125;" horiz-adv-x="575" 
d="M90 0l148 700h45l-61 -288q19 22 43 39q57 39 122 39q82 0 133 -64.5t31 -160.5l-56 -265h-45l58 269q16 73 -22.5 124.5t-111.5 51.5q-59 0 -111 -45t-68 -120l-60 -280h-45zM295 795l132 130h50l78 -130h-41l-64 100l-106 -100h-49z" />
    <glyph glyph-name="Hbar" unicode="&#x126;" horiz-adv-x="755" 
d="M125 0l107 505h-105l9 45h105l32 150h50l-32 -150h405l32 150h50l-32 -150h105l-9 -45h-105l-107 -505h-50l64 305h-405l-64 -305h-50zM250 355h405l32 150h-405z" />
    <glyph glyph-name="hbar" unicode="&#x127;" horiz-adv-x="585" 
d="M100 0l117 555h-90l10 45h90l21 100h45l-21 -100h150l-10 -45h-150l-30 -143q19 22 43 39q57 39 122 39q82 0 133 -64.5t31 -160.5l-56 -265h-45l58 269q16 73 -22.5 124.5t-111.5 51.5q-59 0 -111 -45t-68 -120l-60 -280h-45z" />
    <glyph glyph-name="Imacron" unicode="&#x12a;" horiz-adv-x="270" 
d="M110 0l148 700h50l-148 -700h-50zM167 840l8 40h270l-8 -40h-270z" />
    <glyph glyph-name="imacron" unicode="&#x12b;" horiz-adv-x="225" 
d="M90 0l102 480h45l-102 -480h-45zM102 620l8 40h270l-8 -40h-270z" />
    <glyph glyph-name="Ibreve" unicode="&#x12c;" horiz-adv-x="270" 
d="M110 0l148 700h50l-148 -700h-50zM181 925h39v-12q0 -36 22 -57t63 -21q37 0 63.5 23t32.5 67h41q-12 -61 -51.5 -95.5t-90.5 -34.5q-54 0 -86.5 31t-32.5 84v15z" />
    <glyph glyph-name="ibreve" unicode="&#x12d;" horiz-adv-x="225" 
d="M90 0l102 480h45l-102 -480h-45zM106 695h39v-12q0 -36 22 -57t63 -21q37 0 63.5 23t32.5 67h41q-12 -61 -51.5 -95.5t-90.5 -34.5q-54 0 -86.5 31t-32.5 84v15z" />
    <glyph glyph-name="Iogonek" unicode="&#x12e;" horiz-adv-x="270" 
d="M164 -156l-7 -34q-10 -4 -16 -5q-18 -5 -37 -5q-38 0 -60 21t-22 54q0 47 44 91q20 20 44 34l148 700h50l-148 -700h-13q-25 -20 -45 -39q-44 -44 -44 -83q0 -43 55 -43q20 0 35 4q7 1 16 5z" />
    <glyph glyph-name="iogonek" unicode="&#x12f;" horiz-adv-x="225" 
d="M144 -156l-7 -34q-10 -4 -16 -5q-18 -5 -37 -5q-38 0 -60 21t-22 54q0 47 44 91q20 20 44 34l102 480h45l-102 -480h-8q-25 -20 -45 -39q-44 -44 -44 -83q0 -43 55 -43q20 0 35 4q7 1 16 5zM213 646q0 17 11.5 28t27.5 11q14 0 23 -9t9 -22q0 -17 -11.5 -28t-27.5 -11
q-14 0 -23 9t-9 22z" />
    <glyph glyph-name="Idot" unicode="&#x130;" horiz-adv-x="270" 
d="M110 0l148 700h50l-148 -700h-50zM307 895q14 0 23 -9t9 -22q0 -17 -11.5 -28t-27.5 -11q-14 0 -23 9t-9 22q0 17 11.5 28t27.5 11z" />
    <glyph glyph-name="dotlessi" unicode="&#x131;" horiz-adv-x="225" 
d="M90 0l102 480h45l-102 -480h-45z" />
    <glyph glyph-name="uni0132" unicode="&#x132;" horiz-adv-x="700" 
d="M110 0l148 700h50l-148 -700h-50zM242 81l40 33q12 -21 31 -37q45 -37 106 -37q64 0 110.5 40t60.5 108l108 512h50l-109 -517q-18 -86 -82 -139.5t-147 -53.5q-75 0 -128 45q-22 18 -40 46z" />
    <glyph glyph-name="uni0133" unicode="&#x133;" horiz-adv-x="445" 
d="M252 685q14 0 23 -9t9 -22q0 -17 -11.5 -28t-27.5 -11q-14 0 -23 9t-9 22q0 17 11.5 28t27.5 11zM90 0l102 480h45l-102 -480h-45zM134 -187l10 44q6 -6 18 -11q17 -11 47 -11t52 21.5t30 59.5l121 564h45l-122 -569q-12 -57 -47.5 -89t-83.5 -32q-32 0 -51 11
q-12 5 -19 12zM433 646q0 17 11.5 28t27.5 11q14 0 23 -9t9 -22q0 -17 -11.5 -28t-27.5 -11q-14 0 -23 9t-9 22z" />
    <glyph glyph-name="Jcircumflex" unicode="&#x134;" horiz-adv-x="485" 
d="M23 81l40 33q12 -21 31 -37q45 -37 106 -37q64 0 110.5 40t60.5 108l108 512h50l-109 -517q-18 -86 -82 -139.5t-147 -53.5q-75 0 -128 45q-22 18 -40 46zM380 795l132 130h50l78 -130h-41l-64 100l-106 -100h-49z" />
    <glyph glyph-name="jcircumflex" unicode="&#x135;" horiz-adv-x="225" 
d="M-86 -187l10 44q6 -6 18 -11q17 -11 47 -11t52 21.5t30 59.5l121 564h45l-122 -569q-12 -57 -47.5 -89t-83.5 -32q-32 0 -51 11q-12 5 -19 12zM90 565l132 130h50l78 -130h-41l-64 100l-106 -100h-49z" />
    <glyph glyph-name="Kcommaaccent" unicode="&#x136;" horiz-adv-x="645" 
d="M110 0l148 700h50l-91 -430l481 430h67l-327 -292l202 -408h-55l-185 374l-198 -177l-42 -197h-50zM265 -215l72 135h50l-88 -135h-34z" />
    <glyph glyph-name="kcommaaccent" unicode="&#x137;" horiz-adv-x="495" 
d="M90 0l148 700h45l-107 -505l326 285h62l-223 -196l144 -284h-51l-129 253l-143 -125l-27 -128h-45zM185 -215l72 135h50l-88 -135h-34z" />
    <glyph glyph-name="Lacute" unicode="&#x139;" horiz-adv-x="545" 
d="M110 0l148 700h50l-138 -650h375l-10 -50h-425zM285 795l102 130h55l-117 -130h-40z" />
    <glyph glyph-name="lacute" unicode="&#x13a;" horiz-adv-x="225" 
d="M90 0l148 700h45l-148 -700h-45zM255 795l102 130h55l-117 -130h-40z" />
    <glyph glyph-name="Lcommaaccent" unicode="&#x13b;" horiz-adv-x="545" 
d="M110 0l148 700h50l-138 -650h375l-10 -50h-425zM234 -215l72 135h50l-88 -135h-34z" />
    <glyph glyph-name="lcommaaccent" unicode="&#x13c;" horiz-adv-x="225" 
d="M90 0l148 700h45l-148 -700h-45zM-5 -215l72 135h50l-88 -135h-34z" />
    <glyph glyph-name="Lcaron" unicode="&#x13d;" horiz-adv-x="545" 
d="M110 0l148 700h50l-138 -650h375l-10 -50h-425zM410 565l72 135h50l-88 -135h-34z" />
    <glyph glyph-name="lcaron" unicode="&#x13e;" horiz-adv-x="270" 
d="M90 0l148 700h45l-148 -700h-45zM325 565l73 135h50l-88 -135h-35z" />
    <glyph glyph-name="Ldot" unicode="&#x13f;" horiz-adv-x="545" 
d="M110 0l148 700h50l-138 -650h375l-10 -50h-425zM416 405q14 0 23 -9t9 -22q0 -17 -11.5 -28t-27.5 -11q-14 0 -23 9t-9 22q0 17 11.5 28t27.5 11z" />
    <glyph glyph-name="ldot" unicode="&#x140;" horiz-adv-x="325" 
d="M90 0l148 700h45l-148 -700h-45zM345 385q14 0 23 -9t9 -22q0 -17 -11.5 -28t-27.5 -11q-14 0 -23 9t-9 22q0 17 11.5 28t27.5 11z" />
    <glyph glyph-name="Lslash" unicode="&#x141;" 
d="M145 0l64 296l-135 -70l-17 44l163 85l73 345h50l-67 -315l175 92l17 -46l-202 -105l-61 -276h375l-10 -50h-425z" />
    <glyph glyph-name="lslash" unicode="&#x142;" horiz-adv-x="335" 
d="M145 0l72 331l-147 -80l-14 39l169 90l68 320h45l-62 -295l147 80l13 -39l-169 -90l-77 -356h-45z" />
    <glyph glyph-name="Nacute" unicode="&#x143;" horiz-adv-x="775" 
d="M110 0l148 700h40l336 -611l129 611h50l-148 -700h-40l-336 611l-129 -611h-50zM525 795l102 130h55l-117 -130h-40z" />
    <glyph glyph-name="nacute" unicode="&#x144;" horiz-adv-x="570" 
d="M85 0l102 480h45l-14 -68q19 22 43 39q57 39 121 39q82 0 133 -64.5t31 -160.5l-56 -265h-45l58 269q16 73 -22.5 124.5t-111.5 51.5q-59 0 -111 -45t-68 -120l-60 -280h-45zM380 565l102 130h55l-117 -130h-40z" />
    <glyph glyph-name="Ncommaaccent" unicode="&#x145;" horiz-adv-x="775" 
d="M110 0l148 700h40l336 -611l129 611h50l-148 -700h-40l-336 611l-129 -611h-50zM301 -215l72 135h50l-88 -135h-34z" />
    <glyph glyph-name="ncommaaccent" unicode="&#x146;" horiz-adv-x="570" 
d="M85 0l102 480h45l-14 -68q19 22 43 39q57 39 121 39q82 0 133 -64.5t31 -160.5l-56 -265h-45l58 269q16 73 -22.5 124.5t-111.5 51.5q-59 0 -111 -45t-68 -120l-60 -280h-45zM195 -215l72 135h50l-88 -135h-34z" />
    <glyph glyph-name="Ncaron" unicode="&#x147;" horiz-adv-x="775" 
d="M110 0l148 700h40l336 -611l129 611h50l-148 -700h-40l-336 611l-129 -611h-50zM515 795l-78 130h41l64 -100l106 100h49l-132 -130h-50z" />
    <glyph glyph-name="ncaron" unicode="&#x148;" horiz-adv-x="570" 
d="M85 0l102 480h45l-14 -68q19 22 43 39q57 39 121 39q82 0 133 -64.5t31 -160.5l-56 -265h-45l58 269q16 73 -22.5 124.5t-111.5 51.5q-59 0 -111 -45t-68 -120l-60 -280h-45zM375 565l-78 130h41l64 -100l106 100h49l-132 -130h-50z" />
    <glyph glyph-name="napostrophe" unicode="&#x149;" horiz-adv-x="570" 
d="M85 0l102 480h45l-14 -68q19 22 43 39q57 39 121 39q82 0 133 -64.5t31 -160.5l-56 -265h-45l58 269q16 73 -22.5 124.5t-111.5 51.5q-59 0 -111 -45t-68 -120l-60 -280h-45zM140 545l73 135h50l-88 -135h-35z" />
    <glyph glyph-name="Eng" unicode="&#x14a;" horiz-adv-x="775" 
d="M110 0l148 700h40l336 -611l129 611h50l-152 -721q-18 -84 -82 -136.5t-146 -52.5q-76 0 -130 46q-23 19 -39 47l41 31q12 -21 31 -37q45 -37 105 -37q63 0 108 39t62 106l7 28l-329 598l-129 -611h-50z" />
    <glyph glyph-name="eng" unicode="&#x14b;" horiz-adv-x="570" 
d="M270 -188l10 45l8 -5q7 -5 23.5 -11t34.5 -6q63 0 80 77l76 357q16 73 -22 124.5t-111 51.5q-59 0 -111 -45t-68 -120l-60 -280h-45l102 480h45l-14 -68q19 22 43 39q57 39 121 39q82 0 133 -64.5t31 -160.5l-76 -358q-12 -56 -47 -86.5t-84 -30.5q-32 0 -51 11
q-12 5 -18 11z" />
    <glyph glyph-name="Omacron" unicode="&#x14c;" horiz-adv-x="830" 
d="M528 710q137 0 227 -93t90 -227q0 -109 -57 -202t-148 -145.5t-192 -52.5q-137 0 -227 93t-90 227q0 109 57 202t148 145.5t192 52.5zM520 660q-134 0 -236.5 -100.5t-102.5 -246.5q0 -116 77 -194.5t198 -78.5q133 0 236 101.5t103 245.5q0 116 -77 194.5t-198 78.5z
M432 840l8 40h270l-8 -40h-270z" />
    <glyph glyph-name="omacron" unicode="&#x14d;" 
d="M367 490q91 0 152 -64.5t61 -156.5q0 -115 -83.5 -197t-187.5 -82q-91 0 -152 64.5t-61 156.5q0 115 83.5 197t187.5 82zM315 35q84 0 152 67.5t68 162.5q0 76 -50 128t-124 52q-84 0 -152 -67.5t-68 -162.5q0 -76 50 -128t124 -52zM277 620l8 40h270l-8 -40h-270z" />
    <glyph glyph-name="Obreve" unicode="&#x14e;" horiz-adv-x="830" 
d="M528 710q137 0 227 -93t90 -227q0 -109 -57 -202t-148 -145.5t-192 -52.5q-137 0 -227 93t-90 227q0 109 57 202t148 145.5t192 52.5zM520 660q-134 0 -236.5 -100.5t-102.5 -246.5q0 -116 77 -194.5t198 -78.5q133 0 236 101.5t103 245.5q0 116 -77 194.5t-198 78.5z
M436 925h39v-12q0 -36 22 -57t63 -21q37 0 63.5 23t32.5 67h41q-12 -61 -51.5 -95.5t-90.5 -34.5q-54 0 -86.5 31t-32.5 84v15z" />
    <glyph glyph-name="obreve" unicode="&#x14f;" 
d="M367 490q91 0 152 -64.5t61 -156.5q0 -115 -83.5 -197t-187.5 -82q-91 0 -152 64.5t-61 156.5q0 115 83.5 197t187.5 82zM315 35q84 0 152 67.5t68 162.5q0 76 -50 128t-124 52q-84 0 -152 -67.5t-68 -162.5q0 -76 50 -128t124 -52zM276 695h39v-12q0 -36 22 -57t63 -21
q37 0 63.5 23t32.5 67h41q-12 -61 -51.5 -95.5t-90.5 -34.5q-54 0 -86.5 31t-32.5 84v15z" />
    <glyph glyph-name="Ohungarumlaut" unicode="&#x150;" horiz-adv-x="830" 
d="M528 710q137 0 227 -93t90 -227q0 -109 -57 -202t-148 -145.5t-192 -52.5q-137 0 -227 93t-90 227q0 109 57 202t148 145.5t192 52.5zM520 660q-134 0 -236.5 -100.5t-102.5 -246.5q0 -116 77 -194.5t198 -78.5q133 0 236 101.5t103 245.5q0 116 -77 194.5t-198 78.5z
M450 795l102 130h55l-117 -130h-40zM595 795l102 130h55l-117 -130h-40z" />
    <glyph glyph-name="ohungarumlaut" unicode="&#x151;" 
d="M367 490q91 0 152 -64.5t61 -156.5q0 -115 -83.5 -197t-187.5 -82q-91 0 -152 64.5t-61 156.5q0 115 83.5 197t187.5 82zM315 35q84 0 152 67.5t68 162.5q0 76 -50 128t-124 52q-84 0 -152 -67.5t-68 -162.5q0 -76 50 -128t124 -52zM300 565l102 130h55l-117 -130h-40z
M445 565l102 130h55l-117 -130h-40z" />
    <glyph glyph-name="OE" unicode="&#x152;" horiz-adv-x="990" 
d="M451 50h80l128 600h-137q-140 0 -240.5 -95.5t-100.5 -237.5q0 -115 79.5 -191t190.5 -76zM581 50h380l-10 -50h-500q-134 0 -226.5 88.5t-92.5 224.5q0 161 117.5 274t278.5 113h561l-10 -50h-370l-56 -260h290l-10 -50h-290z" />
    <glyph glyph-name="oe" unicode="&#x153;" horiz-adv-x="935" 
d="M547 220v-6q0 -76 45 -127.5t116 -51.5q59 0 105 35q22 14 39 35l28 -34q-22 -24 -48 -41q-62 -40 -131 -40q-70 0 -118.5 39.5t-69.5 105.5q-36 -64 -97 -104.5t-123 -40.5q-82 0 -139.5 63t-57.5 156q0 115 82 198t178 83q90 0 145 -75q24 -35 34 -75q30 64 92.5 107
t126.5 43q82 0 133.5 -57.5t51.5 -150.5q0 -10 -3 -43l-3 -19h-386zM554 265h341v12q0 74 -40 121t-104 47q-61 0 -122 -52.5t-75 -127.5zM294 35q76 0 143 68.5t67 163.5q0 74 -45 126t-108 52q-76 0 -143 -68.5t-67 -163.5q0 -75 45 -126.5t108 -51.5z" />
    <glyph glyph-name="Racute" unicode="&#x154;" horiz-adv-x="660" 
d="M110 0l148 700h252q80 0 135 -51.5t55 -130.5q0 -124 -100 -187q-44 -29 -99 -39l104 -292h-52l-104 290h-228l-61 -290h-50zM232 340h242q75 0 125.5 49.5t50.5 125.5q0 59 -42 97t-103 38h-207zM460 795l102 130h55l-117 -130h-40z" />
    <glyph glyph-name="racute" unicode="&#x155;" horiz-adv-x="340" 
d="M85 0l102 480h45l-14 -68q19 22 43 39q57 39 122 39h41l-10 -45h-45q-62 0 -113 -44.5t-66 -120.5l-60 -280h-45zM295 565l102 130h55l-117 -130h-40z" />
    <glyph glyph-name="Rcommaaccent" unicode="&#x156;" horiz-adv-x="660" 
d="M110 0l148 700h252q80 0 135 -51.5t55 -130.5q0 -124 -100 -187q-44 -29 -99 -39l104 -292h-52l-104 290h-228l-61 -290h-50zM232 340h242q75 0 125.5 49.5t50.5 125.5q0 59 -42 97t-103 38h-207zM265 -215l72 135h50l-88 -135h-34z" />
    <glyph glyph-name="rcommaaccent" unicode="&#x157;" horiz-adv-x="340" 
d="M85 0l102 480h45l-14 -68q19 22 43 39q57 39 122 39h41l-10 -45h-45q-62 0 -113 -44.5t-66 -120.5l-60 -280h-45zM-5 -215l72 135h50l-88 -135h-34z" />
    <glyph glyph-name="Rcaron" unicode="&#x158;" horiz-adv-x="660" 
d="M110 0l148 700h252q80 0 135 -51.5t55 -130.5q0 -124 -100 -187q-44 -29 -99 -39l104 -292h-52l-104 290h-228l-61 -290h-50zM232 340h242q75 0 125.5 49.5t50.5 125.5q0 59 -42 97t-103 38h-207zM460 795l-78 130h41l64 -100l106 100h49l-132 -130h-50z" />
    <glyph glyph-name="rcaron" unicode="&#x159;" horiz-adv-x="340" 
d="M85 0l102 480h45l-14 -68q19 22 43 39q57 39 122 39h41l-10 -45h-45q-62 0 -113 -44.5t-66 -120.5l-60 -280h-45zM290 565l-78 130h41l64 -100l106 100h49l-132 -130h-50z" />
    <glyph glyph-name="Sacute" unicode="&#x15a;" horiz-adv-x="560" 
d="M75 120l41 32q16 -31 44 -56q64 -56 164 -56q77 0 126.5 42.5t49.5 109.5q0 41 -33 72t-80 51.5t-94.5 43t-80.5 60t-33 87.5q0 84 65.5 144t164.5 60q92 0 162 -54q29 -23 48 -53l-43 -32q-13 24 -39 44q-55 45 -137 45q-74 0 -122 -41t-48 -102q0 -41 33 -72t80 -52
t94 -43.5t80 -60t33 -88.5q0 -90 -66.5 -150.5t-168.5 -60.5q-115 0 -188 65q-33 29 -52 65zM415 795l102 130h55l-117 -130h-40z" />
    <glyph glyph-name="sacute" unicode="&#x15b;" horiz-adv-x="430" 
d="M59 89l42 31q14 -26 32 -43q46 -42 105 -42q54 0 90 29.5t36 72.5q0 32 -35.5 56.5t-78.5 39.5t-78.5 45.5t-35.5 72.5q0 53 48 96t115 43q66 0 117 -43q23 -20 36 -43l-42 -31q-9 19 -26 36q-36 36 -92 36q-47 0 -78.5 -26.5t-31.5 -60.5q0 -25 23.5 -44.5t57 -34
t67 -30.5t57 -43t23.5 -62q0 -64 -50.5 -109t-124.5 -45q-81 0 -136 49q-26 23 -40 50zM300 565l102 130h55l-117 -130h-40z" />
    <glyph glyph-name="Scircumflex" unicode="&#x15c;" horiz-adv-x="560" 
d="M75 120l41 32q16 -31 44 -56q64 -56 164 -56q77 0 126.5 42.5t49.5 109.5q0 41 -33 72t-80 51.5t-94.5 43t-80.5 60t-33 87.5q0 84 65.5 144t164.5 60q92 0 162 -54q29 -23 48 -53l-43 -32q-13 24 -39 44q-55 45 -137 45q-74 0 -122 -41t-48 -102q0 -41 33 -72t80 -52
t94 -43.5t80 -60t33 -88.5q0 -90 -66.5 -150.5t-168.5 -60.5q-115 0 -188 65q-33 29 -52 65zM306 795l132 130h50l78 -130h-41l-64 100l-106 -100h-49z" />
    <glyph glyph-name="scircumflex" unicode="&#x15d;" horiz-adv-x="430" 
d="M59 89l42 31q14 -26 32 -43q46 -42 105 -42q54 0 90 29.5t36 72.5q0 32 -35.5 56.5t-78.5 39.5t-78.5 45.5t-35.5 72.5q0 53 48 96t115 43q66 0 117 -43q23 -20 36 -43l-42 -31q-9 19 -26 36q-36 36 -92 36q-47 0 -78.5 -26.5t-31.5 -60.5q0 -25 23.5 -44.5t57 -34
t67 -30.5t57 -43t23.5 -62q0 -64 -50.5 -109t-124.5 -45q-81 0 -136 49q-26 23 -40 50zM190 565l132 130h50l78 -130h-41l-64 100l-106 -100h-49z" />
    <glyph glyph-name="Scedilla" unicode="&#x15e;" horiz-adv-x="560" 
d="M181 -164l21 27q6 -8 18 -17q24 -16 49 -16q24 0 39.5 13.5t15.5 33.5q0 16 -11 26.5t-27 10.5q-15 0 -24 -4l-8 -4l-19 25l43 61q-97 10 -159 70q-26 23 -44 58l41 32q16 -31 44 -56q64 -56 164 -56q77 0 126.5 42.5t49.5 109.5q0 41 -33 72t-80 51.5t-94.5 43t-80.5 60
t-33 87.5q0 84 65.5 144t164.5 60q92 0 162 -54q29 -23 48 -53l-43 -32q-13 24 -39 44q-55 45 -137 45q-74 0 -122 -41t-48 -102q0 -41 33 -72t80 -52t94 -43.5t80 -60t33 -88.5q0 -90 -66.5 -150.5t-168.5 -60.5h-3l-34 -47l2 1q2 0 5.5 0.5t8.5 0.5q30 0 47.5 -17.5
t17.5 -46.5q0 -33 -26 -57t-66 -24q-32 0 -62 18q-13 8 -24 18z" />
    <glyph glyph-name="scedilla" unicode="&#x15f;" horiz-adv-x="430" 
d="M113 -164l21 27q6 -8 18 -17q24 -16 49 -16q24 0 39.5 13.5t15.5 33.5q0 16 -11 26.5t-27 10.5q-15 0 -24 -4l-8 -4l-19 25l43 60q-67 6 -116 53q-22 20 -35 45l42 31q14 -26 32 -43q46 -42 105 -42q54 0 90 29.5t36 72.5q0 32 -35.5 56.5t-78.5 39.5t-78.5 45.5
t-35.5 72.5q0 53 48 96t115 43q66 0 117 -43q23 -20 36 -43l-42 -31q-9 19 -26 36q-36 36 -92 36q-47 0 -78.5 -26.5t-31.5 -60.5q0 -25 23.5 -44.5t57 -34t67 -30.5t57 -43t23.5 -62q0 -62 -48.5 -107t-117.5 -47l-34 -47l2 1q2 0 5.5 0.5t8.5 0.5q30 0 47.5 -17.5
t17.5 -46.5q0 -33 -26 -57t-66 -24q-32 0 -62 18q-13 8 -24 18z" />
    <glyph glyph-name="Scaron" unicode="&#x160;" horiz-adv-x="560" 
d="M75 120l41 32q16 -31 44 -56q64 -56 164 -56q77 0 126.5 42.5t49.5 109.5q0 41 -33 72t-80 51.5t-94.5 43t-80.5 60t-33 87.5q0 84 65.5 144t164.5 60q92 0 162 -54q29 -23 48 -53l-43 -32q-13 24 -39 44q-55 45 -137 45q-74 0 -122 -41t-48 -102q0 -41 33 -72t80 -52
t94 -43.5t80 -60t33 -88.5q0 -90 -66.5 -150.5t-168.5 -60.5q-115 0 -188 65q-33 29 -52 65zM415 795l-78 130h41l64 -100l106 100h49l-132 -130h-50z" />
    <glyph glyph-name="scaron" unicode="&#x161;" horiz-adv-x="430" 
d="M59 89l42 31q14 -26 32 -43q46 -42 105 -42q54 0 90 29.5t36 72.5q0 32 -35.5 56.5t-78.5 39.5t-78.5 45.5t-35.5 72.5q0 53 48 96t115 43q66 0 117 -43q23 -20 36 -43l-42 -31q-9 19 -26 36q-36 36 -92 36q-47 0 -78.5 -26.5t-31.5 -60.5q0 -25 23.5 -44.5t57 -34
t67 -30.5t57 -43t23.5 -62q0 -64 -50.5 -109t-124.5 -45q-81 0 -136 49q-26 23 -40 50zM295 565l-78 130h41l64 -100l106 100h49l-132 -130h-50z" />
    <glyph glyph-name="uni0162" unicode="&#x162;" horiz-adv-x="545" 
d="M152 -164l21 27q6 -8 18 -17q24 -16 49 -16q24 0 39.5 13.5t15.5 33.5q0 16 -11 26.5t-27 10.5q-15 0 -24 -4l-8 -4l-19 25l49 69h-15l138 650h-230l10 50h510l-10 -50h-230l-138 -650l-41 -57l2 1q2 0 5.5 0.5t8.5 0.5q30 0 47.5 -17.5t17.5 -46.5q0 -33 -26 -57
t-66 -24q-32 0 -62 18q-14 8 -24 18z" />
    <glyph glyph-name="uni0163" unicode="&#x163;" horiz-adv-x="350" 
d="M107 -164l21 27q6 -8 18 -17q24 -16 49 -16q24 0 39.5 13.5t15.5 33.5q0 16 -11 26.5t-27 10.5q-15 0 -24 -4l-8 -4l-19 25l46 66q-41 12 -56 47.5t-5 80.5l66 310h-95l10 45h65q15 0 27 11t16 29l26 120h40l-34 -160h110l-10 -45h-110l-67 -315q-7 -37 10 -61t62 -24
q22 0 37 4q6 1 16 5l-10 -45q-10 -4 -16 -5q-15 -4 -37 -4h-14l-34 -47l2 1q2 0 5.5 0.5t8.5 0.5q30 0 47.5 -17.5t17.5 -46.5q0 -33 -26 -57t-66 -24q-32 0 -62 18q-13 8 -24 18z" />
    <glyph glyph-name="Tcaron" unicode="&#x164;" horiz-adv-x="545" 
d="M240 0l138 650h-230l10 50h510l-10 -50h-230l-138 -650h-50zM390 795l-78 130h41l64 -100l106 100h49l-132 -130h-50z" />
    <glyph glyph-name="tcaron" unicode="&#x165;" horiz-adv-x="370" 
d="M146 125l66 310h-95l10 45h65q15 0 27 11t16 29l26 120h40l-34 -160h110l-10 -45h-110l-67 -315q-7 -37 10 -61t62 -24q22 0 37 4q6 1 16 5l-10 -45q-10 -4 -16 -5q-15 -4 -37 -4q-66 0 -91.5 39.5t-14.5 95.5zM420 565l73 135h50l-88 -135h-35z" />
    <glyph glyph-name="Tbar" unicode="&#x166;" horiz-adv-x="545" 
d="M240 0l81 385h-165l10 45h165l47 220h-230l10 50h510l-10 -50h-230l-47 -220h165l-10 -45h-165l-81 -385h-50z" />
    <glyph glyph-name="tbar" unicode="&#x167;" horiz-adv-x="350" 
d="M146 125l25 120h-94l9 45h95l31 145h-95l10 45h65q15 0 27 11t16 29l26 120h40l-34 -160h110l-10 -45h-110l-31 -145h110l-9 -45h-110l-27 -125q-7 -37 10 -61t62 -24q22 0 37 4q6 1 16 5l-10 -45q-10 -4 -16 -5q-15 -4 -37 -4q-66 0 -91.5 39.5t-14.5 95.5z" />
    <glyph glyph-name="Umacron" unicode="&#x16a;" horiz-adv-x="750" 
d="M158 299l85 401h50l-86 -406q-22 -107 35 -180.5t163 -73.5q88 0 155.5 57t86.5 150l96 453h50l-97 -457q-24 -111 -108.5 -182t-190.5 -71q-127 0 -196.5 92.5t-42.5 216.5zM406 840l8 40h270l-8 -40h-270z" />
    <glyph glyph-name="umacron" unicode="&#x16b;" horiz-adv-x="575" 
d="M128 215l56 265h45l-58 -269q-16 -73 22.5 -124.5t111.5 -51.5q59 0 111 45t68 120l60 280h45l-102 -480h-45l14 68q-19 -23 -43 -39q-55 -39 -121 -39q-81 0 -133 64.5t-31 160.5zM282 620l8 40h270l-8 -40h-270z" />
    <glyph glyph-name="Ubreve" unicode="&#x16c;" horiz-adv-x="750" 
d="M158 299l85 401h50l-86 -406q-22 -107 35 -180.5t163 -73.5q88 0 155.5 57t86.5 150l96 453h50l-97 -457q-24 -111 -108.5 -182t-190.5 -71q-127 0 -196.5 92.5t-42.5 216.5zM406 925h39v-12q0 -36 22 -57t63 -21q37 0 63.5 23t32.5 67h41q-12 -61 -51.5 -95.5
t-90.5 -34.5q-54 0 -86.5 31t-32.5 84v15z" />
    <glyph glyph-name="ubreve" unicode="&#x16d;" horiz-adv-x="575" 
d="M128 215l56 265h45l-58 -269q-16 -73 22.5 -124.5t111.5 -51.5q59 0 111 45t68 120l60 280h45l-102 -480h-45l14 68q-19 -23 -43 -39q-55 -39 -121 -39q-81 0 -133 64.5t-31 160.5zM291 695h39v-12q0 -36 22 -57t63 -21q37 0 63.5 23t32.5 67h41q-12 -61 -51.5 -95.5
t-90.5 -34.5q-54 0 -86.5 31t-32.5 84v15z" />
    <glyph glyph-name="Uring" unicode="&#x16e;" horiz-adv-x="750" 
d="M158 299l85 401h50l-86 -406q-22 -107 35 -180.5t163 -73.5q88 0 155.5 57t86.5 150l96 453h50l-97 -457q-24 -111 -108.5 -182t-190.5 -71q-127 0 -196.5 92.5t-42.5 216.5zM529 765q-37 0 -60.5 25.5t-23.5 59.5q0 45 30.5 75t75.5 30q37 0 60.5 -25.5t23.5 -59.5
q0 -45 -30.5 -75t-75.5 -30zM484 853q0 -21 13.5 -34.5t38.5 -13.5q27 0 43.5 17.5t16.5 44.5q0 21 -13.5 34.5t-38.5 13.5q-27 0 -43.5 -17.5t-16.5 -44.5z" />
    <glyph glyph-name="uring" unicode="&#x16f;" horiz-adv-x="575" 
d="M128 215l56 265h45l-58 -269q-16 -73 22.5 -124.5t111.5 -51.5q59 0 111 45t68 120l60 280h45l-102 -480h-45l14 68q-19 -23 -43 -39q-55 -39 -121 -39q-81 0 -133 64.5t-31 160.5zM390 540q-37 0 -60.5 25.5t-23.5 59.5q0 45 30.5 75t75.5 30q37 0 60.5 -25.5
t23.5 -59.5q0 -45 -30.5 -75t-75.5 -30zM345 628q0 -21 13.5 -34.5t38.5 -13.5q27 0 43.5 17.5t16.5 44.5q0 21 -13.5 34.5t-38.5 13.5q-27 0 -43.5 -17.5t-16.5 -44.5z" />
    <glyph glyph-name="Uhungarumlaut" unicode="&#x170;" horiz-adv-x="750" 
d="M158 299l85 401h50l-86 -406q-22 -107 35 -180.5t163 -73.5q88 0 155.5 57t86.5 150l96 453h50l-97 -457q-24 -111 -108.5 -182t-190.5 -71q-127 0 -196.5 92.5t-42.5 216.5zM425 795l102 130h55l-117 -130h-40zM570 795l102 130h55l-117 -130h-40z" />
    <glyph glyph-name="uhungarumlaut" unicode="&#x171;" horiz-adv-x="575" 
d="M128 215l56 265h45l-58 -269q-16 -73 22.5 -124.5t111.5 -51.5q59 0 111 45t68 120l60 280h45l-102 -480h-45l14 68q-19 -23 -43 -39q-55 -39 -121 -39q-81 0 -133 64.5t-31 160.5zM300 565l102 130h55l-117 -130h-40zM445 565l102 130h55l-117 -130h-40z" />
    <glyph glyph-name="Uogonek" unicode="&#x172;" horiz-adv-x="750" 
d="M451 -156l-7 -34q-10 -4 -16 -5q-18 -5 -37 -5q-38 0 -60 21t-22 54q0 60 73 115q-122 8 -186.5 98t-38.5 211l85 401h50l-86 -406q-22 -107 35 -180.5t163 -73.5q88 0 155.5 57t86.5 150l96 453h50l-97 -457q-22 -104 -98.5 -174t-174.5 -78q-77 -60 -77 -113
q0 -43 55 -43q20 0 35 4q7 1 16 5z" />
    <glyph glyph-name="uogonek" unicode="&#x173;" horiz-adv-x="575" 
d="M496 -156l-7 -34q-10 -4 -16 -5q-18 -5 -37 -5q-38 0 -60 21t-22 54q0 47 44 91q20 20 44 34l14 68q-19 -23 -43 -39q-55 -39 -121 -39q-81 0 -133 64.5t-31 160.5l56 265h45l-58 -269q-16 -73 22.5 -124.5t111.5 -51.5q59 0 111 45t68 120l60 280h45l-102 -480h-8
q-25 -20 -45 -39q-44 -44 -44 -83q0 -43 55 -43q20 0 35 4q7 1 16 5z" />
    <glyph glyph-name="Wcircumflex" unicode="&#x174;" horiz-adv-x="1000" 
d="M235 0l-77 700h52l64 -620l331 620h50l69 -620l326 620h58l-373 -700h-50l-69 620l-331 -620h-50zM505 795l132 130h50l78 -130h-41l-64 100l-106 -100h-49z" />
    <glyph glyph-name="wcircumflex" unicode="&#x175;" horiz-adv-x="710" 
d="M170 0l-58 480h48l48 -405l217 405h40l42 -410l223 410h52l-262 -480h-45l-44 405l-216 -405h-45zM325 565l132 130h50l78 -130h-41l-64 100l-106 -100h-49z" />
    <glyph glyph-name="Ycircumflex" unicode="&#x176;" horiz-adv-x="600" 
d="M260 0l52 245l-164 455h55l140 -400l310 400h65l-356 -455l-52 -245h-50zM305 800l132 130h50l78 -130h-41l-64 100l-106 -100h-49z" />
    <glyph glyph-name="ycircumflex" unicode="&#x177;" horiz-adv-x="480" 
d="M-8 -198l11 45l14 -6q18 -6 33 -6q29 0 51.5 17.5t46.5 57.5l56 92l-92 478h48l80 -420l260 420h52l-352 -570q-40 -65 -74 -92.5t-79 -27.5q-18 0 -40 6zM210 565l132 130h50l78 -130h-41l-64 100l-106 -100h-49z" />
    <glyph glyph-name="Ydieresis" unicode="&#x178;" horiz-adv-x="600" 
d="M260 0l52 245l-164 455h55l140 -400l310 400h65l-356 -455l-52 -245h-50zM315 856q0 17 11.5 28t27.5 11q14 0 23 -9t9 -22q0 -17 -11.5 -28t-27.5 -11q-14 0 -23 9t-9 22zM490 856q0 17 11.5 28t27.5 11q14 0 23 -9t9 -22q0 -17 -11.5 -28t-27.5 -11q-14 0 -23 9t-9 22z
" />
    <glyph glyph-name="Zacute" unicode="&#x179;" horiz-adv-x="575" 
d="M35 0l10 50l548 600h-405l10 50h470l-10 -50l-548 -600h430l-10 -50h-495zM410 795l102 130h55l-117 -130h-40z" />
    <glyph glyph-name="zacute" unicode="&#x17a;" horiz-adv-x="435" 
d="M25 0l9 45l388 390h-295l10 45h355l-10 -45l-388 -390h315l-9 -45h-375zM290 565l102 130h55l-117 -130h-40z" />
    <glyph glyph-name="Zdotaccent" unicode="&#x17b;" horiz-adv-x="575" 
d="M35 0l10 50l548 600h-405l10 50h470l-10 -50l-548 -600h430l-10 -50h-495zM445 895q14 0 23 -9t9 -22q0 -17 -11.5 -28t-27.5 -11q-14 0 -23 9t-9 22q0 17 11.5 28t27.5 11z" />
    <glyph glyph-name="zdotaccent" unicode="&#x17c;" horiz-adv-x="435" 
d="M25 0l9 45l388 390h-295l10 45h355l-10 -45l-388 -390h315l-9 -45h-375zM345 665q14 0 23 -9t9 -22q0 -17 -11.5 -28t-27.5 -11q-14 0 -23 9t-9 22q0 17 11.5 28t27.5 11z" />
    <glyph glyph-name="Zcaron" unicode="&#x17d;" horiz-adv-x="575" 
d="M35 0l10 50l548 600h-405l10 50h470l-10 -50l-548 -600h430l-10 -50h-495zM405 790l-78 130h41l64 -100l106 100h49l-132 -130h-50z" />
    <glyph glyph-name="zcaron" unicode="&#x17e;" horiz-adv-x="435" 
d="M25 0l9 45l388 390h-295l10 45h355l-10 -45l-388 -390h315l-9 -45h-375zM295 565l-78 130h41l64 -100l106 100h49l-132 -130h-50z" />
    <glyph glyph-name="uni018F" unicode="&#x18f;" horiz-adv-x="775" 
d="M127 350h610l2 16q2 18 2 35q0 116 -74 187.5t-189 71.5q-79 0 -159 -41q-35 -19 -60 -40l-28 34q31 28 70 48q92 49 185 49q137 0 221 -87.5t84 -220.5q0 -88 -33 -166t-86 -131t-120.5 -84t-136.5 -31q-127 0 -209 87t-82 220q0 26 1 37zM725 300h-551v-7
q0 -109 67.5 -181t181.5 -72q113 0 195 75t107 185z" />
    <glyph glyph-name="florin" unicode="&#x192;" horiz-adv-x="360" 
d="M-77 -197l5 44l20 -9q24 -8 49 -8q64 0 88 82l126 433h-85l4 45h95l56 195q19 65 51 95t83 30q18 0 52 -9l22 -9l-4 -45l-21 9q-29 9 -49 9q-65 0 -90 -85l-55 -190h115l-4 -45h-125l-126 -433q-19 -65 -50 -96t-84 -31q-29 0 -52 9z" />
    <glyph glyph-name="Aringacute" unicode="&#x1fa;" horiz-adv-x="670" 
d="M35 0l420 671q-19 9 -31 30t-12 44q0 45 30.5 75t75.5 30q37 0 60.5 -25.5t23.5 -59.5q0 -36 -20 -63t-52 -37l135 -665h-51l-42 205h-350l-128 -205h-59zM253 255h310l-76 375zM451 748q0 -21 13.5 -34.5t38.5 -13.5q27 0 43.5 17.5t16.5 44.5q0 21 -13.5 34.5
t-38.5 13.5q-27 0 -43.5 -17.5t-16.5 -44.5zM512 860l102 130h55l-117 -130h-40z" />
    <glyph glyph-name="aringacute" unicode="&#x1fb;" horiz-adv-x="505" 
d="M386 0l15 72q-22 -26 -44 -41q-57 -41 -124 -41q-70 0 -112.5 37.5t-42.5 90.5q0 55 39 95t119 54l213 33q8 65 -24.5 105t-97.5 40q-52 0 -97 -28q-23 -13 -38 -28l-24 33q17 17 46 34q58 34 118 34q87 0 131.5 -59t26.5 -150l-59 -281h-45zM428 196l12 59l-192 -31
q-124 -20 -124 -101q0 -37 30.5 -62.5t85.5 -25.5q66 0 120.5 46t67.5 115zM360 505q-37 0 -60.5 25.5t-23.5 59.5q0 45 30.5 75t75.5 30q37 0 60.5 -25.5t23.5 -59.5q0 -45 -30.5 -75t-75.5 -30zM315 593q0 -21 13.5 -34.5t38.5 -13.5q27 0 43.5 17.5t16.5 44.5
q0 21 -13.5 34.5t-38.5 13.5q-27 0 -43.5 -17.5t-16.5 -44.5zM376 710l102 130h55l-117 -130h-40z" />
    <glyph glyph-name="AEacute" unicode="&#x1fc;" horiz-adv-x="935" 
d="M-30 0l538 700h525l-10 -50h-370l-56 -260h290l-10 -50h-290l-62 -290h380l-10 -50h-430l45 215h-315l-165 -215h-60zM231 265h290l82 385h-74zM650 795l102 130h55l-117 -130h-40z" />
    <glyph glyph-name="aeacute" unicode="&#x1fd;" horiz-adv-x="873" 
d="M240 270h205l4 16q14 69 -20 114t-100 45q-52 0 -97 -28q-23 -13 -38 -28l-24 33q17 17 46 34q58 34 118 34q62 0 103.5 -30.5t54.5 -82.5q38 53 91 83t107 30q82 0 133.5 -57.5t51.5 -150.5q0 -8 -3 -41l-2 -16h-387v-11q0 -76 45 -127.5t116 -51.5q59 0 105 35
q22 14 39 35l28 -34q-22 -24 -48 -41q-62 -40 -131 -40q-70 0 -119.5 39t-68.5 106q-10 -21 -25 -42t-41 -46.5t-64.5 -41t-83.5 -15.5q-72 0 -114.5 36.5t-42.5 92.5q0 64 47.5 107.5t114.5 43.5zM491 270h340v7q0 74 -40 121t-104 47q-61 0 -121.5 -51.5t-74.5 -123.5z
M427 192l7 33h-198q-49 0 -81.5 -28t-32.5 -72q0 -38 31.5 -64t85.5 -26q67 0 120.5 44.5t67.5 112.5zM502 565l102 130h55l-117 -130h-40z" />
    <glyph glyph-name="Oslashacute" unicode="&#x1fe;" horiz-adv-x="830" 
d="M113 -15l-30 40l107 95q-59 85 -59 190q0 109 57 202t148 145.5t192 52.5q137 0 226 -91l109 96l30 -40l-107 -95q59 -80 59 -190q0 -109 -57 -202t-148 -145.5t-192 -52.5q-135 0 -226 91zM229 154l486 430q-79 76 -195 76q-134 0 -236.5 -100.5t-102.5 -246.5
q0 -91 48 -159zM747 546l-486 -430q78 -76 195 -76q133 0 236 101.5t103 245.5q0 89 -48 159zM519 795l102 130h55l-117 -130h-40z" />
    <glyph glyph-name="oslashacute" unicode="&#x1ff;" 
d="M85 -20l-25 34l74 68q-38 57 -38 129q0 115 83.5 197t187.5 82q88 0 148 -60l76 70l25 -34l-74 -68q38 -58 38 -129q0 -115 -83.5 -197t-187.5 -82q-85 0 -148 60zM506 366l-310 -284q50 -47 119 -47q84 0 152 67.5t68 162.5q0 57 -29 101zM170 114l310 284
q-50 47 -119 47q-84 0 -152 -67.5t-68 -162.5q0 -58 29 -101zM367 565l102 130h55l-117 -130h-40z" />
    <glyph glyph-name="Scommaaccent" unicode="&#x218;" horiz-adv-x="560" 
d="M75 120l41 32q16 -31 44 -56q64 -56 164 -56q77 0 126.5 42.5t49.5 109.5q0 41 -33 72t-80 51.5t-94.5 43t-80.5 60t-33 87.5q0 84 65.5 144t164.5 60q92 0 162 -54q29 -23 48 -53l-43 -32q-13 24 -39 44q-55 45 -137 45q-74 0 -122 -41t-48 -102q0 -41 33 -72t80 -52
t94 -43.5t80 -60t33 -88.5q0 -90 -66.5 -150.5t-168.5 -60.5q-115 0 -188 65q-33 29 -52 65zM199 -215l72 135h50l-88 -135h-34z" />
    <glyph glyph-name="scommaaccent" unicode="&#x219;" horiz-adv-x="430" 
d="M59 89l42 31q14 -26 32 -43q46 -42 105 -42q54 0 90 29.5t36 72.5q0 32 -35.5 56.5t-78.5 39.5t-78.5 45.5t-35.5 72.5q0 53 48 96t115 43q66 0 117 -43q23 -20 36 -43l-42 -31q-9 19 -26 36q-36 36 -92 36q-47 0 -78.5 -26.5t-31.5 -60.5q0 -25 23.5 -44.5t57 -34
t67 -30.5t57 -43t23.5 -62q0 -64 -50.5 -109t-124.5 -45q-81 0 -136 49q-26 23 -40 50zM125 -215l72 135h50l-88 -135h-34z" />
    <glyph glyph-name="uni021A" unicode="&#x21a;" horiz-adv-x="545" 
d="M240 0l138 650h-230l10 50h510l-10 -50h-230l-138 -650h-50zM150 -215l72 135h50l-88 -135h-34z" />
    <glyph glyph-name="uni021B" unicode="&#x21b;" horiz-adv-x="350" 
d="M146 125l66 310h-95l10 45h65q15 0 27 11t16 29l26 120h40l-34 -160h110l-10 -45h-110l-67 -315q-7 -37 10 -61t62 -24q22 0 37 4q6 1 16 5l-10 -45q-10 -4 -16 -5q-15 -4 -37 -4q-66 0 -91.5 39.5t-14.5 95.5zM110 -215l72 135h50l-88 -135h-34z" />
    <glyph glyph-name="uni0232" unicode="&#x232;" horiz-adv-x="600" 
d="M260 0l52 245l-164 455h55l140 -400l310 400h65l-356 -455l-52 -245h-50zM302 840l8 40h270l-8 -40h-270z" />
    <glyph glyph-name="uni0233" unicode="&#x233;" horiz-adv-x="480" 
d="M-8 -198l11 45l14 -6q18 -6 33 -6q29 0 51.5 17.5t46.5 57.5l56 92l-92 478h48l80 -420l260 420h52l-352 -570q-40 -65 -74 -92.5t-79 -27.5q-18 0 -40 6zM217 620l8 40h270l-8 -40h-270z" />
    <glyph glyph-name="uni0244" unicode="&#x244;" horiz-adv-x="780" 
d="M257 390l-21 -102q-23 -110 33.5 -179t152.5 -69q88 0 151.5 56t83.5 152l30 142h-430zM187 293l20 97h-105l10 45h105l56 265h50l-56 -265h430l56 265h50l-56 -265h105l-10 -45h-105l-30 -142q-25 -117 -106 -187.5t-185 -70.5q-122 0 -188.5 89t-40.5 214z" />
    <glyph glyph-name="uni0259" unicode="&#x259;" horiz-adv-x="550" 
d="M100 260h406v6q0 76 -48 127.5t-123 51.5q-53 0 -109 -35q-25 -17 -41 -34l-27 33q21 21 51 40q66 41 133 41q89 0 148.5 -63.5t59.5 -156.5q0 -118 -80.5 -199t-180.5 -81q-85 0 -140 57.5t-55 150.5q0 25 3 43zM499 215h-361v-12q0 -75 41.5 -121.5t112.5 -46.5
q68 0 130.5 52t76.5 128z" />
    <glyph glyph-name="uni0289" unicode="&#x289;" horiz-adv-x="595" 
d="M200 260l-11 -50q-16 -72 20.5 -123.5t100.5 -51.5q60 0 112.5 44.5t67.5 113.5l15 67h-305zM75 260l9 45h80l38 175h45l-38 -175h305l38 175h45l-38 -175h80l-9 -45h-80l-55 -260h-45l15 69q-20 -23 -44 -40q-55 -39 -117 -39q-87 0 -133 68t-27 152l11 50h-80z" />
    <glyph glyph-name="uni02BC" unicode="&#x2bc;" horiz-adv-x="155" 
d="M150 565l73 135h50l-88 -135h-35z" />
    <glyph glyph-name="circumflex" unicode="&#x2c6;" horiz-adv-x="320" 
d="M150 565l132 130h50l78 -130h-41l-64 100l-106 -100h-49z" />
    <glyph glyph-name="caron" unicode="&#x2c7;" horiz-adv-x="320" 
d="M255 565l-78 130h41l64 -100l106 100h49l-132 -130h-50z" />
    <glyph glyph-name="breve" unicode="&#x2d8;" horiz-adv-x="320" 
d="M161 695h39v-12q0 -36 22 -57t63 -21q37 0 63.5 23t32.5 67h41q-12 -61 -51.5 -95.5t-90.5 -34.5q-54 0 -86.5 31t-32.5 84v15z" />
    <glyph glyph-name="dotaccent" unicode="&#x2d9;" horiz-adv-x="130" 
d="M200 675q14 0 23 -9t9 -22q0 -17 -11.5 -28t-27.5 -11q-14 0 -23 9t-9 22q0 17 11.5 28t27.5 11z" />
    <glyph glyph-name="ring" unicode="&#x2da;" horiz-adv-x="250" 
d="M230 505q-37 0 -60.5 25.5t-23.5 59.5q0 45 30.5 75t75.5 30q37 0 60.5 -25.5t23.5 -59.5q0 -45 -30.5 -75t-75.5 -30zM185 593q0 -21 13.5 -34.5t38.5 -13.5q27 0 43.5 17.5t16.5 44.5q0 21 -13.5 34.5t-38.5 13.5q-27 0 -43.5 -17.5t-16.5 -44.5z" />
    <glyph glyph-name="ogonek" unicode="&#x2db;" horiz-adv-x="210" 
d="M137 -156l-7 -34q-10 -4 -16 -5q-18 -5 -37 -5q-38 0 -60 21t-22 54q0 47 44 91q20 20 44 34h37q-26 -20 -45 -39q-44 -44 -44 -83q0 -43 55 -43q20 0 35 4q7 1 16 5z" />
    <glyph glyph-name="tilde" unicode="&#x2dc;" horiz-adv-x="345" 
d="M192 575h-40q24 115 99 115q27 0 46.5 -19t34.5 -37.5t33 -18.5q40 0 56 75h40q-24 -115 -99 -115q-18 0 -32 7.5t-23.5 18.5t-17.5 22.5t-18.5 19t-22.5 7.5q-17 0 -32.5 -18t-23.5 -57z" />
    <glyph glyph-name="hungarumlaut" unicode="&#x2dd;" horiz-adv-x="335" 
d="M150 565l102 130h55l-117 -130h-40zM295 565l102 130h55l-117 -130h-40z" />
    <glyph glyph-name="acutecomb" unicode="&#x301;" horiz-adv-x="0" 
d="M-234 730l102 130h55l-117 -130h-40z" />
    <glyph glyph-name="uni0302" unicode="&#x302;" horiz-adv-x="0" 
d="M-344 730l132 130h50l78 -130h-41l-64 100l-106 -100h-49z" />
    <glyph glyph-name="uni0304" unicode="&#x304;" horiz-adv-x="0" 
d="M-340 775l8 40h270l-8 -40h-270z" />
    <glyph glyph-name="uni0306" unicode="&#x306;" horiz-adv-x="0" 
d="M-336 850h39v-12q0 -36 22 -57t63 -21q37 0 63.5 23t32.5 67h41q-12 -61 -51.5 -95.5t-90.5 -34.5q-54 0 -86.5 31t-32.5 84v15z" />
    <glyph glyph-name="uni0307" unicode="&#x307;" horiz-adv-x="0" 
d="M-202 830q14 0 23 -9t9 -22q0 -17 -11.5 -28t-27.5 -11q-14 0 -23 9t-9 22q0 17 11.5 28t27.5 11z" />
    <glyph glyph-name="uni0308" unicode="&#x308;" horiz-adv-x="0" 
d="M-330 791q0 17 11.5 28t27.5 11q14 0 23 -9t9 -22q0 -17 -11.5 -28t-27.5 -11q-14 0 -23 9t-9 22zM-155 791q0 17 11.5 28t27.5 11q14 0 23 -9t9 -22q0 -17 -11.5 -28t-27.5 -11q-14 0 -23 9t-9 22z" />
    <glyph glyph-name="uni030A" unicode="&#x30a;" horiz-adv-x="0" 
d="M-212 730q-37 0 -60.5 25.5t-23.5 59.5q0 45 30.5 75t75.5 30q37 0 60.5 -25.5t23.5 -59.5q0 -45 -30.5 -75t-75.5 -30zM-257 818q0 -21 13.5 -34.5t38.5 -13.5q27 0 43.5 17.5t16.5 44.5q0 21 -13.5 34.5t-38.5 13.5q-27 0 -43.5 -17.5t-16.5 -44.5z" />
    <glyph glyph-name="uni030C" unicode="&#x30c;" horiz-adv-x="0" 
d="M-239 730l-78 130h41l64 -100l106 100h49l-132 -130h-50z" />
    <glyph glyph-name="uni0326" unicode="&#x326;" horiz-adv-x="155" 
d="M-15 -215l72 135h50l-88 -135h-34z" />
    <glyph glyph-name="Alphatonos" unicode="&#x386;" horiz-adv-x="670" 
d="M220 570l102 130h55l-117 -130h-40zM35 0l438 700h50l142 -700h-51l-42 205h-350l-128 -205h-59zM253 255h310l-76 375z" />
    <glyph glyph-name="Epsilontonos" unicode="&#x388;" horiz-adv-x="630" 
d="M70 570l102 130h55l-117 -130h-40zM110 0l148 700h470l-10 -50h-420l-56 -260h340l-10 -50h-340l-62 -290h430l-10 -50h-480z" />
    <glyph glyph-name="Etatonos" unicode="&#x389;" horiz-adv-x="745" 
d="M70 570l102 130h55l-117 -130h-40zM110 0l148 700h50l-68 -320h425l68 320h50l-148 -700h-50l70 330h-425l-70 -330h-50z" />
    <glyph glyph-name="Iotatonos" unicode="&#x38a;" horiz-adv-x="270" 
d="M70 570l102 130h55l-117 -130h-40zM110 0l148 700h50l-148 -700h-50z" />
    <glyph glyph-name="Omicrontonos" unicode="&#x38c;" horiz-adv-x="830" 
d="M110 570l102 130h55l-117 -130h-40zM528 710q137 0 227 -93t90 -227q0 -109 -57 -202t-148 -145.5t-192 -52.5q-137 0 -227 93t-90 227q0 109 57 202t148 145.5t192 52.5zM520 660q-134 0 -236.5 -100.5t-102.5 -246.5q0 -116 77 -194.5t198 -78.5q133 0 236 101.5
t103 245.5q0 116 -77 194.5t-198 78.5z" />
    <glyph glyph-name="Upsilontonos" unicode="&#x38e;" horiz-adv-x="610" 
d="M2 570l102 130h55l-117 -130h-40zM272 0l52 245l-164 455h55l140 -400l310 400h65l-356 -455l-52 -245h-50z" />
    <glyph glyph-name="Omegatonos" unicode="&#x38f;" horiz-adv-x="870" 
d="M135 0l10 50h170q-137 93 -137 265q0 165 117 280t272 115q138 0 227 -90t89 -222q0 -70 -22 -131t-58 -103t-70.5 -69.5t-69.5 -44.5h122l-10 -50h-235l12 58q113 25 197 113t84 224q0 113 -76.5 189t-197.5 76q-133 0 -232 -99.5t-99 -244.5q0 -172 155 -251l-13 -65
h-235zM145 570l102 130h55l-117 -130h-40z" />
    <glyph glyph-name="iotadieresistonos" unicode="&#x390;" horiz-adv-x="275" 
d="M195 565l102 130h55l-117 -130h-40zM147 626q0 17 11.5 28t27.5 11q14 0 23 -9t9 -22q0 -17 -11.5 -28t-27.5 -11q-14 0 -23 9t-9 22zM324 626q0 17 11.5 28t27.5 11q14 0 23 -9t9 -22q0 -17 -11.5 -28t-27.5 -11q-14 0 -23 9t-9 22zM109 130l74 350h45l-74 -352
q-9 -43 10.5 -68t64.5 -25q23 0 35 4q7 1 14 5l-10 -45q-9 -4 -16 -5q-15 -4 -36 -4q-61 0 -90 40.5t-17 99.5z" />
    <glyph glyph-name="Alpha" unicode="&#x391;" horiz-adv-x="670" 
d="M35 0l438 700h50l142 -700h-51l-42 205h-350l-128 -205h-59zM253 255h310l-76 375z" />
    <glyph glyph-name="Beta" unicode="&#x392;" horiz-adv-x="660" 
d="M243 395h235q63 0 104.5 39.5t41.5 106.5q0 51 -35.5 80t-93.5 29h-197zM170 50h250q75 0 122.5 47t47.5 119q0 57 -41 93t-109 36h-207zM110 0l148 700h248q74 0 121 -44t47 -112q0 -88 -62 -142q-28 -25 -62 -35q25 -13 45 -35q45 -47 45 -114q0 -92 -65.5 -155
t-161.5 -63h-303z" />
    <glyph glyph-name="Gamma" unicode="&#x393;" horiz-adv-x="555" 
d="M110 0l148 700h425l-10 -50h-375l-138 -650h-50z" />
    <glyph glyph-name="uni0394" unicode="&#x394;" horiz-adv-x="650" 
d="M35 0l428 700h50l132 -700h-610zM122 50h462l-108 578z" />
    <glyph glyph-name="Epsilon" unicode="&#x395;" horiz-adv-x="630" 
d="M110 0l148 700h470l-10 -50h-420l-56 -260h340l-10 -50h-340l-62 -290h430l-10 -50h-480z" />
    <glyph glyph-name="Zeta" unicode="&#x396;" horiz-adv-x="575" 
d="M35 0l10 50l548 600h-405l10 50h470l-10 -50l-548 -600h430l-10 -50h-495z" />
    <glyph glyph-name="Eta" unicode="&#x397;" horiz-adv-x="745" 
d="M110 0l148 700h50l-68 -320h425l68 320h50l-148 -700h-50l70 330h-425l-70 -330h-50z" />
    <glyph glyph-name="Theta" unicode="&#x398;" horiz-adv-x="830" 
d="M528 710q137 0 227 -93t90 -227q0 -109 -57 -202t-148 -145.5t-192 -52.5q-137 0 -227 93t-90 227q0 109 57 202t148 145.5t192 52.5zM520 660q-134 0 -236.5 -100.5t-102.5 -246.5q0 -116 77 -194.5t198 -78.5q133 0 236 101.5t103 245.5q0 116 -77 194.5t-198 78.5z
M278 325l10 50h410l-10 -50h-410z" />
    <glyph glyph-name="Iota" unicode="&#x399;" horiz-adv-x="270" 
d="M110 0l148 700h50l-148 -700h-50z" />
    <glyph glyph-name="Kappa" unicode="&#x39a;" horiz-adv-x="645" 
d="M110 0l148 700h50l-91 -430l481 430h67l-327 -292l202 -408h-55l-185 374l-198 -177l-42 -197h-50z" />
    <glyph glyph-name="Lambda" unicode="&#x39b;" horiz-adv-x="660" 
d="M35 0l433 700h50l137 -700h-49l-124 630l-390 -630h-57z" />
    <glyph glyph-name="Mu" unicode="&#x39c;" horiz-adv-x="920" 
d="M110 0l148 700h35l222 -415l398 415h45l-148 -700h-50l128 605l-385 -400l-215 400l-128 -605h-50z" />
    <glyph glyph-name="Nu" unicode="&#x39d;" horiz-adv-x="775" 
d="M110 0l148 700h40l336 -611l129 611h50l-148 -700h-40l-336 611l-129 -611h-50z" />
    <glyph glyph-name="Xi" unicode="&#x39e;" horiz-adv-x="595" 
d="M50 0l10 50h495l-10 -50h-495zM198 650l10 50h475l-10 -50h-475zM217 340l10 50h305l-10 -50h-305z" />
    <glyph glyph-name="Omicron" unicode="&#x39f;" horiz-adv-x="830" 
d="M528 710q137 0 227 -93t90 -227q0 -109 -57 -202t-148 -145.5t-192 -52.5q-137 0 -227 93t-90 227q0 109 57 202t148 145.5t192 52.5zM520 660q-134 0 -236.5 -100.5t-102.5 -246.5q0 -116 77 -194.5t198 -78.5q133 0 236 101.5t103 245.5q0 116 -77 194.5t-198 78.5z
" />
    <glyph glyph-name="Pi" unicode="&#x3a0;" horiz-adv-x="745" 
d="M110 0l148 700h525l-148 -700h-50l138 650h-425l-138 -650h-50z" />
    <glyph glyph-name="Rho" unicode="&#x3a1;" horiz-adv-x="645" 
d="M110 0l148 700h237q80 0 138 -55.5t58 -137.5q0 -98 -73 -167.5t-172 -69.5h-229l-57 -270h-50zM228 320h226q79 0 133 52.5t54 132.5q0 66 -46.5 105.5t-109.5 39.5h-187z" />
    <glyph glyph-name="Sigma" unicode="&#x3a3;" horiz-adv-x="555" 
d="M62 0l8 40l319 325l-187 295l8 40h465l-10 -50h-396l184 -292l-304 -308h388l-10 -50h-465z" />
    <glyph glyph-name="Tau" unicode="&#x3a4;" horiz-adv-x="545" 
d="M240 0l138 650h-230l10 50h510l-10 -50h-230l-138 -650h-50z" />
    <glyph glyph-name="Upsilon" unicode="&#x3a5;" horiz-adv-x="600" 
d="M260 0l52 245l-164 455h55l140 -400l310 400h65l-356 -455l-52 -245h-50z" />
    <glyph glyph-name="Phi" unicode="&#x3a6;" horiz-adv-x="830" 
d="M400 80l114 540h-30q-130 0 -219 -86t-89 -218q0 -93 59.5 -157.5t164.5 -78.5zM564 620l-114 -540h30q130 0 219 86t89 218q0 94 -59 157t-165 79zM372 -50l17 80q-122 15 -192.5 94t-70.5 189q0 154 107.5 255.5t259.5 101.5h32l17 80h50l-17 -80q121 -15 192 -94
t71 -189q0 -154 -107.5 -255.5t-259.5 -101.5h-32l-17 -80h-50z" />
    <glyph glyph-name="Chi" unicode="&#x3a7;" horiz-adv-x="610" 
d="M15 0l337 365l-169 335h55l148 -295l272 295h65l-311 -335l183 -365h-55l-161 325l-299 -325h-65z" />
    <glyph glyph-name="Psi" unicode="&#x3a8;" horiz-adv-x="800" 
d="M362 0l44 210q-91 13 -148 62t-74.5 117.5t-1.5 149.5l33 161h50l-37 -169q-23 -107 24.5 -182t164.5 -89l93 440h50l-93 -440h26q106 0 175.5 59t92.5 170l44 211h50l-46 -216q-28 -129 -113 -201.5t-208 -72.5h-32l-44 -210h-50z" />
    <glyph glyph-name="uni03A9" unicode="&#x3a9;" horiz-adv-x="830" 
d="M95 0l10 50h170q-137 93 -137 265q0 165 117 280t272 115q138 0 227 -90t89 -222q0 -70 -22 -131t-58 -103t-70.5 -69.5t-69.5 -44.5h122l-10 -50h-235l12 58q113 25 197 113t84 224q0 113 -76.5 189t-197.5 76q-133 0 -232 -99.5t-99 -244.5q0 -172 155 -251l-13 -65
h-235z" />
    <glyph glyph-name="Iotadieresis" unicode="&#x3aa;" horiz-adv-x="270" 
d="M110 0l148 700h50l-148 -700h-50zM180 856q0 17 11.5 28t27.5 11q14 0 23 -9t9 -22q0 -17 -11.5 -28t-27.5 -11q-14 0 -23 9t-9 22zM355 856q0 17 11.5 28t27.5 11q14 0 23 -9t9 -22q0 -17 -11.5 -28t-27.5 -11q-14 0 -23 9t-9 22z" />
    <glyph glyph-name="Upsilondieresis" unicode="&#x3ab;" horiz-adv-x="600" 
d="M260 0l52 245l-164 455h55l140 -400l310 400h65l-356 -455l-52 -245h-50zM315 856q0 17 11.5 28t27.5 11q14 0 23 -9t9 -22q0 -17 -11.5 -28t-27.5 -11q-14 0 -23 9t-9 22zM490 856q0 17 11.5 28t27.5 11q14 0 23 -9t9 -22q0 -17 -11.5 -28t-27.5 -11q-14 0 -23 9t-9 22z
" />
    <glyph glyph-name="alphatonos" unicode="&#x3ac;" horiz-adv-x="600" 
d="M594 43l-10 -46q-1 -1 -4 -1q-2 -1 -13 -1q-41 0 -65.5 23.5t-23.5 61.5q-19 -25 -47 -45q-61 -45 -135 -45q-86 0 -143.5 60t-57.5 154q0 122 81 204t179 82q89 0 144 -63q23 -26 37 -62l25 115h45l-82 -384q-5 -24 9 -40t40 -16q13 0 16 1q1 0 2.5 0.5t2.5 1.5zM302 35
q81 0 145 69t64 167q0 74 -46 124t-116 50q-81 0 -145 -69t-64 -167q0 -74 46 -124t116 -50zM395 565l102 130h55l-117 -130h-40z" />
    <glyph glyph-name="epsilontonos" unicode="&#x3ad;" horiz-adv-x="450" 
d="M407 80l24 -32q-21 -18 -45 -29q-56 -29 -122 -29q-87 0 -137 41.5t-50 96.5q0 72 65 109q27 16 66 22q-18 7 -32 20q-32 30 -32 71q0 55 48 97.5t123 42.5t133 -40q27 -19 44 -39l-42 -31q-13 18 -34 32q-47 33 -108 33q-53 0 -85.5 -27.5t-32.5 -60.5q0 -34 31 -60.5
t78 -26.5h62l-10 -45h-92q-58 0 -97 -26.5t-39 -65.5q0 -38 37.5 -68t105.5 -30q52 0 102 22q25 12 39 23zM315 565l102 130h55l-117 -130h-40z" />
    <glyph glyph-name="etatonos" unicode="&#x3ae;" horiz-adv-x="570" 
d="M375 565l102 130h55l-117 -130h-40zM85 0l102 480h45l-14 -68q19 22 43 39q57 39 121 39q82 0 133 -64.5t31 -160.5l-56 -265h-45l58 269q16 73 -22.5 124.5t-111.5 51.5q-59 0 -111 -45t-68 -120l-60 -280h-45z" />
    <glyph glyph-name="iotatonos" unicode="&#x3af;" horiz-adv-x="275" 
d="M109 130l74 350h45l-74 -352q-9 -43 10.5 -68t64.5 -25q23 0 35 4q7 1 14 5l-10 -45q-9 -4 -16 -5q-15 -4 -36 -4q-61 0 -90 40.5t-17 99.5zM200 565l102 130h55l-117 -130h-40z" />
    <glyph glyph-name="upsilondieresistonos" unicode="&#x3b0;" horiz-adv-x="570" 
d="M335 565l102 130h55l-117 -130h-40zM287 626q0 17 11.5 28t27.5 11q14 0 23 -9t9 -22q0 -17 -11.5 -28t-27.5 -11q-14 0 -23 9t-9 22zM464 626q0 17 11.5 28t27.5 11q14 0 23 -9t9 -22q0 -17 -11.5 -28t-27.5 -11q-14 0 -23 9t-9 22zM125 216l56 264h45l-57 -269
q-16 -75 20 -125.5t119 -50.5q63 0 106.5 38t57.5 106l64 301h45l-65 -306q-19 -87 -76 -135.5t-139 -48.5q-102 0 -149.5 66t-26.5 160z" />
    <glyph glyph-name="alpha" unicode="&#x3b1;" horiz-adv-x="600" 
d="M594 43l-10 -46q-1 -1 -4 -1q-2 -1 -13 -1q-41 0 -65.5 23.5t-23.5 61.5q-19 -25 -47 -45q-61 -45 -135 -45q-86 0 -143.5 60t-57.5 154q0 122 81 204t179 82q89 0 144 -63q23 -26 37 -62l25 115h45l-82 -384q-5 -24 9 -40t40 -16q13 0 16 1q1 0 2.5 0.5t2.5 1.5zM302 35
q81 0 145 69t64 167q0 74 -46 124t-116 50q-81 0 -145 -69t-64 -167q0 -74 46 -124t116 -50z" />
    <glyph glyph-name="beta" unicode="&#x3b2;" horiz-adv-x="558" 
d="M45 -210l161 760q15 71 69 115.5t130 44.5q78 0 123 -46.5t45 -113.5q0 -79 -67 -134q-27 -23 -66 -37q33 -14 57 -34q58 -50 58 -123q0 -94 -66 -158t-163 -64h-191l-45 -210h-45zM145 50h191q73 0 123 46.5t50 116.5q0 58 -41 100t-103 42h-65l10 45h59q63 0 111 44
t48 101q0 50 -35 85t-95 35q-56 0 -96.5 -33.5t-51.5 -86.5z" />
    <glyph glyph-name="gamma" unicode="&#x3b3;" horiz-adv-x="480" 
d="M163 -210l43 203l-94 487h47l80 -420l260 420h53l-302 -487l-43 -203h-44z" />
    <glyph glyph-name="delta" unicode="&#x3b4;" horiz-adv-x="579" 
d="M234 655l9 45h365l-9 -45h-266q106 -53 172 -140t66 -205q0 -134 -80.5 -227t-192.5 -93q-88 0 -145.5 61t-57.5 152q0 108 80.5 192.5t182.5 84.5q93 0 156 -77q-44 96 -101.5 148t-178.5 104zM305 35q82 0 148 69.5t66 156.5q0 75 -45 124.5t-119 49.5
q-81 0 -147.5 -67.5t-66.5 -158.5q0 -75 45 -124.5t119 -49.5z" />
    <glyph glyph-name="epsilon" unicode="&#x3b5;" horiz-adv-x="450" 
d="M407 80l24 -32q-21 -18 -45 -29q-56 -29 -122 -29q-87 0 -137 41.5t-50 96.5q0 72 65 109q27 16 66 22q-18 7 -32 20q-32 30 -32 71q0 55 48 97.5t123 42.5t133 -40q27 -19 44 -39l-42 -31q-13 18 -34 32q-47 33 -108 33q-53 0 -85.5 -27.5t-32.5 -60.5q0 -34 31 -60.5
t78 -26.5h62l-10 -45h-92q-58 0 -97 -26.5t-39 -65.5q0 -38 37.5 -68t105.5 -30q52 0 102 22q25 12 39 23z" />
    <glyph glyph-name="zeta" unicode="&#x3b6;" horiz-adv-x="470" 
d="M389 -150h-56q15 68 41 110q13 23 25 36l-16 -3q-17 -3 -53 -3q-111 0 -168.5 48t-57.5 124q0 246 398 488h-275l10 50h355l-10 -50q-77 -47 -144 -96t-135.5 -112.5t-108.5 -134t-40 -137.5q0 -59 47 -94.5t144 -35.5q40 0 74 6q18 4 26 7l27 -43q-17 -19 -34 -43
q-35 -51 -49 -117z" />
    <glyph glyph-name="eta" unicode="&#x3b7;" horiz-adv-x="570" 
d="M85 0l102 480h45l-14 -68q19 22 43 39q57 39 121 39q82 0 133 -64.5t31 -160.5l-56 -265h-45l58 269q16 73 -22.5 124.5t-111.5 51.5q-59 0 -111 -45t-68 -120l-60 -280h-45z" />
    <glyph glyph-name="theta" unicode="&#x3b8;" horiz-adv-x="590" 
d="M184 370h368l4 30q4 25 4 66q0 99 -40.5 149t-105.5 50q-80 0 -143 -79t-87 -216zM418 710q82 0 134.5 -63t52.5 -184q0 -110 -34.5 -216.5t-104 -181.5t-157.5 -75q-82 0 -134.5 63t-52.5 184q0 110 34.5 216.5t104 181.5t157.5 75zM542 325h-368l-4 -28q-3 -25 -3 -63
q0 -99 40.5 -149t105.5 -50q79 0 142 78.5t87 211.5z" />
    <glyph glyph-name="iota" unicode="&#x3b9;" horiz-adv-x="275" 
d="M109 130l74 350h45l-74 -352q-9 -43 10.5 -68t64.5 -25q23 0 35 4q7 1 14 5l-10 -45q-9 -4 -16 -5q-15 -4 -36 -4q-61 0 -90 40.5t-17 99.5z" />
    <glyph glyph-name="kappa" unicode="&#x3ba;" horiz-adv-x="490" 
d="M85 0l101 480h45l-60 -285l326 285h62l-223 -196l144 -284h-51l-129 253l-143 -125l-27 -128h-45z" />
    <glyph glyph-name="lambda" unicode="&#x3bb;" horiz-adv-x="470" 
d="M30 0l309 483l-18 102q-13 70 -76 70q-8 0 -29 -3l-11 -2l9 45l11 2q21 3 30 3q94 0 114 -116l101 -584h-48l-72 420l-268 -420h-52z" />
    <glyph glyph-name="uni03BC" unicode="&#x3bc;" horiz-adv-x="575" 
d="M40 -210l147 690h45l-58 -269q-16 -72 21.5 -124t112.5 -52q60 0 111.5 44.5t67.5 120.5l60 280h45l-102 -480h-45l14 68q-17 -22 -42 -39q-55 -39 -120 -39q-71 0 -117 44q-20 19 -34 45l-61 -289h-45z" />
    <glyph glyph-name="nu" unicode="&#x3bd;" horiz-adv-x="480" 
d="M205 0l-93 480h48l80 -420l260 420h52l-297 -480h-50z" />
    <glyph glyph-name="xi" unicode="&#x3be;" horiz-adv-x="495" 
d="M396 -150h-56q15 64 42 112q12 22 24 34l-14 -3q-15 -3 -51 -3q-112 0 -175.5 53t-63.5 132q0 114 92 172q43 27 93 37q-28 12 -47 30q-47 41 -47 102q0 78 64 136t159 58q75 0 131 -32q23 -12 42 -31l-33 -37q-15 15 -35 25q-50 25 -112 25q-73 0 -119.5 -40t-46.5 -98
q0 -53 43 -87.5t115 -34.5h56l-11 -50h-99q-86 0 -141 -49.5t-55 -123.5q0 -60 50 -98.5t143 -38.5q44 0 82 6q17 3 26 7l27 -43q-15 -15 -33 -41q-35 -50 -50 -119z" />
    <glyph glyph-name="omicron" unicode="&#x3bf;" 
d="M367 490q91 0 152 -64.5t61 -156.5q0 -115 -83.5 -197t-187.5 -82q-91 0 -152 64.5t-61 156.5q0 115 83.5 197t187.5 82zM315 35q84 0 152 67.5t68 162.5q0 76 -50 128t-124 52q-84 0 -152 -67.5t-68 -162.5q0 -76 50 -128t124 -52z" />
    <glyph glyph-name="pi" unicode="&#x3c0;" horiz-adv-x="570" 
d="M85 0l102 480h400l-102 -480h-45l92 435h-310l-92 -435h-45z" />
    <glyph glyph-name="rho" unicode="&#x3c1;" horiz-adv-x="590" 
d="M40 -210l100 473q21 101 97.5 164t161.5 63q80 0 137 -63.5t57 -155.5q0 -115 -82 -198t-179 -83q-37 0 -69 12.5t-51.5 31t-33 36.5t-18.5 31l-6 13l-69 -324h-45zM392 445q-77 0 -144.5 -68.5t-67.5 -163.5q0 -75 46 -126.5t110 -51.5q77 0 144.5 68.5t67.5 163.5
q0 75 -46 126.5t-110 51.5z" />
    <glyph glyph-name="sigma1" unicode="&#x3c2;" horiz-adv-x="520" 
d="M389 -150h-56q9 51 40 107q14 23 28 40q-1 0 -9 -1.5t-13 -2.5q-23 -3 -67 -3q-95 0 -155.5 62.5t-60.5 158.5q0 115 83.5 197t187.5 82q80 0 139 -47q26 -21 41 -47l-35 -27q-14 21 -35 38q-48 38 -115 38q-85 0 -153 -67t-68 -163q0 -80 49.5 -130t134.5 -50q50 0 88 9
l32 9l27 -43q-15 -15 -33 -41q-35 -50 -50 -119z" />
    <glyph glyph-name="sigma" unicode="&#x3c3;" horiz-adv-x="595" 
d="M315 35q84 0 152 67.5t68 162.5q0 76 -50 128t-124 52q-84 0 -152 -67.5t-68 -162.5q0 -76 50 -128t124 -52zM367 490h302l-10 -45h-161q23 -18 41 -44q41 -59 41 -132q0 -115 -83.5 -197t-187.5 -82q-91 0 -152 64.5t-61 156.5q0 115 83.5 197t187.5 82z" />
    <glyph glyph-name="tau" unicode="&#x3c4;" horiz-adv-x="440" 
d="M217 130l65 305h-180l10 45h405l-10 -45h-180l-65 -307q-9 -43 10.5 -68t64.5 -25q23 0 35 4q7 1 14 5l-10 -45q-9 -4 -16 -5q-15 -4 -36 -4q-61 0 -90 40.5t-17 99.5z" />
    <glyph glyph-name="upsilon" unicode="&#x3c5;" horiz-adv-x="570" 
d="M125 216l56 264h45l-57 -269q-16 -75 20 -125.5t119 -50.5q63 0 106.5 38t57.5 106l64 301h45l-65 -306q-19 -87 -76 -135.5t-139 -48.5q-102 0 -149.5 66t-26.5 160z" />
    <glyph glyph-name="phi" unicode="&#x3c6;" horiz-adv-x="695" 
d="M276 -209l42 199q-105 14 -163 76t-58 144q0 57 22.5 105.5t57 79.5t68.5 49.5t63 25.5l11 -42q-23 -5 -48.5 -17.5t-57 -36.5t-51.5 -67t-20 -97q0 -65 49 -114t137 -61l95 445h18q43 0 85 -13t80 -39t61 -71.5t23 -104.5q0 -101 -83.5 -181.5t-216.5 -80.5h-27
l-42 -203zM458 436l-85 -400h24q115 2 181.5 65.5t66.5 155.5q0 73 -52.5 122t-134.5 57z" />
    <glyph glyph-name="chi" unicode="&#x3c7;" horiz-adv-x="440" 
d="M10 0l233 250l-116 230h51l98 -195l182 195h59l-214 -230l127 -250h-51l-110 215l-200 -215h-59z" />
    <glyph glyph-name="psi" unicode="&#x3c8;" horiz-adv-x="715" 
d="M284 -210l42 200q-114 19 -163.5 96t-24.5 194l43 200h45l-43 -200q-21 -99 16.5 -163t136.5 -82l95 445h45l-95 -445q112 0 170 55t81 160l49 230h45l-49 -230q-27 -122 -98 -191t-208 -69l-42 -200h-45z" />
    <glyph glyph-name="omega" unicode="&#x3c9;" horiz-adv-x="795" 
d="M421 225l20 95h45l-15 -71q-21 -98 6.5 -156t93.5 -58q61 0 118 66t57 173q0 61 -22 108t-46 68l33 32q30 -23 55.5 -74t25.5 -121q0 -132 -72 -214.5t-155 -82.5q-78 0 -116 62q-18 29 -22 63q-17 -38 -41 -63q-56 -62 -131 -62q-67 0 -112.5 51.5t-45.5 136.5
q0 68 21.5 127t54.5 96.5t61.5 60t51.5 32.5l18 -38q-18 -9 -41.5 -29t-52.5 -53.5t-48.5 -84t-19.5 -106.5q0 -70 34 -109t83 -39q55 0 98 46.5t64 143.5z" />
    <glyph glyph-name="iotadieresis" unicode="&#x3ca;" horiz-adv-x="275" 
d="M109 130l74 350h45l-74 -352q-9 -43 10.5 -68t64.5 -25q23 0 35 4q7 1 14 5l-10 -45q-9 -4 -16 -5q-15 -4 -36 -4q-61 0 -90 40.5t-17 99.5zM105 626q0 17 11.5 28t27.5 11q14 0 23 -9t9 -22q0 -17 -11.5 -28t-27.5 -11q-14 0 -23 9t-9 22zM280 626q0 17 11.5 28t27.5 11
q14 0 23 -9t9 -22q0 -17 -11.5 -28t-27.5 -11q-14 0 -23 9t-9 22z" />
    <glyph glyph-name="upsilondieresis" unicode="&#x3cb;" horiz-adv-x="570" 
d="M125 216l56 264h45l-57 -269q-16 -75 20 -125.5t119 -50.5q63 0 106.5 38t57.5 106l64 301h45l-65 -306q-19 -87 -76 -135.5t-139 -48.5q-102 0 -149.5 66t-26.5 160zM280 626q0 17 11.5 28t27.5 11q14 0 23 -9t9 -22q0 -17 -11.5 -28t-27.5 -11q-14 0 -23 9t-9 22z
M455 626q0 17 11.5 28t27.5 11q14 0 23 -9t9 -22q0 -17 -11.5 -28t-27.5 -11q-14 0 -23 9t-9 22z" />
    <glyph glyph-name="omicrontonos" unicode="&#x3cc;" 
d="M375 565l102 130h55l-117 -130h-40zM367 490q91 0 152 -64.5t61 -156.5q0 -115 -83.5 -197t-187.5 -82q-91 0 -152 64.5t-61 156.5q0 115 83.5 197t187.5 82zM315 35q84 0 152 67.5t68 162.5q0 76 -50 128t-124 52q-84 0 -152 -67.5t-68 -162.5q0 -76 50 -128t124 -52z
" />
    <glyph glyph-name="upsilontonos" unicode="&#x3cd;" horiz-adv-x="570" 
d="M125 216l56 264h45l-57 -269q-16 -75 20 -125.5t119 -50.5q63 0 106.5 38t57.5 106l64 301h45l-65 -306q-19 -87 -76 -135.5t-139 -48.5q-102 0 -149.5 66t-26.5 160zM355 565l102 130h55l-117 -130h-40z" />
    <glyph glyph-name="omegatonos" unicode="&#x3ce;" horiz-adv-x="795" 
d="M421 225l20 95h45l-15 -71q-21 -98 6.5 -156t93.5 -58q61 0 118 66t57 173q0 61 -22 108t-46 68l33 32q30 -23 55.5 -74t25.5 -121q0 -132 -72 -214.5t-155 -82.5q-78 0 -116 62q-18 29 -22 63q-17 -38 -41 -63q-56 -62 -131 -62q-67 0 -112.5 51.5t-45.5 136.5
q0 68 21.5 127t54.5 96.5t61.5 60t51.5 32.5l18 -38q-18 -9 -41.5 -29t-52.5 -53.5t-48.5 -84t-19.5 -106.5q0 -70 34 -109t83 -39q55 0 98 46.5t64 143.5zM480 565l102 130h55l-117 -130h-40z" />
    <glyph glyph-name="uni0400" unicode="&#x400;" horiz-adv-x="630" 
d="M485 795l-63 130h55l48 -130h-40zM110 0l148 700h470l-10 -50h-420l-56 -260h340l-10 -50h-340l-62 -290h430l-10 -50h-480z" />
    <glyph glyph-name="uni0401" unicode="&#x401;" horiz-adv-x="630" 
d="M394 856q0 17 11.5 28t27.5 11q14 0 23 -9t9 -22q0 -17 -11.5 -28t-27.5 -11q-14 0 -23 9t-9 22zM569 856q0 17 11.5 28t27.5 11q14 0 23 -9t9 -22q0 -17 -11.5 -28t-27.5 -11q-14 0 -23 9t-9 22zM110 0l148 700h470l-10 -50h-420l-56 -260h340l-10 -50h-340l-62 -290
h430l-10 -50h-480z" />
    <glyph glyph-name="uni0402" unicode="&#x402;" horiz-adv-x="705" 
d="M180 0l138 650h-185l10 50h420l-10 -50h-185l-54 -252q25 13 50 23q62 24 124 24q88 0 141 -51t53 -138q0 -122 -70 -194t-170 -72h-30l11 50h24q75 0 129.5 56.5t54.5 152.5q0 70 -40.5 108t-106.5 38t-130 -29q-32 -13 -53 -28l-71 -338h-50z" />
    <glyph glyph-name="uni0403" unicode="&#x403;" horiz-adv-x="555" 
d="M110 0l148 700h425l-10 -50h-375l-138 -650h-50zM460 795l102 130h55l-117 -130h-40z" />
    <glyph glyph-name="uni0404" unicode="&#x404;" horiz-adv-x="750" 
d="M188 380h386l-10 -50h-383v-18q0 -115 76.5 -193.5t199.5 -78.5q95 0 178 52q36 22 66 53l28 -35q-35 -34 -78 -60q-95 -60 -202 -60q-138 0 -228 92.5t-90 227.5q0 164 121 282t275 118q114 0 207 -77q41 -36 65 -77l-42 -27q-22 37 -54 65q-78 66 -184 66
q-124 0 -217 -83.5t-114 -196.5z" />
    <glyph glyph-name="uni0405" unicode="&#x405;" horiz-adv-x="560" 
d="M75 120l41 32q16 -31 44 -56q64 -56 164 -56q77 0 126.5 42.5t49.5 109.5q0 41 -33 72t-80 51.5t-94.5 43t-80.5 60t-33 87.5q0 84 65.5 144t164.5 60q92 0 162 -54q29 -23 48 -53l-43 -32q-13 24 -39 44q-55 45 -137 45q-74 0 -122 -41t-48 -102q0 -41 33 -72t80 -52
t94 -43.5t80 -60t33 -88.5q0 -90 -66.5 -150.5t-168.5 -60.5q-115 0 -188 65q-33 29 -52 65z" />
    <glyph glyph-name="uni0406" unicode="&#x406;" horiz-adv-x="270" 
d="M110 0l148 700h50l-148 -700h-50z" />
    <glyph glyph-name="uni0407" unicode="&#x407;" horiz-adv-x="270" 
d="M110 0l148 700h50l-148 -700h-50zM185 856q0 17 11.5 28t27.5 11q14 0 23 -9t9 -22q0 -17 -11.5 -28t-27.5 -11q-14 0 -23 9t-9 22zM360 856q0 17 11.5 28t27.5 11q14 0 23 -9t9 -22q0 -17 -11.5 -28t-27.5 -11q-14 0 -23 9t-9 22z" />
    <glyph glyph-name="uni0408" unicode="&#x408;" horiz-adv-x="485" 
d="M23 81l40 33q12 -21 31 -37q45 -37 106 -37q64 0 110.5 40t60.5 108l108 512h50l-109 -517q-18 -86 -82 -139.5t-147 -53.5q-75 0 -128 45q-22 18 -40 46z" />
    <glyph glyph-name="uni0409" unicode="&#x409;" horiz-adv-x="1070" 
d="M-4 10l9 46l21 -8q24 -8 41 -8q28 0 52.5 17.5t52.5 62.5t57 134.5t56 220.5l47 225h415l-57 -270h164q86 0 145.5 -55t59.5 -137q0 -99 -72 -168.5t-172 -69.5h-266l138 650h-315l-38 -180q-24 -115 -50.5 -201t-52 -139t-53.5 -85t-53.5 -43.5t-55.5 -11.5
q-26 0 -52 10q-14 6 -21 10zM609 50h212q78 0 133 53t55 132q0 64 -43.5 104.5t-111.5 40.5h-175z" />
    <glyph glyph-name="uni040A" unicode="&#x40a;" horiz-adv-x="1065" 
d="M110 0l148 700h50l-57 -270h385l57 270h50l-57 -270h164q86 0 145.5 -55t59.5 -137q0 -99 -72 -168.5t-172 -69.5h-266l80 380h-385l-80 -380h-50zM605 50h212q78 0 133 53t55 132q0 64 -43.5 104.5t-111.5 40.5h-175z" />
    <glyph glyph-name="uni040B" unicode="&#x40b;" horiz-adv-x="715" 
d="M180 0l138 650h-185l10 50h420l-10 -50h-185l-54 -252q25 13 50 23q62 24 124 24q107 0 159 -70t31 -167l-43 -208h-50l43 209q17 78 -22.5 132t-121.5 54q-66 0 -130 -29q-32 -13 -53 -28l-71 -338h-50z" />
    <glyph glyph-name="uni040C" unicode="&#x40c;" horiz-adv-x="645" 
d="M485 795l102 130h55l-117 -130h-40zM110 0l148 700h50l-91 -430l481 430h67l-327 -292l202 -408h-55l-185 374l-198 -177l-42 -197h-50z" />
    <glyph glyph-name="uni040D" unicode="&#x40d;" horiz-adv-x="775" 
d="M110 0l148 700h50l-127 -601l592 601h40l-148 -700h-50l127 601l-592 -601h-40zM535 795l-63 130h55l48 -130h-40z" />
    <glyph glyph-name="uni040E" unicode="&#x40e;" horiz-adv-x="600" 
d="M60 2l10 50l19 -6q22 -6 42 -6q42 0 73 24t73 81l45 63l-159 492h52l142 -440l303 440h58l-383 -555q-55 -81 -103 -118t-110 -37q-18 0 -42 6zM331 925h44v-10q0 -33 21.5 -54t56.5 -21t60.5 22t32.5 63h46q-12 -62 -51 -96t-91 -34q-54 0 -86.5 31.5t-32.5 82.5v16z
" />
    <glyph glyph-name="uni040F" unicode="&#x40f;" horiz-adv-x="740" 
d="M110 0l148 700h50l-138 -650h420l138 650h50l-148 -700h-235l-32 -150h-50l32 150h-235z" />
    <glyph glyph-name="uni0410" unicode="&#x410;" horiz-adv-x="670" 
d="M35 0l438 700h50l142 -700h-51l-42 205h-350l-128 -205h-59zM253 255h310l-76 375z" />
    <glyph glyph-name="uni0411" unicode="&#x411;" horiz-adv-x="645" 
d="M170 50h231q76 0 127 49.5t51 124.5q0 63 -44 99.5t-110 36.5h-189zM110 0l148 700h420l-10 -50h-370l-51 -240h188q82 0 138.5 -52.5t56.5 -130.5q0 -95 -69.5 -161t-166.5 -66h-284z" />
    <glyph glyph-name="uni0412" unicode="&#x412;" horiz-adv-x="660" 
d="M243 395h235q63 0 104.5 39.5t41.5 106.5q0 51 -35.5 80t-93.5 29h-197zM170 50h250q75 0 122.5 47t47.5 119q0 57 -41 93t-109 36h-207zM110 0l148 700h248q74 0 121 -44t47 -112q0 -88 -62 -142q-28 -25 -62 -35q25 -13 45 -35q45 -47 45 -114q0 -92 -65.5 -155
t-161.5 -63h-303z" />
    <glyph glyph-name="uni0413" unicode="&#x413;" horiz-adv-x="555" 
d="M110 0l148 700h425l-10 -50h-375l-138 -650h-50z" />
    <glyph glyph-name="uni0414" unicode="&#x414;" horiz-adv-x="700" 
d="M-26 -150l41 200h40q41 31 83 92q91 131 136 348l44 210h415l-138 -650h90l-42 -200h-50l32 150h-570l-32 -150h-49zM114 50h431l128 600h-315l-35 -167q-42 -200 -131 -341q-40 -60 -78 -92z" />
    <glyph glyph-name="uni0415" unicode="&#x415;" horiz-adv-x="630" 
d="M110 0l148 700h470l-10 -50h-420l-56 -260h340l-10 -50h-340l-62 -290h430l-10 -50h-480z" />
    <glyph glyph-name="uni0416" unicode="&#x416;" horiz-adv-x="910" 
d="M0 0l380 413l-202 287h60l261 -375l79 375h50l-79 -375l419 375h67l-327 -292l202 -408h-55l-186 373l-136 -122l-53 -251h-50l55 260l-77 115l-345 -375h-63z" />
    <glyph glyph-name="uni0417" unicode="&#x417;" horiz-adv-x="570" 
d="M65 121l41 31q16 -30 43 -56q62 -56 160 -56q85 0 138 47.5t53 114.5q0 60 -47 101.5t-123 41.5h-72l10 50h112q78 0 124.5 41t46.5 100q0 52 -43.5 88t-123.5 36q-59 0 -119 -31q-22 -12 -45 -31l-27 37q25 22 54 37q70 38 142 38q98 0 155 -50t57 -122q0 -97 -82 -147
q-36 -23 -82 -30q31 -12 57 -33q58 -48 58 -120q0 -87 -71.5 -152.5t-178.5 -65.5q-112 0 -185 65q-32 28 -52 66z" />
    <glyph glyph-name="uni0418" unicode="&#x418;" horiz-adv-x="775" 
d="M110 0l148 700h50l-127 -601l592 601h40l-148 -700h-50l127 601l-592 -601h-40z" />
    <glyph glyph-name="uni0419" unicode="&#x419;" horiz-adv-x="775" 
d="M110 0l148 700h50l-127 -601l592 601h40l-148 -700h-50l127 601l-592 -601h-40zM441 925h44v-10q0 -33 21.5 -54t56.5 -21t60.5 22t32.5 63h46q-12 -62 -51 -96t-91 -34q-54 0 -86.5 31.5t-32.5 82.5v16z" />
    <glyph glyph-name="uni041A" unicode="&#x41a;" horiz-adv-x="645" 
d="M110 0l148 700h50l-91 -430l481 430h67l-327 -292l202 -408h-55l-185 374l-198 -177l-42 -197h-50z" />
    <glyph glyph-name="uni041B" unicode="&#x41b;" horiz-adv-x="730" 
d="M-4 10l9 46l21 -8q24 -8 41 -8q28 0 52.5 17.5t52.5 62.5t57 134.5t56 220.5l47 225h435l-148 -700h-50l138 650h-335l-38 -180q-24 -115 -50.5 -201t-52 -139t-53.5 -85t-53.5 -43.5t-55.5 -11.5q-26 0 -52 10q-14 6 -21 10z" />
    <glyph glyph-name="uni041C" unicode="&#x41c;" horiz-adv-x="920" 
d="M110 0l148 700h35l222 -415l398 415h45l-148 -700h-50l128 605l-385 -400l-215 400l-128 -605h-50z" />
    <glyph glyph-name="uni041D" unicode="&#x41d;" horiz-adv-x="745" 
d="M110 0l148 700h50l-68 -320h425l68 320h50l-148 -700h-50l70 330h-425l-70 -330h-50z" />
    <glyph glyph-name="uni041E" unicode="&#x41e;" horiz-adv-x="830" 
d="M528 710q137 0 227 -93t90 -227q0 -109 -57 -202t-148 -145.5t-192 -52.5q-137 0 -227 93t-90 227q0 109 57 202t148 145.5t192 52.5zM520 660q-134 0 -236.5 -100.5t-102.5 -246.5q0 -116 77 -194.5t198 -78.5q133 0 236 101.5t103 245.5q0 116 -77 194.5t-198 78.5z
" />
    <glyph glyph-name="uni041F" unicode="&#x41f;" horiz-adv-x="745" 
d="M110 0l148 700h525l-148 -700h-50l138 650h-425l-138 -650h-50z" />
    <glyph glyph-name="uni0420" unicode="&#x420;" horiz-adv-x="645" 
d="M110 0l148 700h237q80 0 138 -55.5t58 -137.5q0 -98 -73 -167.5t-172 -69.5h-229l-57 -270h-50zM228 320h226q79 0 133 52.5t54 132.5q0 66 -46.5 105.5t-109.5 39.5h-187z" />
    <glyph glyph-name="uni0421" unicode="&#x421;" horiz-adv-x="750" 
d="M701 145l28 -35q-36 -36 -77 -60q-95 -60 -203 -60q-138 0 -228 92t-90 227q0 165 121 283t275 118q114 0 207 -77q41 -36 65 -77l-42 -27q-22 37 -54 65q-78 66 -184 66q-133 0 -235.5 -101t-102.5 -247q0 -117 77 -194.5t199 -77.5q95 0 178 52q36 22 66 53z" />
    <glyph glyph-name="uni0422" unicode="&#x422;" horiz-adv-x="545" 
d="M240 0l138 650h-230l10 50h510l-10 -50h-230l-138 -650h-50z" />
    <glyph glyph-name="uni0423" unicode="&#x423;" horiz-adv-x="600" 
d="M60 2l10 50l19 -6q22 -6 42 -6q42 0 73 24t73 81l45 63l-159 492h52l142 -440l303 440h58l-383 -555q-55 -81 -103 -118t-110 -37q-18 0 -42 6z" />
    <glyph glyph-name="uni0424" unicode="&#x424;" horiz-adv-x="840" 
d="M418 125l100 470h-28q-141 0 -226 -72t-85 -177q0 -84 62 -145t177 -76zM387 -20l20 95q-131 17 -204.5 91.5t-73.5 174.5q0 122 101.5 213t268.5 91h30l16 75h50l-16 -75q131 -17 204.5 -91.5t73.5 -174.5q0 -122 -101.5 -213t-268.5 -91h-30l-20 -95h-50zM568 595
l-100 -470h28q141 0 226 72t85 177q0 84 -62 145t-177 76z" />
    <glyph glyph-name="uni0425" unicode="&#x425;" horiz-adv-x="610" 
d="M15 0l337 365l-169 335h55l148 -295l272 295h65l-311 -335l183 -365h-55l-161 325l-299 -325h-65z" />
    <glyph glyph-name="uni0426" unicode="&#x426;" horiz-adv-x="745" 
d="M110 0l148 700h50l-138 -650h415l138 650h50l-138 -650h90l-42 -200h-50l32 150h-555z" />
    <glyph glyph-name="uni0427" unicode="&#x427;" horiz-adv-x="695" 
d="M529 0l64 301q-27 -17 -52 -26q-62 -25 -129 -25q-122 0 -180 77t-35 184l40 189h50l-41 -199q-19 -93 30.5 -147t142.5 -54q66 0 132 30q29 14 54 30l72 340h50l-148 -700h-50z" />
    <glyph glyph-name="uni0428" unicode="&#x428;" horiz-adv-x="1010" 
d="M110 0l148 700h50l-138 -650h320l138 650h50l-138 -650h320l138 650h50l-148 -700h-790z" />
    <glyph glyph-name="uni0429" unicode="&#x429;" horiz-adv-x="1020" 
d="M110 0l148 700h50l-138 -650h320l138 650h50l-138 -650h320l138 650h50l-138 -650h90l-42 -200h-50l32 150h-830z" />
    <glyph glyph-name="uni042A" unicode="&#x42a;" horiz-adv-x="695" 
d="M170 0l138 650h-175l10 50h225l-57 -270h169q86 0 145.5 -55t59.5 -137q0 -99 -72 -168.5t-172 -69.5h-271zM230 50h217q78 0 133 53t55 132q0 64 -43.5 104.5t-111.5 40.5h-180z" />
    <glyph glyph-name="uni042B" unicode="&#x42b;" horiz-adv-x="865" 
d="M170 50h217q78 0 133 53t55 132q0 64 -43.5 104.5t-111.5 40.5h-180zM110 0l148 700h50l-57 -270h169q86 0 145.5 -55t59.5 -137q0 -99 -72 -168.5t-172 -69.5h-271zM705 0l148 700h50l-148 -700h-50z" />
    <glyph glyph-name="uni042C" unicode="&#x42c;" horiz-adv-x="645" 
d="M170 50h227q78 0 133 53t55 132q0 64 -43.5 104.5t-111.5 40.5h-190zM110 0l148 700h50l-57 -270h179q86 0 145.5 -55t59.5 -137q0 -99 -72 -168.5t-172 -69.5h-281z" />
    <glyph glyph-name="uni042D" unicode="&#x42d;" horiz-adv-x="745" 
d="M92 144l42 27q21 -37 54 -66q77 -65 184 -65q127 0 221.5 88t111.5 202h-386l10 50h381v8q0 115 -76.5 193.5t-199.5 78.5q-94 0 -178 -53q-35 -21 -66 -52l-28 35q34 34 78 60q95 60 202 60q138 0 228 -92.5t90 -227.5q0 -164 -121 -282t-275 -118q-120 0 -207 77
q-39 33 -65 77z" />
    <glyph glyph-name="uni042E" unicode="&#x42e;" horiz-adv-x="1040" 
d="M110 0l148 700h50l-68 -320h148q28 142 138 236t238 94q126 0 210.5 -90.5t84.5 -222.5q0 -112 -56.5 -207t-144 -147.5t-180.5 -52.5q-126 0 -211.5 89.5t-85.5 223.5v27h-151l-70 -330h-50zM683 40q125 0 225.5 102.5t100.5 252.5q0 115 -71.5 190t-180.5 75
q-125 0 -225.5 -102.5t-100.5 -252.5q0 -115 71.5 -190t180.5 -75z" />
    <glyph glyph-name="uni042F" unicode="&#x42f;" horiz-adv-x="655" 
d="M360 340h207l66 310h-244q-73 0 -124 -49.5t-51 -124.5q0 -60 41.5 -98t104.5 -38zM50 0l236 304q-35 12 -61 35q-61 53 -61 133q0 95 68.5 161.5t165.5 66.5h295l-148 -700h-50l61 290h-225l-226 -290h-55z" />
    <glyph glyph-name="uni0430" unicode="&#x430;" horiz-adv-x="505" 
d="M386 0l15 72q-22 -26 -44 -41q-57 -41 -124 -41q-70 0 -112.5 37.5t-42.5 90.5q0 55 39 95t119 54l213 33q8 65 -24.5 105t-97.5 40q-52 0 -97 -28q-23 -13 -38 -28l-24 33q17 17 46 34q58 34 118 34q87 0 131.5 -59t26.5 -150l-59 -281h-45zM428 196l12 59l-192 -31
q-124 -20 -124 -101q0 -37 30.5 -62.5t85.5 -25.5q66 0 120.5 46t67.5 115z" />
    <glyph glyph-name="uni0431" unicode="&#x431;" horiz-adv-x="570" 
d="M616 722l17 -38q-15 -9 -42 -19q-49 -17 -148 -27q-199 -17 -268 -274q23 29 53 53q69 53 140 53q84 0 140.5 -61t56.5 -149q0 -112 -78.5 -190.5t-176.5 -78.5q-87 0 -143 63t-56 172q0 51 11.5 108.5t37.5 118t64 110t96 83t128 38.5q73 4 128 22q15 5 40 16zM314 35
q78 0 141.5 65t63.5 155q0 72 -45 121t-112 49q-78 0 -141.5 -65t-63.5 -155q0 -72 45 -121t112 -49z" />
    <glyph glyph-name="uni0432" unicode="&#x432;" horiz-adv-x="505" 
d="M188 275h179q42 0 70 25t28 62q0 33 -24 53t-65 20h-154zM139 45h194q50 0 78.5 29t28.5 78q0 36 -25 57t-70 21h-167zM85 0l102 480h198q56 0 90.5 -32t34.5 -81q0 -58 -46 -96q-17 -15 -46 -23q18 -8 33 -21q33 -31 33 -77q0 -67 -43.5 -108.5t-111.5 -41.5h-244z" />
    <glyph glyph-name="uni0433" unicode="&#x433;" horiz-adv-x="410" 
d="M85 0l102 480h305l-10 -45h-260l-92 -435h-45z" />
    <glyph glyph-name="uni0434" unicode="&#x434;" horiz-adv-x="540" 
d="M-20 -120l34 165h40q27 27 57 71q63 98 91 224l30 140h315l-93 -435h75l-35 -165h-45l26 120h-425l-26 -120h-44zM108 45h301l83 390h-225l-20 -95q-29 -130 -86 -224q-25 -42 -53 -71z" />
    <glyph glyph-name="uni0435" unicode="&#x435;" horiz-adv-x="550" 
d="M461 104l27 -33q-24 -24 -51 -41q-64 -40 -133 -40q-89 0 -148.5 63.5t-59.5 156.5q0 118 80.5 199t180.5 81q85 0 140 -57.5t55 -150.5q0 -10 -3 -43l-3 -19h-406v-6q0 -76 48 -127.5t123 -51.5q55 0 109 34q23 15 41 35zM147 265h361v12q0 75 -41.5 121.5t-112.5 46.5
q-68 0 -130.5 -52t-76.5 -128z" />
    <glyph glyph-name="uni0436" unicode="&#x436;" horiz-adv-x="695" 
d="M5 0l268 288l-136 192h55l180 -255l55 255h45l-55 -255l290 255h62l-223 -197l144 -283h-50l-129 252l-107 -94l-34 -158h-45l35 165l-62 87l-233 -252h-60z" />
    <glyph glyph-name="uni0437" unicode="&#x437;" horiz-adv-x="425" 
d="M55 94l36 27q13 -25 33 -43q43 -43 112 -43q58 0 92.5 29t34.5 70q0 37 -30 64t-83 27h-48l10 45h67q48 0 80 26.5t32 66.5q0 33 -28.5 57.5t-79.5 24.5q-44 0 -86 -24q-16 -9 -33 -23l-27 38q18 15 42 27q56 27 109 27q68 0 108.5 -35.5t40.5 -85.5q0 -68 -55 -103
q-24 -15 -54 -21q20 -8 40 -23q41 -33 41 -82q0 -62 -50 -106t-127 -44q-87 0 -139 52q-24 23 -38 52z" />
    <glyph glyph-name="uni0438" unicode="&#x438;" horiz-adv-x="575" 
d="M85 0l102 480h45l-86 -400l406 400h40l-102 -480h-45l85 400l-405 -400h-40z" />
    <glyph glyph-name="uni0439" unicode="&#x439;" horiz-adv-x="575" 
d="M85 0l102 480h45l-86 -400l406 400h40l-102 -480h-45l85 400l-405 -400h-40zM289 694h39v-12q0 -36 22 -57t63 -21q37 0 63.5 23t32.5 67h41q-12 -61 -51.5 -95.5t-90.5 -34.5q-54 0 -86.5 31t-32.5 84v15z" />
    <glyph glyph-name="uni043A" unicode="&#x43a;" horiz-adv-x="490" 
d="M85 0l101 480h45l-60 -285l326 285h62l-223 -196l144 -284h-51l-129 253l-143 -125l-27 -128h-45z" />
    <glyph glyph-name="uni043B" unicode="&#x43b;" horiz-adv-x="555" 
d="M0 6l9 43q5 -4 13 -7q13 -7 33 -7q41 0 76.5 63t72.5 232l32 150h335l-102 -480h-45l92 435h-245l-23 -110q-20 -99 -43.5 -166.5t-48.5 -103.5t-49 -50.5t-52 -14.5q-18 0 -40 8q-13 6 -15 8z" />
    <glyph glyph-name="uni043C" unicode="&#x43c;" horiz-adv-x="650" 
d="M85 0l102 480h30l147 -270l263 270h40l-102 -480h-45l82 390l-248 -250l-142 250l-82 -390h-45z" />
    <glyph glyph-name="uni043D" unicode="&#x43d;" horiz-adv-x="570" 
d="M85 0l102 480h45l-46 -215h310l46 215h45l-102 -480h-45l46 220h-310l-46 -220h-45z" />
    <glyph glyph-name="uni043E" unicode="&#x43e;" 
d="M367 490q91 0 152 -64.5t61 -156.5q0 -115 -83.5 -197t-187.5 -82q-91 0 -152 64.5t-61 156.5q0 115 83.5 197t187.5 82zM315 35q84 0 152 67.5t68 162.5q0 76 -50 128t-124 52q-84 0 -152 -67.5t-68 -162.5q0 -76 50 -128t124 -52z" />
    <glyph glyph-name="uni043F" unicode="&#x43f;" horiz-adv-x="570" 
d="M85 0l102 480h400l-102 -480h-45l92 435h-310l-92 -435h-45z" />
    <glyph glyph-name="uni0440" unicode="&#x440;" horiz-adv-x="590" 
d="M40 -210l147 690h45l-17 -76q20 23 48 43q63 43 132 43q86 0 143.5 -60t57.5 -154q0 -122 -80 -204t-179 -82q-90 0 -146 62q-25 26 -37 63l-69 -325h-45zM342 35q81 0 145 69t64 167q0 74 -46 124t-116 50q-81 0 -145 -69t-64 -167q0 -74 46 -124t116 -50z" />
    <glyph glyph-name="uni0441" unicode="&#x441;" horiz-adv-x="515" 
d="M460 104l28 -33q-24 -24 -51 -41q-64 -40 -133 -40q-89 0 -148.5 63t-59.5 156q0 115 82.5 198t184.5 83q81 0 139 -54q27 -25 43 -53l-41 -25q-12 21 -34 43q-44 44 -111 44q-82 0 -150 -67.5t-68 -162.5q0 -78 48.5 -129t120.5 -51q55 0 109 34q23 15 41 35z" />
    <glyph glyph-name="uni0442" unicode="&#x442;" horiz-adv-x="440" 
d="M190 0l92 435h-180l10 45h405l-10 -45h-180l-92 -435h-45z" />
    <glyph glyph-name="uni0443" unicode="&#x443;" horiz-adv-x="480" 
d="M-8 -198l11 45l14 -6q18 -6 33 -6q29 0 51.5 17.5t46.5 57.5l56 92l-92 478h48l80 -420l260 420h52l-352 -570q-40 -65 -74 -92.5t-79 -27.5q-18 0 -40 6z" />
    <glyph glyph-name="uni0444" unicode="&#x444;" horiz-adv-x="695" 
d="M276 -210l42 200q-103 12 -162.5 73.5t-59.5 149.5q0 117 85 197t208 80h36l44 210h45l-44 -210q103 -12 162.5 -73.5t59.5 -149.5q0 -117 -85 -197t-208 -80h-36l-42 -200h-45zM328 35l87 410h-23q-110 0 -180.5 -64.5t-70.5 -161.5q0 -72 50 -124t137 -60zM460 445
l-87 -410h23q110 0 180.5 64.5t70.5 161.5q0 72 -50 123t-137 61z" />
    <glyph glyph-name="uni0445" unicode="&#x445;" horiz-adv-x="440" 
d="M10 0l233 250l-116 230h51l98 -195l182 195h59l-214 -230l127 -250h-51l-110 215l-200 -215h-59z" />
    <glyph glyph-name="uni0446" unicode="&#x446;" 
d="M85 0l102 480h45l-93 -435h300l93 435h45l-93 -435h80l-35 -165h-45l26 120h-425z" />
    <glyph glyph-name="uni0447" unicode="&#x447;" horiz-adv-x="530" 
d="M397 0l40 191q-22 -10 -34 -13q-39 -13 -88 -13q-98 0 -144 55.5t-28 139.5l26 120h45l-27 -125q-14 -67 20.5 -106t111.5 -39q50 0 93 15q23 9 36 16l51 239h45l-102 -480h-45z" />
    <glyph glyph-name="uni0448" unicode="&#x448;" horiz-adv-x="775" 
d="M85 0l102 480h45l-93 -435h235l93 435h45l-93 -435h235l93 435h45l-102 -480h-605z" />
    <glyph glyph-name="uni0449" unicode="&#x449;" horiz-adv-x="795" 
d="M85 0l102 480h45l-93 -435h235l93 435h45l-93 -435h235l93 435h45l-93 -435h80l-35 -165h-45l26 120h-640z" />
    <glyph glyph-name="uni044A" unicode="&#x44a;" horiz-adv-x="520" 
d="M130 0l92 435h-135l10 45h180l-37 -170h115q68 0 111.5 -38t43.5 -99q0 -76 -51.5 -124.5t-127.5 -48.5h-201zM184 45h151q57 0 93 34t36 90q0 40 -30 68t-82 28h-121z" />
    <glyph glyph-name="uni044B" unicode="&#x44b;" horiz-adv-x="670" 
d="M139 45h151q57 0 93 34t36 90q0 40 -30 68t-82 28h-121zM85 0l102 480h45l-37 -170h115q68 0 111.5 -38t43.5 -99q0 -76 -51.5 -124.5t-127.5 -48.5h-201zM540 0l102 480h45l-102 -480h-45z" />
    <glyph glyph-name="uni044C" unicode="&#x44c;" horiz-adv-x="485" 
d="M139 45h161q57 0 93 34t36 90q0 40 -30 68t-82 28h-131zM85 0l102 480h45l-37 -170h125q68 0 111.5 -38t43.5 -99q0 -76 -51.5 -124.5t-127.5 -48.5h-211z" />
    <glyph glyph-name="uni044D" unicode="&#x44d;" horiz-adv-x="510" 
d="M61 97l41 25q12 -23 33 -44q43 -43 112 -43q75 0 136 55t78 135h-258l10 45h252q-4 76 -51 125.5t-118 49.5q-54 0 -110 -35q-26 -17 -40 -34l-28 33q21 21 51 40q66 41 133 41q89 0 148.5 -63t59.5 -156q0 -115 -82.5 -198t-184.5 -83q-82 0 -139 53q-28 26 -43 54z" />
    <glyph glyph-name="uni044E" unicode="&#x44e;" horiz-adv-x="755" 
d="M85 0l102 480h45l-46 -215h116q20 100 93.5 162.5t161.5 62.5t145 -60.5t57 -154.5q0 -122 -79.5 -203.5t-181.5 -81.5q-88 0 -145 60.5t-57 154.5v15h-120l-46 -220h-45zM553 445h-1q-82 0 -146.5 -67.5t-64.5 -167.5q0 -76 46 -125.5t116 -49.5q82 0 146.5 67.5
t64.5 167.5q0 76 -46 125.5t-115 49.5z" />
    <glyph glyph-name="uni044F" unicode="&#x44f;" horiz-adv-x="505" 
d="M285 225h137l45 210h-172q-57 0 -92 -32t-35 -83q0 -41 31 -68t86 -27zM50 0l159 195q-23 8 -44 26q-44 36 -44 93q0 71 51 118.5t127 47.5h223l-102 -480h-45l38 180h-160l-143 -180h-60z" />
    <glyph glyph-name="uni0450" unicode="&#x450;" horiz-adv-x="550" 
d="M360 565l-63 130h55l48 -130h-40zM461 104l27 -33q-24 -24 -51 -41q-64 -40 -133 -40q-89 0 -148.5 63.5t-59.5 156.5q0 118 80.5 199t180.5 81q85 0 140 -57.5t55 -150.5q0 -10 -3 -43l-3 -19h-406v-6q0 -76 48 -127.5t123 -51.5q55 0 109 34q23 15 41 35zM147 265h361
v12q0 75 -41.5 121.5t-112.5 46.5q-68 0 -130.5 -52t-76.5 -128z" />
    <glyph glyph-name="uni0451" unicode="&#x451;" horiz-adv-x="550" 
d="M461 104l27 -33q-24 -24 -51 -41q-64 -40 -133 -40q-89 0 -148.5 63.5t-59.5 156.5q0 118 80.5 199t180.5 81q85 0 140 -57.5t55 -150.5q0 -10 -3 -43l-3 -19h-406v-6q0 -76 48 -127.5t123 -51.5q55 0 109 34q23 15 41 35zM147 265h361v12q0 75 -41.5 121.5t-112.5 46.5
q-68 0 -130.5 -52t-76.5 -128zM270 626q0 17 11.5 28t27.5 11q14 0 23 -9t9 -22q0 -17 -11.5 -28t-27.5 -11q-14 0 -23 9t-9 22zM445 626q0 17 11.5 28t27.5 11q14 0 23 -9t9 -22q0 -17 -11.5 -28t-27.5 -11q-14 0 -23 9t-9 22z" />
    <glyph glyph-name="uni0452" unicode="&#x452;" horiz-adv-x="565" 
d="M100 0l117 555h-90l10 45h90l21 100h45l-21 -100h150l-10 -45h-150l-38 -183q19 22 43 39q57 39 118 39q83 0 132.5 -50t49.5 -132q0 -119 -73 -198.5t-170 -79.5h-19l9 45h15q74 0 133 64t59 164q0 65 -38 104t-103 39q-63 0 -115.5 -43t-68.5 -119l-51 -244h-45z" />
    <glyph glyph-name="uni0453" unicode="&#x453;" horiz-adv-x="410" 
d="M85 0l102 480h305l-10 -45h-260l-92 -435h-45zM325 565l102 130h55l-117 -130h-40z" />
    <glyph glyph-name="uni0454" unicode="&#x454;" horiz-adv-x="515" 
d="M141 225v-10q0 -78 48.5 -129t120.5 -51q55 0 109 34q23 15 41 35l28 -33q-24 -24 -51 -41q-64 -40 -133 -40q-89 0 -148.5 63t-59.5 156q0 115 82.5 198t184.5 83q81 0 139 -54q27 -25 43 -53l-41 -25q-12 21 -34 43q-44 44 -111 44q-69 0 -130 -50t-81 -125h258
l-10 -45h-255z" />
    <glyph glyph-name="uni0455" unicode="&#x455;" horiz-adv-x="430" 
d="M59 89l42 31q14 -26 32 -43q46 -42 105 -42q54 0 90 29.5t36 72.5q0 32 -35.5 56.5t-78.5 39.5t-78.5 45.5t-35.5 72.5q0 53 48 96t115 43q66 0 117 -43q23 -20 36 -43l-42 -31q-9 19 -26 36q-36 36 -92 36q-47 0 -78.5 -26.5t-31.5 -60.5q0 -25 23.5 -44.5t57 -34
t67 -30.5t57 -43t23.5 -62q0 -64 -50.5 -109t-124.5 -45q-81 0 -136 49q-26 23 -40 50z" />
    <glyph glyph-name="uni0456" unicode="&#x456;" horiz-adv-x="225" 
d="M252 685q14 0 23 -9t9 -22q0 -17 -11.5 -28t-27.5 -11q-14 0 -23 9t-9 22q0 17 11.5 28t27.5 11zM90 0l102 480h45l-102 -480h-45z" />
    <glyph glyph-name="uni0457" unicode="&#x457;" horiz-adv-x="225" 
d="M90 0l102 480h45l-102 -480h-45zM112 626q0 17 11.5 28t27.5 11q14 0 23 -9t9 -22q0 -17 -11.5 -28t-27.5 -11q-14 0 -23 9t-9 22zM287 626q0 17 11.5 28t27.5 11q14 0 23 -9t9 -22q0 -17 -11.5 -28t-27.5 -11q-14 0 -23 9t-9 22z" />
    <glyph glyph-name="uni0458" unicode="&#x458;" horiz-adv-x="225" 
d="M-86 -187l10 44q6 -6 18 -11q17 -11 47 -11t52 21.5t30 59.5l121 564h45l-122 -569q-12 -57 -47.5 -89t-83.5 -32q-32 0 -51 11q-12 5 -19 12zM213 646q0 17 11.5 28t27.5 11q14 0 23 -9t9 -22q0 -17 -11.5 -28t-27.5 -11q-14 0 -23 9t-9 22z" />
    <glyph glyph-name="uni0459" unicode="&#x459;" horiz-adv-x="791" 
d="M0 6l9 43q5 -4 13 -7q13 -7 33 -7q41 0 76.5 63t72.5 232l32 150h315l-41 -190h114q69 0 113 -35t44 -94q0 -73 -48 -117t-124 -44h-205l92 435h-225l-23 -110q-20 -99 -43.5 -166.5t-48.5 -103.5t-49 -50.5t-52 -14.5q-18 0 -40 8q-13 6 -15 8zM458 45h151
q59 0 92.5 28.5t33.5 83.5q0 40 -31 64t-81 24h-122z" />
    <glyph glyph-name="uni045A" unicode="&#x45a;" horiz-adv-x="797" 
d="M85 0l102 480h45l-41 -190h280l41 190h45l-41 -190h114q69 0 113 -35t44 -94q0 -73 -48 -117t-124 -44h-205l52 245h-280l-52 -245h-45zM464 45h151q59 0 92.5 28.5t33.5 83.5q0 40 -31 64t-81 24h-122z" />
    <glyph glyph-name="uni045B" unicode="&#x45b;" horiz-adv-x="585" 
d="M100 0l117 555h-90l10 45h90l21 100h45l-21 -100h150l-10 -45h-150l-30 -143q19 22 43 39q57 39 122 39q82 0 133 -64.5t31 -160.5l-56 -265h-45l58 269q16 73 -22.5 124.5t-111.5 51.5q-59 0 -111 -45t-68 -120l-60 -280h-45z" />
    <glyph glyph-name="uni045C" unicode="&#x45c;" horiz-adv-x="490" 
d="M84 0l101 480h45l-60 -285l326 285h62l-223 -196l144 -284h-51l-129 253l-143 -125l-27 -128h-45zM354 565l102 130h55l-117 -130h-40z" />
    <glyph glyph-name="uni045D" unicode="&#x45d;" horiz-adv-x="575" 
d="M85 0l102 480h45l-86 -400l406 400h40l-102 -480h-45l85 400l-405 -400h-40zM375 570l-63 130h55l48 -130h-40z" />
    <glyph glyph-name="uni045E" unicode="&#x45e;" horiz-adv-x="480" 
d="M-8 -198l11 45l14 -6q18 -6 33 -6q29 0 51.5 17.5t46.5 57.5l56 92l-92 478h48l80 -420l260 420h52l-352 -570q-40 -65 -74 -92.5t-79 -27.5q-18 0 -40 6zM222 694h39v-12q0 -36 22 -57t63 -21q37 0 63.5 23t32.5 67h41q-12 -61 -51.5 -95.5t-90.5 -34.5q-54 0 -86.5 31
t-32.5 84v15z" />
    <glyph glyph-name="uni045F" unicode="&#x45f;" horiz-adv-x="565" 
d="M85 0l102 480h45l-93 -435h305l93 435h45l-102 -480h-175l-26 -120h-45l26 120h-175z" />
    <glyph glyph-name="uni0462" unicode="&#x462;" horiz-adv-x="680" 
d="M215 50h226q77 0 126 47.5t49 123.5q0 58 -42 93.5t-113 35.5h-182zM155 0l114 540h-155l10 45h155l24 115h50l-24 -115h195l-10 -45h-195l-29 -140h180q77 0 137 -46t60 -132q0 -96 -67 -159t-166 -63h-279z" />
    <glyph glyph-name="uni0463" unicode="&#x463;" horiz-adv-x="520" 
d="M120 0l92 435h-125l10 45h125l46 220h45l-46 -220h175l-10 -45h-175l-27 -125h125q70 0 112.5 -39t42.5 -98q0 -76 -51.5 -124.5t-127.5 -48.5h-211zM174 45h161q57 0 93.5 34t36.5 88q0 42 -30 70t-85 28h-129z" />
    <glyph glyph-name="uni046A" unicode="&#x46a;" horiz-adv-x="775" 
d="M70 0l21 100q60 287 317 295l-182 270l7 35h610l-7 -35l-302 -274q120 -24 168 -115.5t18 -230.5l-10 -45h-50l10 45q28 137 -14.5 212t-166.5 93l-74 -350h-50l74 350q-76 -1 -130 -20t-87 -57t-52 -82.5t-33 -110.5l-17 -80h-50zM466 390l286 260h-455z" />
    <glyph glyph-name="uni046B" unicode="&#x46b;" horiz-adv-x="625" 
d="M90 0h-45q18 115 89.5 185t179.5 70l-140 190l8 35h475l-8 -35l-220 -190q90 -26 133 -89.5t28 -165.5h-44q13 78 -26.5 139t-134.5 76l-45 -215h-45l45 215q-207 0 -250 -215zM367 255l206 180h-335z" />
    <glyph glyph-name="uni0472" unicode="&#x472;" horiz-adv-x="830" 
d="M448 -10q-137 0 -227 93t-90 227q0 109 57 202t148 145.5t192 52.5q137 0 227 -93t90 -227q0 -109 -57 -202t-148 -145.5t-192 -52.5zM185 366q24 10 47 17q62 17 114 17q59 0 148.5 -25t140.5 -25q63 0 116 17q23 7 44 18q0 118 -77 196.5t-198 78.5
q-119 0 -215.5 -81.5t-119.5 -212.5zM456 40q119 0 215.5 81.5t119.5 212.5q-15 -8 -47 -17q-55 -17 -114 -17t-148.5 25t-140.5 25q-60 0 -116 -18q-20 -6 -44 -17q0 -118 77 -196.5t198 -78.5z" />
    <glyph glyph-name="uni0473" unicode="&#x473;" 
d="M309 -10q-91 0 -152 64.5t-61 156.5q0 115 83.5 197t187.5 82q91 0 152 -64.5t61 -156.5q0 -115 -83.5 -197t-187.5 -82zM143 250q12 7 32 15q43 15 74 15q38 0 93.5 -17.5t89.5 -17.5q38 0 74 15q14 5 29 15q-6 74 -53.5 122t-120.5 48t-138.5 -55.5t-79.5 -139.5z
M533 230q-13 -9 -32 -15q-37 -15 -74 -15q-38 0 -93.5 17.5t-89.5 17.5q-33 0 -74 -15q-11 -5 -29 -15q6 -74 53.5 -122t120.5 -48q74 0 138.5 55t79.5 140z" />
    <glyph glyph-name="uni0474" unicode="&#x474;" horiz-adv-x="670" 
d="M285 0l-127 700h52l112 -625l308 509q40 67 74.5 96.5t75.5 29.5q23 0 49 -11q11 -5 19 -11l-25 -43q-10 4 -15 7q-18 8 -35 8q-22 0 -41 -17.5t-47 -63.5l-350 -579h-50z" />
    <glyph glyph-name="uni0475" unicode="&#x475;" horiz-adv-x="505" 
d="M205 0l-93 480h48l80 -420l209 337q31 50 58 71.5t62 21.5q23 0 45 -8l16 -8l-18 -43l-11 7q-19 7 -34 7q-20 0 -35.5 -11.5t-33.5 -40.5l-243 -393h-50z" />
    <glyph glyph-name="uni048A" unicode="&#x48a;" horiz-adv-x="780" 
d="M110 0l148 700h50l-127 -601l592 601h40l-138 -650h105l-142 -200h-40l92 150h-75l127 601l-592 -601h-40zM429 925h44v-10q0 -33 21.5 -54t56.5 -21t60.5 22t32.5 63h46q-12 -62 -51 -96t-91 -34q-54 0 -86.5 31.5t-32.5 82.5v16z" />
    <glyph glyph-name="uni048B" unicode="&#x48b;" horiz-adv-x="575" 
d="M85 0l102 480h45l-86 -400l406 400h40l-93 -435h90l-115 -165h-40l71 120h-60l85 400l-405 -400h-40zM283 694h39v-12q0 -36 22 -57t63 -21q37 0 63.5 23t32.5 67h41q-12 -61 -51.5 -95.5t-90.5 -34.5q-54 0 -86.5 31t-32.5 84v15z" />
    <glyph glyph-name="uni048C" unicode="&#x48c;" horiz-adv-x="680" 
d="M215 50h226q77 0 126 47.5t49 123.5q0 58 -42 93.5t-113 35.5h-182zM155 0l114 540h-155l10 45h155l24 115h50l-24 -115h195l-10 -45h-195l-29 -140h180q77 0 137 -46t60 -132q0 -96 -67 -159t-166 -63h-279z" />
    <glyph glyph-name="uni048D" unicode="&#x48d;" horiz-adv-x="520" 
d="M120 0l92 435h-125l10 45h125l46 220h45l-46 -220h175l-10 -45h-175l-27 -125h125q70 0 112.5 -39t42.5 -98q0 -76 -51.5 -124.5t-127.5 -48.5h-211zM174 45h161q57 0 93.5 34t36.5 88q0 42 -30 70t-85 28h-129z" />
    <glyph glyph-name="uni048E" unicode="&#x48e;" horiz-adv-x="645" 
d="M110 0l148 700h237q80 0 138 -55.5t58 -137.5q0 -76 -44 -135t-115 -86l42 -88l-43 -28l-49 103l-10 -2q-7 -1 -26 -1h-229l-57 -270h-50zM228 320h232l-43 90l43 28l52 -109q58 18 93.5 64.5t35.5 111.5q0 66 -46.5 105.5t-109.5 39.5h-187z" />
    <glyph glyph-name="uni048F" unicode="&#x48f;" horiz-adv-x="590" 
d="M40 -210l147 690h45l-17 -76q20 23 48 43q63 43 132 43q86 0 143.5 -60t57.5 -154q0 -80 -36 -143.5t-96 -102.5l40 -80l-37 -23l-40 82q-45 -19 -90 -19q-90 0 -146 62q-25 26 -37 63l-69 -325h-45zM408 48l-56 115l37 22l57 -117q47 32 76 85.5t29 117.5q0 74 -46 124
t-116 50q-81 0 -145 -69t-64 -167q0 -74 46 -124t116 -50q29 0 66 13z" />
    <glyph glyph-name="uni0490" unicode="&#x490;" horiz-adv-x="555" 
d="M110 0l148 700h375l30 140h50l-40 -190h-375l-138 -650h-50z" />
    <glyph glyph-name="uni0491" unicode="&#x491;" horiz-adv-x="410" 
d="M85 0l102 480h260l25 120h45l-35 -165h-260l-92 -435h-45z" />
    <glyph glyph-name="uni0492" unicode="&#x492;" 
d="M135 0l70 330h-105l10 50h105l68 320h425l-10 -50h-375l-58 -270h215l-10 -50h-215l-70 -330h-50z" />
    <glyph glyph-name="uni0493" unicode="&#x493;" horiz-adv-x="430" 
d="M105 0l44 210h-85l10 45h85l48 225h305l-10 -45h-260l-38 -180h150l-10 -45h-150l-44 -210h-45z" />
    <glyph glyph-name="uni0494" unicode="&#x494;" horiz-adv-x="645" 
d="M110 0l148 700h425l-10 -50h-375l-66 -312q24 14 48 23q62 24 124 24q105 0 166 -56t61 -150q0 -136 -83 -220t-196 -84h-34l11 50h27q90 0 158 69t68 178q0 76 -50 119.5t-138 43.5q-67 0 -127 -29q-31 -15 -48 -29l-59 -277h-50z" />
    <glyph glyph-name="uni0495" unicode="&#x495;" horiz-adv-x="475" 
d="M205 -210l9 44h15q69 0 128 62.5t59 172.5q0 67 -35.5 104t-93.5 37q-42 0 -88 -24q-13 -7 -35 -23l-34 -163h-45l102 480h305l-10 -45h-260l-46 -217q17 11 34 18q44 19 86 19q73 0 119 -49t46 -132q0 -68 -22 -124t-57.5 -90t-76 -52t-80.5 -18h-20z" />
    <glyph glyph-name="uni0496" unicode="&#x496;" horiz-adv-x="945" 
d="M0 0l380 413l-202 287h60l261 -375l79 375h50l-79 -375l419 375h67l-327 -292l177 -358h90l-42 -200h-50l32 150h-60l-186 373l-136 -122l-53 -251h-50l55 260l-77 115l-345 -375h-63z" />
    <glyph glyph-name="uni0497" unicode="&#x497;" horiz-adv-x="710" 
d="M5 0l268 288l-136 192h55l180 -255l55 255h45l-55 -255l290 255h62l-223 -197l121 -238h72l-35 -165h-45l26 120h-45l-129 252l-107 -94l-34 -158h-45l35 165l-62 87l-233 -252h-60z" />
    <glyph glyph-name="uni0498" unicode="&#x498;" horiz-adv-x="570" 
d="M233 -150l30 142q-94 10 -155 71q-25 24 -43 58l41 31q16 -30 43 -56q62 -56 160 -56q85 0 138 47.5t53 114.5q0 60 -47 101.5t-123 41.5h-72l10 50h112q78 0 124.5 41t46.5 100q0 52 -43.5 88t-123.5 36q-59 0 -119 -31q-22 -12 -45 -31l-27 37q25 22 54 37
q70 38 142 38q98 0 155 -50t57 -122q0 -97 -82 -147q-36 -23 -82 -30q31 -12 57 -33q58 -48 58 -120q0 -86 -68 -150t-172 -68l-29 -140h-50z" />
    <glyph glyph-name="uni0499" unicode="&#x499;" horiz-adv-x="425" 
d="M173 -120l24 112q-64 9 -112 57q-19 19 -30 45l36 27q13 -25 33 -43q43 -43 112 -43q58 0 92.5 29t34.5 70q0 37 -30 64t-83 27h-48l10 45h67q48 0 80 26.5t32 66.5q0 33 -28.5 57.5t-79.5 24.5q-44 0 -86 -24q-16 -9 -33 -23l-27 38q18 15 42 27q56 27 109 27
q68 0 108.5 -35.5t40.5 -85.5q0 -30 -11 -54t-26 -36.5t-32 -20.5t-27 -10.5t-13 -2.5l10 -4q9 -4 20 -11.5t23 -19t20 -30t8 -40.5q0 -61 -46.5 -103.5t-120.5 -46.5l-24 -110h-45z" />
    <glyph glyph-name="uni049A" unicode="&#x49a;" horiz-adv-x="665" 
d="M110 0l148 700h50l-91 -430l481 430h67l-327 -292l177 -358h80l-42 -200h-50l32 150h-50l-185 374l-198 -177l-42 -197h-50z" />
    <glyph glyph-name="uni049B" unicode="&#x49b;" horiz-adv-x="500" 
d="M85 0l102 480h45l-61 -285l326 285h62l-223 -196l121 -239h72l-35 -165h-45l26 120h-46l-129 253l-143 -125l-27 -128h-45z" />
    <glyph glyph-name="uni049C" unicode="&#x49c;" horiz-adv-x="665" 
d="M110 0l148 700h50l-68 -320h80l29 135h50l-29 -135h63l286 320h64l-308 -345l185 -355h-55l-173 330h-72l-29 -135h-50l29 135h-80l-70 -330h-50z" />
    <glyph glyph-name="uni049D" unicode="&#x49d;" horiz-adv-x="510" 
d="M85 0l102 480h45l-46 -215h70l22 105h45l-22 -105h42l171 215h58l-190 -235l108 -245h-50l-99 220h-50l-21 -100h-45l21 100h-70l-46 -220h-45z" />
    <glyph glyph-name="uni049E" unicode="&#x49e;" horiz-adv-x="675" 
d="M140 0l115 545h-140l10 45h140l23 110h50l-23 -110h130l-10 -45h-130l-58 -275l481 430h67l-327 -292l202 -408h-55l-185 374l-198 -177l-42 -197h-50z" />
    <glyph glyph-name="uni049F" unicode="&#x49f;" horiz-adv-x="505" 
d="M100 0l117 555h-85l10 45h85l21 100h45l-21 -100h150l-10 -45h-150l-76 -360l326 285h62l-223 -196l144 -284h-51l-129 253l-143 -125l-27 -128h-45z" />
    <glyph glyph-name="uni04A0" unicode="&#x4a0;" horiz-adv-x="725" 
d="M190 0l138 650h-190l10 50h240l-91 -430l481 430h67l-327 -292l202 -408h-55l-185 374l-198 -177l-42 -197h-50z" />
    <glyph glyph-name="uni04A1" unicode="&#x4a1;" horiz-adv-x="510" 
d="M105 0l92 435h-105l10 45h150l-61 -285l326 285h62l-223 -196l144 -284h-51l-129 253l-143 -125l-27 -128h-45z" />
    <glyph glyph-name="uni04A2" unicode="&#x4a2;" horiz-adv-x="755" 
d="M110 0l148 700h50l-68 -320h425l68 320h50l-138 -650h90l-42 -200h-50l32 150h-90l70 330h-425l-70 -330h-50z" />
    <glyph glyph-name="uni04A3" unicode="&#x4a3;" horiz-adv-x="590" 
d="M85 0l102 480h45l-46 -215h310l46 215h45l-93 -435h80l-35 -165h-45l26 120h-80l46 220h-310l-46 -220h-45z" />
    <glyph glyph-name="uni04A4" unicode="&#x4a4;" horiz-adv-x="980" 
d="M110 0l148 700h50l-68 -320h405l68 320h395l-10 -50h-345l-138 -650h-50l70 330h-405l-70 -330h-50z" />
    <glyph glyph-name="uni04A5" unicode="&#x4a5;" horiz-adv-x="725" 
d="M85 0l102 480h45l-46 -215h295l46 215h280l-10 -45h-235l-92 -435h-45l46 220h-295l-46 -220h-45z" />
    <glyph glyph-name="uni04A6" unicode="&#x4a6;" horiz-adv-x="1095" 
d="M110 0l148 700h515l-76 -362q24 14 48 23q62 24 124 24q105 0 166 -56t61 -150q0 -136 -83 -220t-196 -84h-34l11 50h27q90 0 158 69t68 178q0 76 -50 119.5t-138 43.5q-67 0 -127 -29q-30 -15 -48 -29l-59 -277h-50l138 650h-415l-138 -650h-50z" />
    <glyph glyph-name="uni04A7" unicode="&#x4a7;" horiz-adv-x="820" 
d="M85 0l102 480h385l-56 -262q17 11 34 18q44 19 86 19q73 0 119 -49t46 -132q0 -68 -22 -124t-57.5 -90t-76 -52t-80.5 -18h-20l9 44h15q69 0 128 62.5t59 172.5q0 67 -35.5 104t-93.5 37q-42 0 -88 -24q-13 -7 -35 -23l-34 -163h-45l92 435h-295l-92 -435h-45z" />
    <glyph glyph-name="uni04A8" unicode="&#x4a8;" horiz-adv-x="815" 
d="M775 65l11 -47q-14 -9 -30 -14q-40 -14 -90 -14q-59 0 -92 12q-16 4 -28 13q-19 -10 -34 -13q-39 -12 -91 -12q-124 0 -207.5 85.5t-83.5 226.5q0 93 34.5 171.5t90 128.5t121 78t130.5 30l-10 -50q-53 0 -107.5 -24.5t-101.5 -69t-77 -114.5t-30 -152
q0 -115 68.5 -187.5t184.5 -72.5q31 0 47 4q9 1 20 5q-31 26 -57 65q-57 85 -57 186q0 159 80.5 254.5t179.5 95.5q78 0 129.5 -62t51.5 -160q0 -71 -23.5 -136t-53.5 -106.5t-66.5 -75.5t-55 -46.5t-27.5 -16.5q0 -1 8.5 -2.5t24.5 -3t32 -1.5q43 0 77 12q16 4 32 13z
M549 70q101 48 164.5 147t63.5 208q0 84 -39 129.5t-98 45.5q-79 0 -141.5 -78.5t-62.5 -215.5q0 -99 56 -177q26 -36 57 -59z" />
    <glyph glyph-name="uni04A9" unicode="&#x4a9;" horiz-adv-x="605" 
d="M582 66l28 -35q-14 -13 -31 -21q-38 -20 -99 -20q-41 0 -71 10q-15 5 -22 11q-9 -5 -27 -11q-32 -10 -60 -10q-88 0 -146.5 59.5t-58.5 153.5q0 123 75 201.5t168 85.5l-10 -45q-71 -9 -129.5 -72.5t-58.5 -163.5q0 -74 47 -124t117 -50q22 0 33 3l11 4q-18 19 -32 46
q-32 58 -32 122q0 104 52.5 167t117.5 63q52 0 85 -37.5t33 -104.5q0 -110 -70 -196q-32 -38 -69 -63l4 -1q4 -2 7 -3q12 -3 35 -3q46 0 78 17q16 8 25 17zM394 60q36 22 67 57q67 79 67 177q0 48 -22 74.5t-56 26.5q-47 0 -84 -46.5t-37 -132.5q0 -63 32 -117
q13 -23 33 -39z" />
    <glyph glyph-name="uni04AA" unicode="&#x4aa;" horiz-adv-x="750" 
d="M390 -150l30 141q-128 12 -208.5 101.5t-80.5 216.5q0 165 121 283t275 118q114 0 207 -77q41 -36 65 -77l-42 -27q-22 37 -54 65q-78 66 -184 66q-133 0 -235.5 -101t-102.5 -247q0 -117 77 -194.5t199 -77.5q95 0 178 52q36 22 66 53l28 -35q-35 -33 -71 -56
q-90 -58 -188 -63l-30 -141h-50z" />
    <glyph glyph-name="uni04AB" unicode="&#x4ab;" horiz-adv-x="515" 
d="M244 -120l24 113q-75 12 -123.5 73t-48.5 143q0 115 82.5 198t184.5 83q81 0 139 -54q27 -25 43 -53l-41 -25q-12 21 -34 43q-44 44 -111 44q-82 0 -150 -67.5t-68 -162.5q0 -78 48.5 -129t120.5 -51q55 0 109 34q23 15 41 35l28 -33q-24 -22 -49 -39q-59 -38 -127 -42
l-23 -110h-45z" />
    <glyph glyph-name="uni04AC" unicode="&#x4ac;" horiz-adv-x="545" 
d="M298 -150l32 150h-90l138 650h-230l10 50h510l-10 -50h-230l-128 -600h90l-42 -200h-50z" />
    <glyph glyph-name="uni04AD" unicode="&#x4ad;" horiz-adv-x="440" 
d="M244 -120l26 120h-80l92 435h-180l10 45h405l-10 -45h-180l-83 -390h80l-35 -165h-45z" />
    <glyph glyph-name="uni04AE" unicode="&#x4ae;" horiz-adv-x="600" 
d="M260 0l52 245l-164 455h55l140 -400l310 400h65l-356 -455l-52 -245h-50z" />
    <glyph glyph-name="uni04AF" unicode="&#x4af;" horiz-adv-x="480" 
d="M163 -210l43 203l-94 487h47l80 -420l260 420h53l-302 -487l-43 -203h-44z" />
    <glyph glyph-name="uni04B0" unicode="&#x4b0;" horiz-adv-x="600" 
d="M260 0l45 215h-165l10 45h165l1 5l-168 435h55l145 -380l305 380h65l-352 -435l-1 -5h165l-10 -45h-165l-45 -215h-50z" />
    <glyph glyph-name="uni04B1" unicode="&#x4b1;" horiz-adv-x="480" 
d="M163 -210l33 155h-113l9 45h113l1 3l-94 487h47l80 -420l260 420h53l-303 -490h113l-9 -45h-113l-33 -155h-44z" />
    <glyph glyph-name="uni04B2" unicode="&#x4b2;" horiz-adv-x="620" 
d="M15 0l337 365l-169 335h55l148 -295l272 295h65l-311 -335l158 -315h80l-42 -200h-50l32 150h-50l-161 325l-299 -325h-65z" />
    <glyph glyph-name="uni04B3" unicode="&#x4b3;" horiz-adv-x="450" 
d="M10 0l233 250l-116 230h51l98 -195l182 195h59l-214 -230l103 -205h73l-35 -165h-45l26 120h-46l-110 215l-200 -215h-59z" />
    <glyph glyph-name="uni04B4" unicode="&#x4b4;" horiz-adv-x="875" 
d="M240 0l138 650h-230l10 50h500l-10 -50h-220l-128 -600h414l138 650h50l-138 -650h91l-42 -200h-50l32 150h-555z" />
    <glyph glyph-name="uni04B5" unicode="&#x4b5;" horiz-adv-x="685" 
d="M190 0l92 435h-180l10 45h405l-10 -45h-180l-83 -390h300l93 435h45l-93 -435h80l-35 -165h-45l26 120h-425z" />
    <glyph glyph-name="uni04B6" unicode="&#x4b6;" horiz-adv-x="705" 
d="M587 -150l32 150h-90l64 301q-27 -17 -52 -26q-62 -25 -129 -25q-122 0 -180 77t-35 184l40 189h50l-41 -199q-19 -93 30.5 -147t142.5 -54q66 0 132 30q29 14 54 30l72 340h50l-138 -650h90l-42 -200h-50z" />
    <glyph glyph-name="uni04B7" unicode="&#x4b7;" horiz-adv-x="550" 
d="M451 -120l26 120h-80l40 191q-22 -10 -34 -13q-39 -13 -88 -13q-98 0 -144 55.5t-28 139.5l26 120h45l-27 -125q-14 -67 20.5 -106t111.5 -39q50 0 93 15q23 9 36 16l51 239h45l-93 -435h80l-35 -165h-45z" />
    <glyph glyph-name="uni04B8" unicode="&#x4b8;" horiz-adv-x="700" 
d="M338 140l24 114q-97 15 -141.5 88.5t-23.5 168.5l40 189h50l-41 -199q-17 -81 18.5 -132.5t108.5 -64.5l30 141h50l-31 -145q64 0 130 30q30 14 53 30l72 340h50l-148 -700h-50l64 301q-27 -17 -52 -26q-62 -25 -129 -25h-1l-23 -110h-50z" />
    <glyph glyph-name="uni04B9" unicode="&#x4b9;" horiz-adv-x="530" 
d="M253 80l18 88q-77 13 -111.5 65t-17.5 127l26 120h45l-27 -125q-13 -58 12 -95.5t83 -46.5l20 97h45l-21 -100q46 1 88 16q18 6 34 15l51 239h45l-102 -480h-45l40 191q-22 -10 -34 -13q-39 -13 -86 -13l-18 -85h-45z" />
    <glyph glyph-name="uni04BA" unicode="&#x4ba;" horiz-adv-x="675" 
d="M110 0l148 700h50l-64 -301q30 17 52 25q64 26 129 26q122 0 180 -77t35 -184l-40 -189h-50l41 199q19 93 -30.5 147t-142.5 54q-66 0 -132 -30q-28 -14 -54 -30l-72 -340h-50z" />
    <glyph glyph-name="uni04BB" unicode="&#x4bb;" horiz-adv-x="575" 
d="M90 0l148 700h45l-61 -288q19 22 43 39q57 39 122 39q82 0 133 -64.5t31 -160.5l-56 -265h-45l58 269q16 73 -22.5 124.5t-111.5 51.5q-59 0 -111 -45t-68 -120l-60 -280h-45z" />
    <glyph glyph-name="uni04BC" unicode="&#x4bc;" horiz-adv-x="865" 
d="M226 350h-11q-57 0 -87.5 23.5t-30.5 67.5q0 9 2.5 21.5t4.5 19.5l1 8h49l-5 -24q-7 -32 13.5 -49t59.5 -17h13q33 138 138.5 224t225.5 86q127 0 209 -87t82 -220q0 -15 -2 -37q-1 -6 -1 -16h-610l-2 -16q-2 -22 -2 -35q0 -116 74 -187.5t189 -71.5q81 0 159 40
q31 17 60 41l28 -34q-32 -29 -71 -49q-90 -48 -184 -48q-137 0 -221 87.5t-84 220.5q0 25 1 36zM289 400h551v7q0 109 -68 181t-181 72t-195 -75t-107 -185z" />
    <glyph glyph-name="uni04BD" unicode="&#x4bd;" horiz-adv-x="620" 
d="M174 210v10h-10q-50 0 -76 30t-15 77l5 23h45l-4 -20q-8 -34 5 -49.5t51 -15.5h4q20 98 95 161.5t161 63.5q85 0 140 -57.5t55 -150.5q0 -10 -3 -43l-3 -19h-406v-6q0 -76 48 -127.5t123 -51.5q55 0 109 34q23 15 41 35l27 -33q-24 -24 -51 -41q-64 -40 -133 -40
q-89 0 -148.5 63.5t-59.5 156.5zM225 265h361v12q0 75 -41.5 121.5t-112.5 46.5q-68 0 -130.5 -52t-76.5 -128z" />
    <glyph glyph-name="uni04BE" unicode="&#x4be;" horiz-adv-x="865" 
d="M443 -150l30 144q-114 18 -182 101.5t-68 202.5q0 25 1 36l2 16h-11q-57 0 -87.5 23.5t-30.5 67.5q0 9 2.5 21.5t4.5 19.5l1 8h49l-5 -24q-7 -32 13.5 -49t59.5 -17h13q33 138 138.5 224t225.5 86q127 0 209 -87t82 -220q0 -15 -2 -37q-1 -6 -1 -16h-610l-2 -16
q-2 -22 -2 -35q0 -116 74 -187.5t189 -71.5q81 0 159 40q31 17 60 41l28 -34q-32 -29 -71 -49q-90 -48 -184 -48h-5l-30 -140h-50zM289 400h551v7q0 109 -68 181t-181 72t-195 -75t-107 -185z" />
    <glyph glyph-name="uni04BF" unicode="&#x4bf;" horiz-adv-x="620" 
d="M323 -120l24 113q-75 12 -124 72.5t-49 144.5v10h-10q-50 0 -76 30t-15 77l5 23h45l-4 -20q-8 -34 5 -49.5t51 -15.5h4q20 98 95 161.5t161 63.5q85 0 140 -57.5t55 -150.5q0 -10 -3 -43l-3 -19h-406v-6q0 -76 48 -127.5t123 -51.5q55 0 109 34q23 15 41 35l27 -33
q-21 -21 -48 -39q-59 -38 -127 -42l-23 -110h-45zM225 265h361v12q0 75 -41.5 121.5t-112.5 46.5q-68 0 -130.5 -52t-76.5 -128z" />
    <glyph glyph-name="uni04C0" unicode="&#x4c0;" horiz-adv-x="270" 
d="M110 0l148 700h50l-148 -700h-50z" />
    <glyph glyph-name="uni04C1" unicode="&#x4c1;" horiz-adv-x="910" 
d="M0 0l380 413l-202 287h60l261 -375l79 375h50l-79 -375l419 375h67l-327 -292l202 -408h-55l-186 373l-136 -122l-53 -251h-50l55 260l-77 115l-345 -375h-63zM495 925h44v-10q0 -33 21.5 -54t56.5 -21t60.5 22t32.5 63h46q-12 -62 -51 -96t-91 -34q-54 0 -86.5 31.5
t-32.5 82.5v16z" />
    <glyph glyph-name="uni04C2" unicode="&#x4c2;" horiz-adv-x="695" 
d="M5 0l268 288l-136 192h55l180 -255l55 255h45l-55 -255l290 255h62l-223 -197l144 -283h-50l-129 252l-107 -94l-34 -158h-45l35 165l-62 87l-233 -252h-60zM341 694h39v-12q0 -36 22 -57t63 -21q37 0 63.5 23t32.5 67h41q-12 -61 -51.5 -95.5t-90.5 -34.5
q-54 0 -86.5 31t-32.5 84v15z" />
    <glyph glyph-name="uni04C3" unicode="&#x4c3;" horiz-adv-x="680" 
d="M110 0l148 700h50l-91 -430l481 430h67l-360 -321l15 5q22 6 44 6q97 0 151.5 -61t54.5 -162q0 -94 -36.5 -177.5t-106.5 -136.5t-156 -53h-29l11 50h24q104 0 173 94.5t69 216.5q0 90 -46 134.5t-126 44.5q-91 0 -190 -90l-55 -50l-42 -200h-50z" />
    <glyph glyph-name="uni04C4" unicode="&#x4c4;" horiz-adv-x="495" 
d="M238 -210l9 44h15q66 0 122 63.5t56 177.5q0 65 -35.5 100t-96.5 35q-48 0 -105 -41q-23 -16 -46 -41l-27 -128h-45l102 480h45l-61 -285l326 285h62l-260 -228q6 0 9 1q14 2 22 2q65 0 109.5 -45.5t44.5 -130.5q0 -135 -70 -212t-156 -77h-20z" />
    <glyph glyph-name="uni04C5" unicode="&#x4c5;" horiz-adv-x="735" 
d="M-4 10l9 46l21 -8q24 -8 41 -8q28 0 52.5 17.5t52.5 62.5t57 134.5t56 220.5l47 225h435l-138 -650h105l-142 -200h-40l92 150h-75l138 650h-335l-38 -180q-24 -115 -50.5 -201t-52 -139t-53.5 -85t-53.5 -43.5t-55.5 -11.5q-26 0 -52 10q-14 6 -21 10z" />
    <glyph glyph-name="uni04C6" unicode="&#x4c6;" horiz-adv-x="555" 
d="M0 6l9 43q5 -4 13 -7q13 -7 33 -7q41 0 76.5 63t72.5 232l32 150h335l-93 -435h90l-115 -165h-40l71 120h-60l92 435h-245l-23 -110q-20 -99 -43.5 -166.5t-48.5 -103.5t-49 -50.5t-52 -14.5q-18 0 -40 8q-13 6 -15 8z" />
    <glyph glyph-name="uni04C7" unicode="&#x4c7;" horiz-adv-x="745" 
d="M110 0l148 700h50l-68 -320h425l68 320h50l-165 -779q-27 -131 -131 -131q-36 0 -58 12q-12 5 -20 12l11 48q6 -6 18 -11q19 -11 50 -11q33 0 52.5 20.5t28.5 65.5l86 404h-425l-70 -330h-50z" />
    <glyph glyph-name="uni04C8" unicode="&#x4c8;" horiz-adv-x="570" 
d="M85 0l102 480h45l-46 -215h310l46 215h45l-125 -585q-22 -105 -112 -105q-32 0 -51 11q-14 6 -20 11l10 45q7 -7 17 -11q17 -11 43 -11q56 0 69 64l68 321h-310l-46 -220h-45z" />
    <glyph glyph-name="uni04C9" unicode="&#x4c9;" horiz-adv-x="750" 
d="M110 0l148 700h50l-68 -320h425l68 320h50l-138 -650h105l-142 -200h-40l92 150h-75l70 330h-425l-70 -330h-50z" />
    <glyph glyph-name="uni04CA" unicode="&#x4ca;" horiz-adv-x="570" 
d="M85 0l102 480h45l-46 -215h310l46 215h45l-93 -435h90l-115 -165h-40l71 120h-60l46 220h-310l-46 -220h-45z" />
    <glyph glyph-name="uni04CB" unicode="&#x4cb;" horiz-adv-x="695" 
d="M407 -150l42 200h90v-1l54 252q-27 -17 -52 -26q-62 -25 -129 -25q-122 0 -180 77t-35 184l40 189h50l-41 -199q-19 -93 30.5 -147t142.5 -54q66 0 132 30q29 14 54 30l72 340h50l-148 -700h-90l-32 -150h-50z" />
    <glyph glyph-name="uni04CC" unicode="&#x4cc;" horiz-adv-x="530" 
d="M291 -120l35 165h80l31 146q-22 -10 -34 -13q-39 -13 -88 -13q-98 0 -144 55.5t-28 139.5l26 120h45l-27 -125q-14 -67 20.5 -106t111.5 -39q50 0 93 15q23 9 36 16l51 239h45l-102 -480h-80l-26 -120h-45z" />
    <glyph glyph-name="uni04CD" unicode="&#x4cd;" horiz-adv-x="925" 
d="M110 0l148 700h35l222 -415l398 415h45l-138 -650h105l-142 -200h-40l92 150h-75l128 605l-385 -400l-215 400l-128 -605h-50z" />
    <glyph glyph-name="uni04CE" unicode="&#x4ce;" horiz-adv-x="650" 
d="M85 0l102 480h30l147 -270l263 270h40l-93 -435h90l-115 -165h-40l71 120h-60l82 390l-248 -250l-142 250l-82 -390h-45z" />
    <glyph glyph-name="uni04CF" unicode="&#x4cf;" horiz-adv-x="225" 
d="M90 0l148 700h45l-148 -700h-45z" />
    <glyph glyph-name="uni04D0" unicode="&#x4d0;" horiz-adv-x="670" 
d="M35 0l438 700h50l142 -700h-51l-42 205h-350l-128 -205h-59zM253 255h310l-76 375zM391 925h39v-12q0 -36 22 -57t63 -21q37 0 63.5 23t32.5 67h41q-12 -61 -51.5 -95.5t-90.5 -34.5q-54 0 -86.5 31t-32.5 84v15z" />
    <glyph glyph-name="uni04D1" unicode="&#x4d1;" horiz-adv-x="505" 
d="M253 694h39v-12q0 -36 22 -57t63 -21q37 0 63.5 23t32.5 67h41q-12 -61 -51.5 -95.5t-90.5 -34.5q-54 0 -86.5 31t-32.5 84v15zM386 0l15 72q-22 -26 -44 -41q-57 -41 -124 -41q-70 0 -112.5 37.5t-42.5 90.5q0 55 39 95t119 54l213 33q8 65 -24.5 105t-97.5 40
q-52 0 -97 -28q-23 -13 -38 -28l-24 33q17 17 46 34q58 34 118 34q87 0 131.5 -59t26.5 -150l-59 -281h-45zM428 196l12 59l-192 -31q-124 -20 -124 -101q0 -37 30.5 -62.5t85.5 -25.5q66 0 120.5 46t67.5 115z" />
    <glyph glyph-name="uni04D2" unicode="&#x4d2;" horiz-adv-x="670" 
d="M395 856q0 17 11.5 28t27.5 11q14 0 23 -9t9 -22q0 -17 -11.5 -28t-27.5 -11q-14 0 -23 9t-9 22zM570 856q0 17 11.5 28t27.5 11q14 0 23 -9t9 -22q0 -17 -11.5 -28t-27.5 -11q-14 0 -23 9t-9 22zM35 0l438 700h50l142 -700h-51l-42 205h-350l-128 -205h-59zM253 255h310
l-76 375z" />
    <glyph glyph-name="uni04D3" unicode="&#x4d3;" horiz-adv-x="505" 
d="M252 626q0 17 11.5 28t27.5 11q14 0 23 -9t9 -22q0 -17 -11.5 -28t-27.5 -11q-14 0 -23 9t-9 22zM427 626q0 17 11.5 28t27.5 11q14 0 23 -9t9 -22q0 -17 -11.5 -28t-27.5 -11q-14 0 -23 9t-9 22zM386 0l15 72q-22 -26 -44 -41q-57 -41 -124 -41q-70 0 -112.5 37.5
t-42.5 90.5q0 55 39 95t119 54l213 33q8 65 -24.5 105t-97.5 40q-52 0 -97 -28q-23 -13 -38 -28l-24 33q17 17 46 34q58 34 118 34q87 0 131.5 -59t26.5 -150l-59 -281h-45zM428 196l12 59l-192 -31q-124 -20 -124 -101q0 -37 30.5 -62.5t85.5 -25.5q66 0 120.5 46t67.5 115
z" />
    <glyph glyph-name="uni04D6" unicode="&#x4d6;" horiz-adv-x="630" 
d="M390 925h44v-10q0 -33 21.5 -54t56.5 -21t60.5 22t32.5 63h46q-12 -62 -51 -96t-91 -34q-54 0 -86.5 31.5t-32.5 82.5v16zM110 0l148 700h470l-10 -50h-420l-56 -260h340l-10 -50h-340l-62 -290h430l-10 -50h-480z" />
    <glyph glyph-name="uni04D7" unicode="&#x4d7;" horiz-adv-x="550" 
d="M266 694h39v-12q0 -36 22 -57t63 -21q37 0 63.5 23t32.5 67h41q-12 -61 -51.5 -95.5t-90.5 -34.5q-54 0 -86.5 31t-32.5 84v15zM461 104l27 -33q-24 -24 -51 -41q-64 -40 -133 -40q-89 0 -148.5 63.5t-59.5 156.5q0 118 80.5 199t180.5 81q85 0 140 -57.5t55 -150.5
q0 -10 -3 -43l-3 -19h-406v-6q0 -76 48 -127.5t123 -51.5q55 0 109 34q23 15 41 35zM147 265h361v12q0 75 -41.5 121.5t-112.5 46.5q-68 0 -130.5 -52t-76.5 -128z" />
    <glyph glyph-name="uni04D8" unicode="&#x4d8;" horiz-adv-x="775" 
d="M127 350h610l2 16q2 18 2 35q0 116 -74 187.5t-189 71.5q-79 0 -159 -41q-35 -19 -60 -40l-28 34q31 28 70 48q92 49 185 49q137 0 221 -87.5t84 -220.5q0 -88 -33 -166t-86 -131t-120.5 -84t-136.5 -31q-127 0 -209 87t-82 220q0 26 1 37zM725 300h-551v-7
q0 -109 67.5 -181t181.5 -72q113 0 195 75t107 185z" />
    <glyph glyph-name="uni04D9" unicode="&#x4d9;" horiz-adv-x="550" 
d="M100 260h406v6q0 76 -48 127.5t-123 51.5q-53 0 -109 -35q-25 -17 -41 -34l-27 33q21 21 51 40q66 41 133 41q89 0 148.5 -63.5t59.5 -156.5q0 -118 -80.5 -199t-180.5 -81q-85 0 -140 57.5t-55 150.5q0 25 3 43zM499 215h-361v-12q0 -75 41.5 -121.5t112.5 -46.5
q68 0 130.5 52t76.5 128z" />
    <glyph glyph-name="uni04DA" unicode="&#x4da;" horiz-adv-x="775" 
d="M127 350h610l2 16q2 18 2 35q0 116 -74 187.5t-189 71.5q-79 0 -159 -41q-35 -19 -60 -40l-28 34q31 28 70 48q92 49 185 49q137 0 221 -87.5t84 -220.5q0 -88 -33 -166t-86 -131t-120.5 -84t-136.5 -31q-127 0 -209 87t-82 220q0 26 1 37zM725 300h-551v-7
q0 -109 67.5 -181t181.5 -72q113 0 195 75t107 185zM425 856q0 17 11.5 28t27.5 11q14 0 23 -9t9 -22q0 -17 -11.5 -28t-27.5 -11q-14 0 -23 9t-9 22zM600 856q0 17 11.5 28t27.5 11q14 0 23 -9t9 -22q0 -17 -11.5 -28t-27.5 -11q-14 0 -23 9t-9 22z" />
    <glyph glyph-name="uni04DB" unicode="&#x4db;" horiz-adv-x="550" 
d="M100 260h406v6q0 76 -48 127.5t-123 51.5q-53 0 -109 -35q-25 -17 -41 -34l-27 33q21 21 51 40q66 41 133 41q89 0 148.5 -63.5t59.5 -156.5q0 -118 -80.5 -199t-180.5 -81q-85 0 -140 57.5t-55 150.5q0 25 3 43zM499 215h-361v-12q0 -75 41.5 -121.5t112.5 -46.5
q68 0 130.5 52t76.5 128zM265 631q0 17 11.5 28t27.5 11q14 0 23 -9t9 -22q0 -17 -11.5 -28t-27.5 -11q-14 0 -23 9t-9 22zM440 631q0 17 11.5 28t27.5 11q14 0 23 -9t9 -22q0 -17 -11.5 -28t-27.5 -11q-14 0 -23 9t-9 22z" />
    <glyph glyph-name="uni04DC" unicode="&#x4dc;" horiz-adv-x="910" 
d="M0 0l380 413l-202 287h60l261 -375l79 375h50l-79 -375l419 375h67l-327 -292l202 -408h-55l-186 373l-136 -122l-53 -251h-50l55 260l-77 115l-345 -375h-63zM500 856q0 17 11.5 28t27.5 11q14 0 23 -9t9 -22q0 -17 -11.5 -28t-27.5 -11q-14 0 -23 9t-9 22zM675 856
q0 17 11.5 28t27.5 11q14 0 23 -9t9 -22q0 -17 -11.5 -28t-27.5 -11q-14 0 -23 9t-9 22z" />
    <glyph glyph-name="uni04DD" unicode="&#x4dd;" horiz-adv-x="695" 
d="M5 0l268 288l-136 192h55l180 -255l55 255h45l-55 -255l290 255h62l-223 -197l144 -283h-50l-129 252l-107 -94l-34 -158h-45l35 165l-62 87l-233 -252h-60zM345 626q0 17 11.5 28t27.5 11q14 0 23 -9t9 -22q0 -17 -11.5 -28t-27.5 -11q-14 0 -23 9t-9 22zM520 626
q0 17 11.5 28t27.5 11q14 0 23 -9t9 -22q0 -17 -11.5 -28t-27.5 -11q-14 0 -23 9t-9 22z" />
    <glyph glyph-name="uni04DE" unicode="&#x4de;" horiz-adv-x="570" 
d="M65 121l41 31q16 -30 43 -56q62 -56 160 -56q85 0 138 47.5t53 114.5q0 60 -47 101.5t-123 41.5h-72l10 50h112q78 0 124.5 41t46.5 100q0 52 -43.5 88t-123.5 36q-59 0 -119 -31q-22 -12 -45 -31l-27 37q25 22 54 37q70 38 142 38q98 0 155 -50t57 -122q0 -97 -82 -147
q-36 -23 -82 -30q31 -12 57 -33q58 -48 58 -120q0 -87 -71.5 -152.5t-178.5 -65.5q-112 0 -185 65q-32 28 -52 66zM308 856q0 17 11.5 28t27.5 11q14 0 23 -9t9 -22q0 -17 -11.5 -28t-27.5 -11q-14 0 -23 9t-9 22zM483 856q0 17 11.5 28t27.5 11q14 0 23 -9t9 -22
q0 -17 -11.5 -28t-27.5 -11q-14 0 -23 9t-9 22z" />
    <glyph glyph-name="uni04DF" unicode="&#x4df;" horiz-adv-x="425" 
d="M55 94l36 27q13 -25 33 -43q43 -43 112 -43q58 0 92.5 29t34.5 70q0 37 -30 64t-83 27h-48l10 45h67q48 0 80 26.5t32 66.5q0 33 -28.5 57.5t-79.5 24.5q-44 0 -86 -24q-16 -9 -33 -23l-27 38q18 15 42 27q56 27 109 27q68 0 108.5 -35.5t40.5 -85.5q0 -68 -55 -103
q-24 -15 -54 -21q20 -8 40 -23q41 -33 41 -82q0 -62 -50 -106t-127 -44q-87 0 -139 52q-24 23 -38 52zM190 631q0 17 11.5 28t27.5 11q14 0 23 -9t9 -22q0 -17 -11.5 -28t-27.5 -11q-14 0 -23 9t-9 22zM365 631q0 17 11.5 28t27.5 11q14 0 23 -9t9 -22q0 -17 -11.5 -28
t-27.5 -11q-14 0 -23 9t-9 22z" />
    <glyph glyph-name="uni04E0" unicode="&#x4e0;" horiz-adv-x="560" 
d="M55 121l42 31q17 -30 48 -56q70 -56 163 -56q87 0 139 49.5t52 130.5q0 66 -49.5 103t-124.5 37h-99l9 40l308 250h-340l10 50h410l-10 -50l-296 -240h23q86 0 148 -52t62 -136q0 -100 -71.5 -166t-179.5 -66q-112 0 -189 65q-34 28 -55 66z" />
    <glyph glyph-name="uni04E1" unicode="&#x4e1;" horiz-adv-x="470" 
d="M-5 -97l42 31q15 -28 40 -49q55 -49 136 -49q75 0 126.5 49t51.5 124q0 61 -44 98.5t-106 37.5h-85l8 35l274 255h-300l10 45h365l-10 -45l-267 -245h4q88 0 142.5 -51t54.5 -125q0 -95 -66.5 -159.5t-162.5 -64.5q-95 0 -165 56q-30 26 -48 57z" />
    <glyph glyph-name="uni04E2" unicode="&#x4e2;" horiz-adv-x="775" 
d="M110 0l148 700h50l-127 -601l592 601h40l-148 -700h-50l127 601l-592 -601h-40zM427 840l8 40h270l-8 -40h-270z" />
    <glyph glyph-name="uni04E3" unicode="&#x4e3;" horiz-adv-x="575" 
d="M85 0l102 480h45l-86 -400l406 400h40l-102 -480h-45l85 400l-405 -400h-40zM277 620l8 40h270l-8 -40h-270z" />
    <glyph glyph-name="uni04E4" unicode="&#x4e4;" horiz-adv-x="775" 
d="M110 0l148 700h50l-127 -601l592 601h40l-148 -700h-50l127 601l-592 -601h-40zM435 856q0 17 11.5 28t27.5 11q14 0 23 -9t9 -22q0 -17 -11.5 -28t-27.5 -11q-14 0 -23 9t-9 22zM610 856q0 17 11.5 28t27.5 11q14 0 23 -9t9 -22q0 -17 -11.5 -28t-27.5 -11q-14 0 -23 9
t-9 22z" />
    <glyph glyph-name="uni04E5" unicode="&#x4e5;" horiz-adv-x="575" 
d="M85 0l102 480h45l-86 -400l406 400h40l-102 -480h-45l85 400l-405 -400h-40zM285 626q0 17 11.5 28t27.5 11q14 0 23 -9t9 -22q0 -17 -11.5 -28t-27.5 -11q-14 0 -23 9t-9 22zM460 626q0 17 11.5 28t27.5 11q14 0 23 -9t9 -22q0 -17 -11.5 -28t-27.5 -11q-14 0 -23 9
t-9 22z" />
    <glyph glyph-name="uni04E6" unicode="&#x4e6;" horiz-adv-x="830" 
d="M445 856q0 17 11.5 28t27.5 11q14 0 23 -9t9 -22q0 -17 -11.5 -28t-27.5 -11q-14 0 -23 9t-9 22zM620 856q0 17 11.5 28t27.5 11q14 0 23 -9t9 -22q0 -17 -11.5 -28t-27.5 -11q-14 0 -23 9t-9 22zM528 710q137 0 227 -93t90 -227q0 -109 -57 -202t-148 -145.5t-192 -52.5
q-137 0 -227 93t-90 227q0 109 57 202t148 145.5t192 52.5zM520 660q-134 0 -236.5 -100.5t-102.5 -246.5q0 -116 77 -194.5t198 -78.5q133 0 236 101.5t103 245.5q0 116 -77 194.5t-198 78.5z" />
    <glyph glyph-name="uni04E7" unicode="&#x4e7;" 
d="M285 626q0 17 11.5 28t27.5 11q14 0 23 -9t9 -22q0 -17 -11.5 -28t-27.5 -11q-14 0 -23 9t-9 22zM460 626q0 17 11.5 28t27.5 11q14 0 23 -9t9 -22q0 -17 -11.5 -28t-27.5 -11q-14 0 -23 9t-9 22zM367 490q91 0 152 -64.5t61 -156.5q0 -115 -83.5 -197t-187.5 -82
q-91 0 -152 64.5t-61 156.5q0 115 83.5 197t187.5 82zM315 35q84 0 152 67.5t68 162.5q0 76 -50 128t-124 52q-84 0 -152 -67.5t-68 -162.5q0 -76 50 -128t124 -52z" />
    <glyph glyph-name="uni04E8" unicode="&#x4e8;" horiz-adv-x="830" 
d="M448 -10q-137 0 -227 93t-90 227q0 109 57 202t148 145.5t192 52.5q137 0 227 -93t90 -227q0 -109 -57 -202t-148 -145.5t-192 -52.5zM187 375h608v12q0 114 -76.5 193.5t-198.5 79.5q-118 0 -214.5 -81.5t-118.5 -203.5zM181 330v-17q0 -114 76.5 -193.5t198.5 -79.5
q118 0 216 82.5t119 207.5h-610z" />
    <glyph glyph-name="uni04E9" unicode="&#x4e9;" 
d="M309 -10q-91 0 -152 64.5t-61 156.5q0 115 83.5 197t187.5 82q91 0 152 -64.5t61 -156.5q0 -115 -83.5 -197t-187.5 -82zM141 220v-5q0 -76 50 -128t124 -52q73 0 137 53t79 132h-390zM146 265h389q0 76 -50 128t-124 52q-72 0 -134.5 -51.5t-80.5 -128.5z" />
    <glyph glyph-name="uni04EA" unicode="&#x4ea;" horiz-adv-x="830" 
d="M448 -10q-137 0 -227 93t-90 227q0 109 57 202t148 145.5t192 52.5q137 0 227 -93t90 -227q0 -109 -57 -202t-148 -145.5t-192 -52.5zM187 375h608v12q0 114 -76.5 193.5t-198.5 79.5q-118 0 -214.5 -81.5t-118.5 -203.5zM181 330v-17q0 -114 76.5 -193.5t198.5 -79.5
q118 0 216 82.5t119 207.5h-610zM444 856q0 17 11.5 28t27.5 11q14 0 23 -9t9 -22q0 -17 -11.5 -28t-27.5 -11q-14 0 -23 9t-9 22zM619 856q0 17 11.5 28t27.5 11q14 0 23 -9t9 -22q0 -17 -11.5 -28t-27.5 -11q-14 0 -23 9t-9 22z" />
    <glyph glyph-name="uni04EB" unicode="&#x4eb;" 
d="M309 -10q-91 0 -152 64.5t-61 156.5q0 115 83.5 197t187.5 82q91 0 152 -64.5t61 -156.5q0 -115 -83.5 -197t-187.5 -82zM141 220v-5q0 -76 50 -128t124 -52q73 0 137 53t79 132h-390zM146 265h389q0 76 -50 128t-124 52q-72 0 -134.5 -51.5t-80.5 -128.5zM285 631
q0 17 11.5 28t27.5 11q14 0 23 -9t9 -22q0 -17 -11.5 -28t-27.5 -11q-14 0 -23 9t-9 22zM460 631q0 17 11.5 28t27.5 11q14 0 23 -9t9 -22q0 -17 -11.5 -28t-27.5 -11q-14 0 -23 9t-9 22z" />
    <glyph glyph-name="uni04EC" unicode="&#x4ec;" horiz-adv-x="745" 
d="M92 144l42 27q21 -37 54 -66q77 -65 184 -65q127 0 221.5 88t111.5 202h-386l10 50h381v8q0 115 -76.5 193.5t-199.5 78.5q-94 0 -178 -53q-35 -21 -66 -52l-28 35q34 34 78 60q95 60 202 60q138 0 228 -92.5t90 -227.5q0 -164 -121 -282t-275 -118q-120 0 -207 77
q-39 33 -65 77zM388 856q0 17 11.5 28t27.5 11q14 0 23 -9t9 -22q0 -17 -11.5 -28t-27.5 -11q-14 0 -23 9t-9 22zM563 856q0 17 11.5 28t27.5 11q14 0 23 -9t9 -22q0 -17 -11.5 -28t-27.5 -11q-14 0 -23 9t-9 22z" />
    <glyph glyph-name="uni04ED" unicode="&#x4ed;" horiz-adv-x="510" 
d="M61 97l41 25q12 -23 33 -44q43 -43 112 -43q75 0 136 55t78 135h-258l10 45h252q-4 76 -51 125.5t-118 49.5q-54 0 -110 -35q-26 -17 -40 -34l-28 33q21 21 51 40q66 41 133 41q89 0 148.5 -63t59.5 -156q0 -115 -82.5 -198t-184.5 -83q-82 0 -139 53q-28 26 -43 54z
M217 626q0 17 11.5 28t27.5 11q14 0 23 -9t9 -22q0 -17 -11.5 -28t-27.5 -11q-14 0 -23 9t-9 22zM392 626q0 17 11.5 28t27.5 11q14 0 23 -9t9 -22q0 -17 -11.5 -28t-27.5 -11q-14 0 -23 9t-9 22z" />
    <glyph glyph-name="uni04EE" unicode="&#x4ee;" horiz-adv-x="600" 
d="M317 840l8 40h270l-8 -40h-270zM60 2l10 50l19 -6q22 -6 42 -6q42 0 73 24t73 81l45 63l-159 492h52l142 -440l303 440h58l-383 -555q-55 -81 -103 -118t-110 -37q-18 0 -42 6z" />
    <glyph glyph-name="uni04EF" unicode="&#x4ef;" horiz-adv-x="480" 
d="M212 620l8 40h270l-8 -40h-270zM-8 -198l11 45l14 -6q18 -6 33 -6q29 0 51.5 17.5t46.5 57.5l56 92l-92 478h48l80 -420l260 420h52l-352 -570q-40 -65 -74 -92.5t-79 -27.5q-18 0 -40 6z" />
    <glyph glyph-name="uni04F0" unicode="&#x4f0;" horiz-adv-x="600" 
d="M60 2l10 50l19 -6q22 -6 42 -6q42 0 73 24t73 81l45 63l-159 492h52l142 -440l303 440h58l-383 -555q-55 -81 -103 -118t-110 -37q-18 0 -42 6zM330 856q0 17 11.5 28t27.5 11q14 0 23 -9t9 -22q0 -17 -11.5 -28t-27.5 -11q-14 0 -23 9t-9 22zM505 856q0 17 11.5 28
t27.5 11q14 0 23 -9t9 -22q0 -17 -11.5 -28t-27.5 -11q-14 0 -23 9t-9 22z" />
    <glyph glyph-name="uni04F1" unicode="&#x4f1;" horiz-adv-x="480" 
d="M220 626q0 17 11.5 28t27.5 11q14 0 23 -9t9 -22q0 -17 -11.5 -28t-27.5 -11q-14 0 -23 9t-9 22zM395 626q0 17 11.5 28t27.5 11q14 0 23 -9t9 -22q0 -17 -11.5 -28t-27.5 -11q-14 0 -23 9t-9 22zM-8 -198l11 45l14 -6q18 -6 33 -6q29 0 51.5 17.5t46.5 57.5l56 92
l-92 478h48l80 -420l260 420h52l-352 -570q-40 -65 -74 -92.5t-79 -27.5q-18 0 -40 6z" />
    <glyph glyph-name="uni04F2" unicode="&#x4f2;" horiz-adv-x="600" 
d="M60 2l10 50l19 -6q22 -6 42 -6q42 0 73 24t73 81l45 63l-159 492h52l142 -440l303 440h58l-383 -555q-55 -81 -103 -118t-110 -37q-18 0 -42 6zM335 795l102 130h55l-117 -130h-40zM480 795l102 130h55l-117 -130h-40z" />
    <glyph glyph-name="uni04F3" unicode="&#x4f3;" horiz-adv-x="480" 
d="M235 565l102 130h55l-117 -130h-40zM380 565l102 130h55l-117 -130h-40zM-8 -198l11 45l14 -6q18 -6 33 -6q29 0 51.5 17.5t46.5 57.5l56 92l-92 478h48l80 -420l260 420h52l-352 -570q-40 -65 -74 -92.5t-79 -27.5q-18 0 -40 6z" />
    <glyph glyph-name="uni04F4" unicode="&#x4f4;" horiz-adv-x="695" 
d="M529 0l64 301q-27 -17 -52 -26q-62 -25 -129 -25q-122 0 -180 77t-35 184l40 189h50l-41 -199q-19 -93 30.5 -147t142.5 -54q66 0 132 30q29 14 54 30l72 340h50l-148 -700h-50zM380 856q0 17 11.5 28t27.5 11q14 0 23 -9t9 -22q0 -17 -11.5 -28t-27.5 -11q-14 0 -23 9
t-9 22zM555 856q0 17 11.5 28t27.5 11q14 0 23 -9t9 -22q0 -17 -11.5 -28t-27.5 -11q-14 0 -23 9t-9 22z" />
    <glyph glyph-name="uni04F5" unicode="&#x4f5;" horiz-adv-x="530" 
d="M397 0l40 191q-22 -10 -34 -13q-39 -13 -88 -13q-98 0 -144 55.5t-28 139.5l26 120h45l-27 -125q-14 -67 20.5 -106t111.5 -39q50 0 93 15q23 9 36 16l51 239h45l-102 -480h-45zM255 626q0 17 11.5 28t27.5 11q14 0 23 -9t9 -22q0 -17 -11.5 -28t-27.5 -11q-14 0 -23 9
t-9 22zM430 626q0 17 11.5 28t27.5 11q14 0 23 -9t9 -22q0 -17 -11.5 -28t-27.5 -11q-14 0 -23 9t-9 22z" />
    <glyph glyph-name="uni04F6" unicode="&#x4f6;" horiz-adv-x="555" 
d="M168 -150l32 150h-90l148 700h425l-10 -50h-375l-128 -600h90l-42 -200h-50z" />
    <glyph glyph-name="uni04F7" unicode="&#x4f7;" horiz-adv-x="410" 
d="M139 -120l26 120h-80l102 480h305l-10 -45h-260l-83 -390h80l-35 -165h-45z" />
    <glyph glyph-name="uni04F8" unicode="&#x4f8;" horiz-adv-x="865" 
d="M170 50h217q78 0 133 53t55 132q0 64 -43.5 104.5t-111.5 40.5h-180zM110 0l148 700h50l-57 -270h169q86 0 145.5 -55t59.5 -137q0 -99 -72 -168.5t-172 -69.5h-271zM705 0l148 700h50l-148 -700h-50zM470 856q0 17 11.5 28t27.5 11q14 0 23 -9t9 -22q0 -17 -11.5 -28
t-27.5 -11q-14 0 -23 9t-9 22zM645 856q0 17 11.5 28t27.5 11q14 0 23 -9t9 -22q0 -17 -11.5 -28t-27.5 -11q-14 0 -23 9t-9 22z" />
    <glyph glyph-name="uni04F9" unicode="&#x4f9;" horiz-adv-x="670" 
d="M139 45h151q57 0 93 34t36 90q0 40 -30 68t-82 28h-121zM85 0l102 480h45l-37 -170h115q68 0 111.5 -38t43.5 -99q0 -76 -51.5 -124.5t-127.5 -48.5h-201zM540 0l102 480h45l-102 -480h-45zM335 626q0 17 11.5 28t27.5 11q14 0 23 -9t9 -22q0 -17 -11.5 -28t-27.5 -11
q-14 0 -23 9t-9 22zM510 626q0 17 11.5 28t27.5 11q14 0 23 -9t9 -22q0 -17 -11.5 -28t-27.5 -11q-14 0 -23 9t-9 22z" />
    <glyph glyph-name="uni04FA" unicode="&#x4fa;" horiz-adv-x="570" 
d="M67 -194l11 49l16 -8q15 -7 38 -7q45 0 61 63l22 97h-90l70 330h-105l10 50h105l68 320h425l-10 -50h-375l-58 -270h215l-10 -50h-215l-60 -280h90l-32 -151q-12 -52 -43.5 -80.5t-72.5 -28.5q-22 0 -44 8z" />
    <glyph glyph-name="uni04FB" unicode="&#x4fb;" horiz-adv-x="420" 
d="M42 -195l9 45l15 -8q15 -7 33 -7q40 0 51 55l24 110h-80l44 210h-85l10 45h85l48 225h305l-10 -45h-260l-38 -180h150l-10 -45h-150l-35 -165h80l-34 -160q-22 -95 -99 -95q-23 0 -38 7z" />
    <glyph glyph-name="uni04FC" unicode="&#x4fc;" horiz-adv-x="610" 
d="M15 0l337 365l-169 335h55l148 -295l272 295h65l-311 -335l184 -370q38 -77 -0.5 -141t-115.5 -64q-37 0 -57 11q-11 5 -21 12l11 49q5 -4 22 -11q20 -11 52 -11q31 0 52 16.5t26 50t-20 83.5l-166 335l-299 -325h-65z" />
    <glyph glyph-name="uni04FD" unicode="&#x4fd;" horiz-adv-x="440" 
d="M10 0l233 250l-116 230h51l98 -195l182 195h59l-214 -230l103 -205q45 -92 45 -130q0 -55 -35.5 -90t-85.5 -35q-26 0 -48 10q-10 4 -17 11l10 45q7 -6 17 -11q22 -10 43 -10q31 0 50.5 21t19.5 56q0 34 -29 95l-107 208l-200 -215h-59z" />
    <glyph glyph-name="uni04FE" unicode="&#x4fe;" horiz-adv-x="610" 
d="M15 0l314 340h-157l9 45h160l-158 315h55l148 -295l272 295h65l-293 -315h161l-9 -45h-157l170 -340h-55l-161 325l-299 -325h-65z" />
    <glyph glyph-name="uni04FF" unicode="&#x4ff;" horiz-adv-x="440" 
d="M10 0l209 225h-92l10 45h95l-105 210h51l98 -195l182 195h59l-196 -210h96l-10 -45h-92l115 -225h-51l-110 215l-200 -215h-59z" />
    <glyph glyph-name="uni0510" unicode="&#x510;" horiz-adv-x="565" 
d="M527 111l27 -38q-26 -25 -58 -42q-72 -41 -156 -41q-106 0 -169 55.5t-63 133.5q0 108 94 166q38 24 95 35q-26 11 -50 30q-50 42 -50 103q0 81 65 139t162 58q98 0 169 -59q29 -23 50 -59l-42 -31q-14 25 -41 49q-58 50 -143 50q-74 0 -122 -40.5t-48 -101.5
q0 -52 45.5 -87.5t115.5 -35.5h63l-10 -50h-111q-82 0 -137.5 -48.5t-55.5 -113.5q0 -59 50.5 -101t139.5 -42q76 0 133 35q28 17 47 36z" />
    <glyph glyph-name="uni0511" unicode="&#x511;" horiz-adv-x="425" 
d="M382 82l23 -33q-18 -17 -42 -30q-52 -29 -115 -29q-81 0 -126.5 39t-45.5 94q0 76 65 113q27 16 66 22q-18 7 -32 20q-31 29 -31 71q0 58 46 99.5t114 41.5q70 0 125 -39q23 -17 38 -38l-42 -31q-12 19 -28 31q-40 32 -97 32q-50 0 -80.5 -27t-30.5 -65q0 -36 28 -59.5
t72 -23.5h47l-10 -45h-76q-57 0 -93 -28.5t-36 -68.5q0 -37 34.5 -64.5t97.5 -27.5q49 0 93 23q23 12 36 23z" />
    <glyph glyph-name="uni0512" unicode="&#x512;" horiz-adv-x="730" 
d="M-4 10l9 46l21 -8q24 -8 41 -8q28 0 52.5 17.5t52.5 62.5t57 134.5t56 220.5l47 225h435l-165 -779q-27 -131 -131 -131q-36 0 -58 12q-12 5 -20 12l11 48q6 -6 18 -11q19 -11 50 -11q33 0 52.5 20.5t28.5 65.5l154 724h-335l-38 -180q-24 -115 -50.5 -201t-52 -139
t-53.5 -85t-53.5 -43.5t-55.5 -11.5q-26 0 -52 10q-14 6 -21 10z" />
    <glyph glyph-name="uni0513" unicode="&#x513;" horiz-adv-x="555" 
d="M0 6l9 43q5 -4 13 -7q13 -7 33 -7q41 0 76.5 63t72.5 232l32 150h335l-125 -585q-22 -105 -112 -105q-32 0 -51 11q-14 6 -20 11l10 45q7 -7 17 -11q17 -11 43 -11q56 0 69 64l114 536h-245l-23 -110q-20 -99 -43.5 -166.5t-48.5 -103.5t-49 -50.5t-52 -14.5q-18 0 -40 8
q-13 6 -15 8z" />
    <glyph glyph-name="Wgrave" unicode="&#x1e80;" horiz-adv-x="1000" 
d="M235 0l-77 700h52l64 -620l331 620h50l69 -620l326 620h58l-373 -700h-50l-69 620l-331 -620h-50zM605 795l-63 130h55l48 -130h-40z" />
    <glyph glyph-name="wgrave" unicode="&#x1e81;" horiz-adv-x="710" 
d="M170 0l-58 480h48l48 -405l217 405h40l42 -410l223 410h52l-262 -480h-45l-44 405l-216 -405h-45zM415 565l-63 130h55l48 -130h-40z" />
    <glyph glyph-name="Wacute" unicode="&#x1e82;" horiz-adv-x="1000" 
d="M235 0l-77 700h52l64 -620l331 620h50l69 -620l326 620h58l-373 -700h-50l-69 620l-331 -620h-50zM625 795l102 130h55l-117 -130h-40z" />
    <glyph glyph-name="wacute" unicode="&#x1e83;" horiz-adv-x="710" 
d="M170 0l-58 480h48l48 -405l217 405h40l42 -410l223 410h52l-262 -480h-45l-44 405l-216 -405h-45zM440 565l102 130h55l-117 -130h-40z" />
    <glyph glyph-name="Wdieresis" unicode="&#x1e84;" horiz-adv-x="1000" 
d="M235 0l-77 700h52l64 -620l331 620h50l69 -620l326 620h58l-373 -700h-50l-69 620l-331 -620h-50zM523 856q0 17 11.5 28t27.5 11q14 0 23 -9t9 -22q0 -17 -11.5 -28t-27.5 -11q-14 0 -23 9t-9 22zM698 856q0 17 11.5 28t27.5 11q14 0 23 -9t9 -22q0 -17 -11.5 -28
t-27.5 -11q-14 0 -23 9t-9 22z" />
    <glyph glyph-name="wdieresis" unicode="&#x1e85;" horiz-adv-x="710" 
d="M170 0l-58 480h48l48 -405l217 405h40l42 -410l223 410h52l-262 -480h-45l-44 405l-216 -405h-45zM335 625q0 17 11.5 28t27.5 11q14 0 23 -9t9 -22q0 -17 -11.5 -28t-27.5 -11q-14 0 -23 9t-9 22zM510 625q0 17 11.5 28t27.5 11q14 0 23 -9t9 -22q0 -17 -11.5 -28
t-27.5 -11q-14 0 -23 9t-9 22z" />
    <glyph glyph-name="uni1E9E" unicode="&#x1e9e;" horiz-adv-x="690" 
d="M100 0l109 511q18 85 79 137t139 52h311l-10 -50l-251 -240h8q21 0 45 -5.5t50.5 -19.5t47.5 -34t34.5 -53t13.5 -73q0 -95 -69 -160t-169 -65h-113l10 50h110q80 0 131 49t51 124q0 64 -45.5 100.5t-116.5 36.5h-64l11 50l251 240h-246q-61 0 -103.5 -38t-56.5 -106
l-107 -506h-50z" />
    <glyph glyph-name="Ygrave" unicode="&#x1ef2;" horiz-adv-x="600" 
d="M260 0l52 245l-164 455h55l140 -400l310 400h65l-356 -455l-52 -245h-50zM415 795l-63 130h55l48 -130h-40z" />
    <glyph glyph-name="ygrave" unicode="&#x1ef3;" horiz-adv-x="480" 
d="M-8 -198l11 45l14 -6q18 -6 33 -6q29 0 51.5 17.5t46.5 57.5l56 92l-92 478h48l80 -420l260 420h52l-352 -570q-40 -65 -74 -92.5t-79 -27.5q-18 0 -40 6zM320 565l-63 130h55l48 -130h-40z" />
    <glyph glyph-name="endash" unicode="&#x2013;" horiz-adv-x="465" 
d="M97 270l9 45h385l-9 -45h-385z" />
    <glyph glyph-name="emdash" unicode="&#x2014;" horiz-adv-x="705" 
d="M97 270l9 45h625l-9 -45h-625z" />
    <glyph glyph-name="quoteleft" unicode="&#x2018;" horiz-adv-x="195" 
d="M142 555l141 165l26 -15l-123 -180z" />
    <glyph glyph-name="quoteright" unicode="&#x2019;" horiz-adv-x="195" 
d="M139 540l124 180l43 -30l-140 -165z" />
    <glyph glyph-name="quotesinglbase" unicode="&#x201a;" horiz-adv-x="200" 
d="M-18 -110l122 180l44 -30l-140 -165z" />
    <glyph glyph-name="quotedblleft" unicode="&#x201c;" horiz-adv-x="335" 
d="M142 555l141 165l26 -15l-123 -180zM282 555l141 165l26 -15l-123 -180z" />
    <glyph glyph-name="quotedblright" unicode="&#x201d;" horiz-adv-x="335" 
d="M139 540l124 180l43 -30l-140 -165zM279 540l124 180l43 -30l-140 -165z" />
    <glyph glyph-name="quotedblbase" unicode="&#x201e;" horiz-adv-x="340" 
d="M-18 -110l122 180l44 -30l-140 -165zM121 -110l123 180l44 -30l-140 -165z" />
    <glyph glyph-name="dagger" unicode="&#x2020;" horiz-adv-x="415" 
d="M227 200l67 315h-125l10 45h125l29 140h45l-29 -140h125l-10 -45h-125l-67 -315h-45z" />
    <glyph glyph-name="daggerdbl" unicode="&#x2021;" horiz-adv-x="415" 
d="M227 200l30 140h-125l9 45h125l28 130h-125l10 45h125l29 140h45l-29 -140h125l-10 -45h-125l-28 -130h125l-9 -45h-125l-30 -140h-45z" />
    <glyph glyph-name="bullet" unicode="&#x2022;" horiz-adv-x="400" 
d="M260 320q32 0 52 -20.5t20 -50.5q0 -38 -27 -63.5t-62 -25.5q-32 0 -52 20.5t-20 50.5q0 38 27 63.5t62 25.5z" />
    <glyph glyph-name="ellipsis" unicode="&#x2026;" horiz-adv-x="620" 
d="M111 65q14 0 23 -9t9 -22q0 -17 -11.5 -28t-27.5 -11q-14 0 -23 9t-9 22q0 17 11.5 28t27.5 11zM321 65q14 0 23 -9t9 -22q0 -17 -11.5 -28t-27.5 -11q-14 0 -23 9t-9 22q0 17 11.5 28t27.5 11zM531 65q14 0 23 -9t9 -22q0 -17 -11.5 -28t-27.5 -11q-14 0 -23 9t-9 22
q0 17 11.5 28t27.5 11z" />
    <glyph glyph-name="perthousand" unicode="&#x2030;" horiz-adv-x="1110" 
d="M135 0l588 700h55l-588 -700h-55zM207 539q0 -42 25.5 -68t68.5 -26q47 0 82.5 35.5t35.5 90.5q0 42 -26 68t-69 26q-47 0 -82 -35.5t-35 -90.5zM161 534q0 75 50 125.5t117 50.5q60 0 98.5 -38t38.5 -96q0 -75 -50 -125.5t-117 -50.5q-60 0 -98.5 38t-38.5 96zM494 129
q0 -42 26 -68t69 -26q47 0 82 35.5t35 90.5q0 42 -25.5 68t-68.5 26q-47 0 -82.5 -35.5t-35.5 -90.5zM448 124q0 75 50 125.5t117 50.5q60 0 98.5 -38t38.5 -96q0 -75 -50 -125.5t-117 -50.5q-60 0 -98.5 38t-38.5 96zM842 129q0 -42 26 -68t69 -26q47 0 82 35.5t35 90.5
q0 42 -25.5 68t-68.5 26q-47 0 -82.5 -35.5t-35.5 -90.5zM796 124q0 75 50 125.5t117 50.5q60 0 98.5 -38t38.5 -96q0 -75 -50 -125.5t-117 -50.5q-60 0 -98.5 38t-38.5 96z" />
    <glyph glyph-name="guilsinglleft" unicode="&#x2039;" horiz-adv-x="270" 
d="M182 80l-81 160l149 160h60l-154 -165l78 -155h-52z" />
    <glyph glyph-name="guilsinglright" unicode="&#x203a;" horiz-adv-x="270" 
d="M77 80l154 165l-78 155h52l81 -160l-149 -160h-60z" />
    <glyph glyph-name="uni203D" unicode="&#x203d;" horiz-adv-x="520" 
d="M206 26q0 17 11.5 28t27.5 11q14 0 23 -9t9 -22q0 -17 -11.5 -28t-27.5 -11q-14 0 -23 9t-9 22zM244 160l101 499q-67 -5 -115 -55q-20 -21 -34 -48l-44 16q21 40 50 69q69 69 163 69q91 0 145.5 -50t54.5 -121q0 -58 -24 -98.5t-59.5 -65t-73 -47t-68.5 -58.5t-41 -85
l-5 -25h-50zM402 656l-81 -334q21 18 62.5 44.5t66 44.5t45 51t20.5 74q0 44 -29.5 76.5t-83.5 43.5z" />
    <glyph glyph-name="fraction" unicode="&#x2044;" horiz-adv-x="140" 
d="M-170 0l583 700h50l-583 -700h-50z" />
    <glyph glyph-name="uni2070" unicode="&#x2070;" horiz-adv-x="350" 
d="M263 445q-52 0 -86 38t-34 102q0 99 52.5 159.5t115.5 60.5q52 0 86 -38t34 -102q0 -99 -52.5 -159.5t-115.5 -60.5zM265 485q45 0 85.5 47.5t40.5 125.5q0 49 -24 78t-58 29q-45 0 -85.5 -47.5t-40.5 -125.5q0 -49 24 -78t58 -29z" />
    <glyph glyph-name="uni2074" unicode="&#x2074;" horiz-adv-x="275" 
d="M113 535l9 40l208 225h50l-48 -225h45l-9 -40h-45l-18 -85h-40l18 85h-170zM172 575h120l36 169z" />
    <glyph glyph-name="uni2075" unicode="&#x2075;" horiz-adv-x="280" 
d="M116 514l36 26q7 -16 21 -28q27 -27 77 -27q40 0 62.5 22.5t22.5 57.5q0 30 -21 47.5t-59 17.5q-19 0 -44 -9q-10 -5 -14 -9h-36l55 188h190l-9 -40h-155l-31 -103l15 6q26 7 41 7q49 0 79 -29t30 -73q0 -51 -38 -87t-94 -36q-60 0 -100 34q-17 14 -28 35z" />
    <glyph glyph-name="uni2076" unicode="&#x2076;" horiz-adv-x="280" 
d="M164 660l131 140h48l-108 -117q3 0 6 1q2 0 7 0.5t9 0.5q47 0 77.5 -33t30.5 -77q0 -52 -41 -91t-96 -39q-49 0 -80.5 32.5t-31.5 77.5q0 57 48 105zM247 645q-38 0 -65 -25.5t-27 -62.5q0 -31 22 -51.5t57 -20.5q38 0 65 25.5t27 62.5q0 31 -22 51.5t-57 20.5z" />
    <glyph glyph-name="uni2077" unicode="&#x2077;" horiz-adv-x="255" 
d="M170 450l201 310h-180l9 40h225l-9 -40l-201 -310h-45z" />
    <glyph glyph-name="uni2078" unicode="&#x2078;" horiz-adv-x="280" 
d="M208 641q-10 6 -18 15q-17 21 -17 48q0 39 34.5 70t79.5 31q43 0 70 -26t27 -63q0 -43 -34 -69q-15 -11 -33 -18q9 -5 21 -17q22 -24 22 -55q0 -44 -37 -78t-87 -34q-47 0 -76.5 29t-29.5 69q0 35 22.5 62.5t55.5 35.5zM213 705q0 -21 17.5 -35.5t45.5 -14.5
q29 0 48.5 17.5t19.5 42.5q0 21 -17.5 35.5t-45.5 14.5q-29 0 -48.5 -17.5t-19.5 -42.5zM248 615q-33 0 -55.5 -20.5t-22.5 -49.5q0 -25 19.5 -42.5t52.5 -17.5t55.5 20.5t22.5 49.5q0 25 -19.5 42.5t-52.5 17.5z" />
    <glyph glyph-name="uni2079" unicode="&#x2079;" horiz-adv-x="280" 
d="M173 450l108 117q-2 -1 -7 -1q-3 -1 -15 -1q-47 0 -77.5 33t-30.5 77q0 52 41 91t96 39q49 0 80.5 -32.5t31.5 -77.5q0 -57 -48 -105l-131 -140h-48zM190 677q0 -31 22 -51.5t57 -20.5q38 0 65 25.5t27 62.5q0 31 -22 51.5t-57 20.5q-38 0 -65 -25.5t-27 -62.5z" />
    <glyph glyph-name="uni2080" unicode="&#x2080;" horiz-adv-x="350" 
d="M147 -105q-52 0 -86 38t-34 102q0 99 52.5 159.5t115.5 60.5q52 0 86 -38t34 -102q0 -99 -52.5 -159.5t-115.5 -60.5zM149 -65q45 0 85.5 47.5t40.5 125.5q0 49 -24 78t-58 29q-45 0 -85.5 -47.5t-40.5 -125.5q0 -49 24 -78t58 -29z" />
    <glyph glyph-name="uni2081" unicode="&#x2081;" horiz-adv-x="220" 
d="M89 -100l62 290q-8 -8 -20 -15q-24 -15 -57 -15l8 35q33 0 62 27q13 12 25 28h35l-75 -350h-40z" />
    <glyph glyph-name="uni2082" unicode="&#x2082;" horiz-adv-x="285" 
d="M54 -60h189l-9 -40h-230q4 44 31 77.5t61.5 53.5t68.5 37t57.5 39t23.5 50q0 24 -18 40.5t-48 16.5q-31 0 -61 -26q-11 -10 -21 -26l-32 19q13 21 29 37q37 37 88 37q49 0 76 -27t27 -65q0 -37 -21 -65t-52 -46t-63 -33t-59.5 -35t-36.5 -44z" />
    <glyph glyph-name="uni2083" unicode="&#x2083;" horiz-adv-x="295" 
d="M11 -32l36 27q7 -15 22 -30q32 -30 76 -30q35 0 57 20t22 51q0 25 -18.5 42t-54.5 17h-40l9 40h51q71 0 71 58q0 22 -18 36.5t-50 14.5q-28 0 -58 -18q-12 -8 -21 -18l-22 33q12 11 28 22q38 22 76 22q47 0 76 -26t29 -63q0 -26 -16.5 -53t-44.5 -35q11 -6 21 -15
q21 -21 21 -53q0 -48 -36.5 -81.5t-89.5 -33.5q-59 0 -97 36q-19 18 -29 37z" />
    <glyph glyph-name="uni2084" unicode="&#x2084;" horiz-adv-x="275" 
d="M-3 -15l9 40l208 225h50l-48 -225h45l-9 -40h-45l-18 -85h-40l18 85h-170zM56 25h120l36 169z" />
    <glyph glyph-name="uni2085" unicode="&#x2085;" horiz-adv-x="280" 
d="M0 -36l36 26q7 -16 21 -28q27 -27 77 -27q40 0 62.5 22.5t22.5 57.5q0 30 -21 47.5t-59 17.5q-19 0 -44 -9q-10 -5 -14 -9h-36l55 188h190l-9 -40h-155l-31 -103l15 6q26 7 41 7q49 0 79 -29t30 -73q0 -51 -38 -87t-94 -36q-60 0 -100 34q-17 14 -28 35z" />
    <glyph glyph-name="uni2086" unicode="&#x2086;" horiz-adv-x="280" 
d="M48 110l131 140h48l-108 -117q3 0 6 1q2 0 7 0.5t9 0.5q47 0 77.5 -33t30.5 -77q0 -52 -41 -91t-96 -39q-49 0 -80.5 32.5t-31.5 77.5q0 57 48 105zM131 95q-38 0 -65 -25.5t-27 -62.5q0 -31 22 -51.5t57 -20.5q38 0 65 25.5t27 62.5q0 31 -22 51.5t-57 20.5z" />
    <glyph glyph-name="uni2087" unicode="&#x2087;" horiz-adv-x="255" 
d="M54 -100l201 310h-180l9 40h225l-9 -40l-201 -310h-45z" />
    <glyph glyph-name="uni2088" unicode="&#x2088;" horiz-adv-x="280" 
d="M92 91q-10 6 -18 15q-17 21 -17 48q0 39 34.5 70t79.5 31q43 0 70 -26t27 -63q0 -43 -34 -69q-15 -11 -33 -18q9 -5 21 -17q22 -24 22 -55q0 -44 -37 -78t-87 -34q-47 0 -76.5 29t-29.5 69q0 35 22.5 62.5t55.5 35.5zM97 155q0 -21 17.5 -35.5t45.5 -14.5q29 0 48.5 17.5
t19.5 42.5q0 21 -17.5 35.5t-45.5 14.5q-29 0 -48.5 -17.5t-19.5 -42.5zM132 65q-33 0 -55.5 -20.5t-22.5 -49.5q0 -25 19.5 -42.5t52.5 -17.5t55.5 20.5t22.5 49.5q0 25 -19.5 42.5t-52.5 17.5z" />
    <glyph glyph-name="uni2089" unicode="&#x2089;" horiz-adv-x="280" 
d="M57 -100l108 117q-2 -1 -7 -1q-3 -1 -15 -1q-47 0 -77.5 33t-30.5 77q0 52 41 91t96 39q49 0 80.5 -32.5t31.5 -77.5q0 -57 -48 -105l-131 -140h-48zM74 127q0 -31 22 -51.5t57 -20.5q38 0 65 25.5t27 62.5q0 31 -22 51.5t-57 20.5q-38 0 -65 -25.5t-27 -62.5z" />
    <glyph glyph-name="uni20A9" unicode="&#x20a9;" horiz-adv-x="930" 
d="M250 0l-17 245h-151l9 45h139l-7 115h-107l9 45h94l-16 250h53l15 -250h194l121 250h50l15 -250h194l121 250h57l-123 -250h95l-9 -45h-107l-57 -115h139l-9 -45h-152l-120 -245h-50l-15 245h-197l-118 -245h-50zM439 290h173l-6 115h-111zM280 290h108l56 115h-170z
M660 290h108l56 115h-170zM516 450h87l-9 160zM292 90l75 155h-84zM672 90l75 155h-84z" />
    <glyph glyph-name="Euro" unicode="&#x20ac;" horiz-adv-x="720" 
d="M72 245l9 45h97v15q0 31 8 71l9 34h-88l9 45h94q31 101 131.5 178t213.5 77q105 0 183 -68q35 -30 59 -68l-41 -31l-4 6q-4 6 -12.5 16.5t-20.5 23t-29.5 25t-37.5 23t-47 17t-55 6.5q-88 0 -172 -58.5t-116 -146.5h259l-9 -45h-267l-9 -34q-8 -40 -8 -71v-15h258l-9 -45
h-245q10 -76 78.5 -140t158.5 -64q72 0 140 37q33 17 57 37l27 -39q-26 -23 -64 -43q-75 -43 -163 -43q-112 0 -191.5 76.5t-94.5 178.5h-108z" />
    <glyph glyph-name="uni20B4" unicode="&#x20b4;" horiz-adv-x="610" 
d="M146 405l10 50h374q10 9 22 24q22 30 22 61q0 46 -44 83t-123 37q-55 0 -111 -27q-24 -13 -41 -27l-29 36q21 18 51 34q64 34 135 34q97 0 155 -50t58 -114q0 -35 -16 -67q-8 -15 -16 -24h53l-10 -50h-490zM112 245l10 50h490l-10 -50h-374q-10 -9 -22 -24
q-22 -30 -22 -61q0 -46 44 -83t123 -37q62 0 111 27q24 11 41 27l29 -36q-21 -18 -51 -34q-66 -34 -135 -34q-97 0 -155 50t-58 114q0 34 16 66q10 18 16 25h-53z" />
    <glyph glyph-name="uni20B8" unicode="&#x20b8;" horiz-adv-x="545" 
d="M240 0l104 490h-230l10 50h510l-10 -50h-230l-104 -490h-50zM148 650l10 50h510l-10 -50h-510z" />
    <glyph glyph-name="uni20B9" unicode="&#x20b9;" horiz-adv-x="595" 
d="M138 300l11 50h190q63 0 109 35.5t61 89.5h-334l11 50h330q-5 57 -46 91t-105 34h-152l10 50h475l-10 -50h-178q16 -15 28 -34q27 -41 28 -91h95l-11 -50h-90q-16 -77 -82.5 -126t-147.5 -49h-117l307 -300h-75z" />
    <glyph glyph-name="uni20BA" unicode="&#x20ba;" horiz-adv-x="535" 
d="M122 -10l60 282l-90 -27l10 50l91 27l23 110l-90 -27l10 50l91 27l46 218h50l-43 -202l204 62l-11 -50l-203 -62l-24 -110l204 62l-11 -50l-203 -62l-52 -243q157 11 238 64t81 124q0 7 -2 17q-1 3 -1 7l45 21l3 -12q4 -11 4 -33q0 -100 -102 -165t-328 -78z" />
    <glyph glyph-name="uni20BD" unicode="&#x20bd;" horiz-adv-x="655" 
d="M125 0l29 140h-85l11 50h85l21 100h-85l11 50h85l76 360h237q80 0 135 -51.5t55 -130.5q0 -95 -68.5 -161.5t-165.5 -66.5h-230l-21 -100h259l-11 -50h-259l-29 -140h-50zM247 340h227q74 0 124.5 49.5t50.5 124.5q0 62 -42.5 99t-101.5 37h-192z" />
    <glyph glyph-name="uni20BF" unicode="&#x20bf;" horiz-adv-x="660" 
d="M189 -120l26 120h-105l148 700h105l26 120h50l-26 -120h79l26 120h51l-26 -123q60 -11 95.5 -52.5t35.5 -100.5q0 -88 -62 -142q-28 -25 -62 -35q25 -13 45 -35q45 -47 45 -114q0 -92 -65.5 -155t-161.5 -63h-18l-26 -120h-51l26 120h-79l-26 -120h-50zM170 50h250
q75 0 122.5 47t47.5 119q0 57 -41 93t-109 36h-207zM243 395h235q63 0 104.5 39.5t41.5 106.5q0 51 -35.5 80t-93.5 29h-197z" />
    <glyph glyph-name="uni2113" unicode="&#x2113;" horiz-adv-x="360" 
d="M181 120v120q-4 -1 -8 -2.5t-9.5 -3t-9.5 -2.5q-28 -7 -68 -11v45q50 6 68 13q18 5 27 11v284q0 63 31.5 99.5t78.5 36.5q51 0 83 -37.5t32 -107.5q0 -108 -49.5 -186t-130.5 -119v-140q0 -85 80 -85q25 0 43 7q13 5 17 8v-45l-5 -2.5t-7 -3t-7 -2.5q-21 -7 -46 -7
q-57 0 -88.5 33.5t-31.5 96.5zM226 570v-260q61 36 98 101t37 154q0 51 -19 75.5t-51 24.5q-28 0 -46.5 -24.5t-18.5 -70.5z" />
    </font>
</defs>
</svg>
